<svg xmlns="http://www.w3.org/2000/svg" xmlns:xlink="http://www.w3.org/1999/xlink" viewBox="0 0 1029.52 800.71"><defs><style>.cls-1{fill:#f4f4f4;}.cls-2{fill:#d5e2db;}.cls-3{fill:#7d97f4;}.cls-4{fill:url(#linear-gradient);}.cls-5{fill:url(#linear-gradient-2);}.cls-6{fill:url(#linear-gradient-3);}.cls-7{fill:url(#linear-gradient-4);}.cls-8{fill:url(#linear-gradient-5);}.cls-10,.cls-101,.cls-11,.cls-115,.cls-116,.cls-117,.cls-119,.cls-16,.cls-18,.cls-43,.cls-47,.cls-53,.cls-55,.cls-63,.cls-9{fill:none;}.cls-10,.cls-100,.cls-101,.cls-11,.cls-115,.cls-116,.cls-117,.cls-119,.cls-13,.cls-15,.cls-16,.cls-18,.cls-43,.cls-47,.cls-53,.cls-55,.cls-63,.cls-9{stroke-miterlimit:10;}.cls-10,.cls-11,.cls-115,.cls-116,.cls-117,.cls-9{stroke-width:3px;}.cls-9{stroke:url(#linear-gradient-6);}.cls-10{stroke:url(#linear-gradient-7);}.cls-11{stroke:url(#linear-gradient-8);}.cls-12{fill:url(#linear-gradient-9);}.cls-13{fill:#cceaff;}.cls-13,.cls-47{stroke:#011627;}.cls-14{fill:#a9e2ff;}.cls-15{fill:#7addce;}.cls-119,.cls-15{stroke:#000;}.cls-100,.cls-15{stroke-width:0.25px;}.cls-16{stroke:#1b998b;stroke-width:11px;}.cls-17{fill:#f9ac00;}.cls-18{stroke:#ff9f1c;stroke-width:1.5px;}.cls-19{fill:#ecad29;}.cls-20{fill:url(#linear-gradient-10);}.cls-21{fill:#fbd3a8;}.cls-100,.cls-22{fill:#fff;}.cls-23{fill:#424142;}.cls-24{fill:#353535;}.cls-25{fill:#603913;}.cls-26{opacity:0.35;}.cls-27{fill:#f8a364;}.cls-28{fill:#603813;}.cls-29{fill:#fbbd89;}.cls-30{fill:#282525;}.cls-31{fill:#402313;}.cls-32{fill:url(#linear-gradient-11);}.cls-33{fill:#90d6d3;}.cls-34{fill:#09747c;}.cls-35{fill:#ef596b;}.cls-105,.cls-36,.cls-62{opacity:0.8;}.cls-36{fill:url(#linear-gradient-12);}.cls-37{fill:url(#linear-gradient-13);}.cls-38{fill:url(#linear-gradient-14);}.cls-39{fill:url(#linear-gradient-15);}.cls-40{fill:#565656;}.cls-41{fill:url(#linear-gradient-16);}.cls-42{fill:#ff9f1c;}.cls-43{stroke:#fff;}.cls-44{fill:#666;}.cls-45{fill:#24b2a1;}.cls-46{fill:#2ec4b6;}.cls-48{fill:#1b998b;}.cls-49{fill:url(#linear-gradient-17);}.cls-50{fill:#c11431;}.cls-51{fill:url(#linear-gradient-18);}.cls-52{fill:#dceae7;}.cls-53,.cls-55{stroke:#5b5b5b;}.cls-54{fill:url(#linear-gradient-19);}.cls-101,.cls-119,.cls-55{stroke-width:0.75px;}.cls-56{fill:url(#linear-gradient-20);}.cls-57{fill:#5b5b5b;}.cls-58{fill:url(#linear-gradient-21);}.cls-59{fill:url(#linear-gradient-22);}.cls-60{fill:url(#linear-gradient-23);}.cls-61{fill:url(#linear-gradient-24);}.cls-62{fill:url(#linear-gradient-25);}.cls-63{stroke:#dbbf77;}.cls-64{fill:url(#linear-gradient-26);}.cls-65{fill:url(#linear-gradient-27);}.cls-66{fill:url(#linear-gradient-28);}.cls-67{fill:url(#linear-gradient-29);}.cls-68{fill:url(#linear-gradient-30);}.cls-69{fill:url(#linear-gradient-31);}.cls-70{fill:url(#linear-gradient-32);}.cls-71{fill:url(#linear-gradient-33);}.cls-72{fill:url(#linear-gradient-34);}.cls-108,.cls-109,.cls-73,.cls-74{opacity:0.6;}.cls-73{fill:url(#linear-gradient-35);}.cls-74{fill:url(#linear-gradient-36);}.cls-75{fill:url(#linear-gradient-37);}.cls-76{fill:url(#linear-gradient-38);}.cls-77{fill:url(#linear-gradient-39);}.cls-78{fill:url(#linear-gradient-40);}.cls-79{fill:url(#linear-gradient-41);}.cls-80{fill:url(#linear-gradient-42);}.cls-81{fill:url(#linear-gradient-43);}.cls-82{fill:url(#linear-gradient-44);}.cls-83{fill:url(#linear-gradient-45);}.cls-84{fill:url(#linear-gradient-46);}.cls-85{fill:url(#linear-gradient-47);}.cls-86{fill:url(#linear-gradient-48);}.cls-87{fill:#1d1d1b;}.cls-88{fill:#fc0000;}.cls-89{fill:url(#linear-gradient-49);}.cls-90{fill:#fdf372;}.cls-91{fill:#4ce9c2;}.cls-92{fill:#ff5628;}.cls-93{fill:#402311;}.cls-94{fill:#e8546a;}.cls-95{fill:#df3f26;}.cls-96{fill:#ed7e22;}.cls-97{fill:#603912;}.cls-98{fill:#ec8420;}.cls-99{fill:#aa4124;}.cls-100,.cls-101{stroke:#1d1d1b;}.cls-102{fill:url(#linear-gradient-50);}.cls-103{fill:url(#linear-gradient-51);}.cls-104{fill:#ed0028;}.cls-106{fill:url(#linear-gradient-52);}.cls-107{fill:url(#linear-gradient-53);}.cls-108{fill:url(#linear-gradient-54);}.cls-109{fill:url(#linear-gradient-55);}.cls-110{fill:url(#linear-gradient-56);}.cls-111{fill:url(#linear-gradient-57);}.cls-112{fill:url(#linear-gradient-58);}.cls-113{fill:url(#linear-gradient-59);}.cls-114{fill:url(#linear-gradient-60);}.cls-115{stroke:url(#linear-gradient-61);}.cls-116{stroke:url(#linear-gradient-62);}.cls-117{stroke:url(#linear-gradient-63);}.cls-118{fill:url(#linear-gradient-64);}.cls-120{fill:#ef0000;}</style><linearGradient id="linear-gradient" x1="633.2" y1="662.92" x2="634.23" y2="627.93" gradientTransform="translate(502.91 -211.74) rotate(33.96)" gradientUnits="userSpaceOnUse"><stop offset="0" stop-color="#020039"/><stop offset="1" stop-color="#090056"/></linearGradient><linearGradient id="linear-gradient-2" x1="637.19" y1="667.65" x2="644.88" y2="658.14" gradientTransform="matrix(1, 0, 0, 1, 0, 0)" xlink:href="#linear-gradient"/><linearGradient id="linear-gradient-3" x1="643.95" y1="666.19" x2="651.96" y2="656.29" gradientTransform="matrix(1, 0, 0, 1, 0, 0)" xlink:href="#linear-gradient"/><linearGradient id="linear-gradient-4" x1="660.53" y1="662.75" x2="649.38" y2="657.27" gradientTransform="matrix(1, 0, 0, 1, 0, 0)" xlink:href="#linear-gradient"/><linearGradient id="linear-gradient-5" x1="624.42" y1="614.93" x2="625.03" y2="594.28" xlink:href="#linear-gradient"/><linearGradient id="linear-gradient-6" x1="603.18" y1="661.25" x2="603.3" y2="657.18" gradientTransform="translate(562.41 -219.94) rotate(37.32)" xlink:href="#linear-gradient"/><linearGradient id="linear-gradient-7" x1="608.37" y1="656.38" x2="608.49" y2="652.31" gradientTransform="translate(562.41 -219.94) rotate(37.32)" xlink:href="#linear-gradient"/><linearGradient id="linear-gradient-8" x1="584.54" y1="699.3" x2="584.66" y2="695.23" gradientTransform="translate(971.83 -185.68) rotate(60.24)" xlink:href="#linear-gradient"/><linearGradient id="linear-gradient-9" x1="605.85" y1="663.7" x2="606.23" y2="650.88" xlink:href="#linear-gradient"/><linearGradient id="linear-gradient-10" x1="692.28" y1="617.6" x2="675.28" y2="647.14" gradientUnits="userSpaceOnUse"><stop offset="0" stop-color="#febbba"/><stop offset="1" stop-color="#ff908d"/></linearGradient><linearGradient id="linear-gradient-11" x1="727.27" y1="299" x2="650.67" y2="432.11" gradientUnits="userSpaceOnUse"><stop offset="0" stop-color="#febbba"/><stop offset="1" stop-color="#ff928e"/></linearGradient><linearGradient id="linear-gradient-12" x1="723.72" y1="286.98" x2="708.18" y2="313.98" gradientUnits="userSpaceOnUse"><stop offset="0" stop-color="#feacba"/><stop offset="1" stop-color="#ff908d"/></linearGradient><linearGradient id="linear-gradient-13" x1="588.05" y1="411.56" x2="406.2" y2="727.57" xlink:href="#linear-gradient-11"/><linearGradient id="linear-gradient-14" x1="677.21" y1="346.32" x2="356.57" y2="903.49" xlink:href="#linear-gradient-11"/><linearGradient id="linear-gradient-15" x1="346.16" y1="314.25" x2="267.44" y2="451.04" xlink:href="#linear-gradient-11"/><linearGradient id="linear-gradient-16" x1="357.67" y1="626.37" x2="284.88" y2="752.86" xlink:href="#linear-gradient-11"/><linearGradient id="linear-gradient-17" x1="443.9" y1="623.13" x2="360.1" y2="768.74" xlink:href="#linear-gradient-11"/><linearGradient id="linear-gradient-18" x1="264.56" y1="473.79" x2="403.01" y2="473.79" gradientUnits="userSpaceOnUse"><stop offset="0" stop-color="#4f52ff"/><stop offset="1" stop-color="#4042e2"/></linearGradient><linearGradient id="linear-gradient-19" x1="239.25" y1="583.14" x2="281.67" y2="583.14" xlink:href="#linear-gradient-18"/><linearGradient id="linear-gradient-20" x1="171.41" y1="678.63" x2="354.2" y2="678.63" xlink:href="#linear-gradient-18"/><linearGradient id="linear-gradient-21" x1="-87.69" y1="470.29" x2="50.75" y2="470.29" gradientTransform="matrix(-1, 0, 0, 1, 686.68, 0)" xlink:href="#linear-gradient-18"/><linearGradient id="linear-gradient-22" x1="-180.85" y1="675.12" x2="1.94" y2="675.12" gradientTransform="matrix(-1, 0, 0, 1, 686.68, 0)" xlink:href="#linear-gradient-18"/><linearGradient id="linear-gradient-23" x1="-113.01" y1="579.63" x2="-70.59" y2="579.63" gradientTransform="matrix(-1, 0, 0, 1, 686.68, 0)" xlink:href="#linear-gradient-18"/><linearGradient id="linear-gradient-24" x1="402.95" y1="463.3" x2="117.19" y2="959.86" xlink:href="#linear-gradient-11"/><linearGradient id="linear-gradient-25" x1="352.6" y1="301.15" x2="339.74" y2="323.49" gradientUnits="userSpaceOnUse"><stop offset="0" stop-color="#febbba"/><stop offset="0.18" stop-color="#ff9592"/><stop offset="1" stop-color="#ff908d"/></linearGradient><linearGradient id="linear-gradient-26" x1="662.9" y1="311.27" x2="658.58" y2="318.77" gradientUnits="userSpaceOnUse"><stop offset="0" stop-color="#fe878c"/><stop offset="0.18" stop-color="#ff9592"/><stop offset="1" stop-color="#ff908d"/></linearGradient><linearGradient id="linear-gradient-27" x1="664.4" y1="280.69" x2="657.9" y2="291.98" xlink:href="#linear-gradient-26"/><linearGradient id="linear-gradient-28" x1="659.21" y1="282.28" x2="652.86" y2="293.3" xlink:href="#linear-gradient-26"/><linearGradient id="linear-gradient-29" x1="653.6" y1="284.38" x2="647.8" y2="294.46" xlink:href="#linear-gradient-26"/><linearGradient id="linear-gradient-30" x1="660.56" y1="294.04" x2="654.92" y2="303.85" xlink:href="#linear-gradient-26"/><linearGradient id="linear-gradient-31" x1="554.72" y1="410.51" x2="544.56" y2="428.17" xlink:href="#linear-gradient-26"/><linearGradient id="linear-gradient-32" x1="540.15" y1="410.23" x2="530.74" y2="426.57" xlink:href="#linear-gradient-26"/><linearGradient id="linear-gradient-33" x1="537.33" y1="417.68" x2="526.91" y2="435.78" xlink:href="#linear-gradient-26"/><linearGradient id="linear-gradient-34" x1="539.92" y1="430.9" x2="532.91" y2="443.08" xlink:href="#linear-gradient-26"/><linearGradient id="linear-gradient-35" x1="444.42" y1="611.36" x2="436.4" y2="625.3" xlink:href="#linear-gradient-25"/><linearGradient id="linear-gradient-36" x1="358.15" y1="612.73" x2="350.09" y2="626.74" xlink:href="#linear-gradient-25"/><linearGradient id="linear-gradient-37" x1="332.8" y1="419.69" x2="337.4" y2="263.31" gradientTransform="matrix(1, 0, 0, 1, 0, 0)" xlink:href="#linear-gradient"/><linearGradient id="linear-gradient-38" x1="362.71" y1="283.19" x2="282.95" y2="421.81" xlink:href="#linear-gradient-11"/><linearGradient id="linear-gradient-39" x1="341.14" y1="478.24" x2="347.68" y2="255.92" gradientTransform="matrix(1, 0, 0, 1, 0, 0)" xlink:href="#linear-gradient"/><linearGradient id="linear-gradient-40" x1="335.81" y1="479.35" x2="341.97" y2="270" gradientTransform="matrix(1, 0, 0, 1, 0, 0)" xlink:href="#linear-gradient"/><linearGradient id="linear-gradient-41" x1="303.05" y1="426.16" x2="308.13" y2="253.42" gradientTransform="matrix(1, 0, 0, 1, 0, 0)" xlink:href="#linear-gradient"/><linearGradient id="linear-gradient-42" x1="313.88" y1="265.33" x2="314.42" y2="246.98" gradientTransform="matrix(1, 0, 0, 1, 0, 0)" xlink:href="#linear-gradient"/><linearGradient id="linear-gradient-43" x1="721.34" y1="274.85" x2="617.99" y2="454.44" xlink:href="#linear-gradient-11"/><linearGradient id="linear-gradient-44" x1="726.72" y1="276.18" x2="727.86" y2="237.5" gradientTransform="matrix(1, 0, 0, 1, 0, 0)" xlink:href="#linear-gradient"/><linearGradient id="linear-gradient-45" x1="687.35" y1="642.19" x2="599.14" y2="795.48" xlink:href="#linear-gradient-11"/><linearGradient id="linear-gradient-46" x1="457.24" y1="292" x2="393.78" y2="402.27" xlink:href="#linear-gradient-11"/><linearGradient id="linear-gradient-47" x1="441.65" y1="296.51" x2="429.1" y2="318.33" xlink:href="#linear-gradient-11"/><linearGradient id="linear-gradient-48" x1="468.45" y1="296.47" x2="455.89" y2="318.29" xlink:href="#linear-gradient-11"/><linearGradient id="linear-gradient-49" x1="454.86" y1="313.99" x2="440.15" y2="339.55" xlink:href="#linear-gradient-11"/><linearGradient id="linear-gradient-50" x1="415.83" y1="548.34" x2="405.33" y2="566.6" xlink:href="#linear-gradient-25"/><linearGradient id="linear-gradient-51" x1="410.42" y1="549.74" x2="399.4" y2="568.89" xlink:href="#linear-gradient-25"/><linearGradient id="linear-gradient-52" x1="743.23" y1="276.35" x2="734.71" y2="285.82" gradientUnits="userSpaceOnUse"><stop offset="0" stop-color="#fe9db3"/><stop offset="1" stop-color="#ff908d"/></linearGradient><linearGradient id="linear-gradient-53" x1="346.12" y1="281.85" x2="350" y2="288.59" xlink:href="#linear-gradient-52"/><linearGradient id="linear-gradient-54" x1="687.02" y1="625.14" x2="668.93" y2="656.58" xlink:href="#linear-gradient-25"/><linearGradient id="linear-gradient-55" x1="702.85" y1="625.55" x2="699.09" y2="632.08" xlink:href="#linear-gradient-25"/><linearGradient id="linear-gradient-56" x1="696.87" y1="716.87" x2="697.89" y2="681.88" gradientTransform="matrix(1, 0, 0, 1, 0, 0)" xlink:href="#linear-gradient"/><linearGradient id="linear-gradient-57" x1="666.28" y1="708.33" x2="667.35" y2="696.14" gradientTransform="matrix(1, 0, 0, 1, 0, 0)" xlink:href="#linear-gradient"/><linearGradient id="linear-gradient-58" x1="671.07" y1="703.34" x2="672.19" y2="690.65" gradientTransform="matrix(1, 0, 0, 1, 0, 0)" xlink:href="#linear-gradient"/><linearGradient id="linear-gradient-59" x1="682.91" y1="691.23" x2="670.6" y2="692.91" gradientTransform="matrix(1, 0, 0, 1, 0, 0)" xlink:href="#linear-gradient"/><linearGradient id="linear-gradient-60" x1="688.09" y1="668.87" x2="688.7" y2="648.22" gradientTransform="matrix(1, 0, 0, 1, 0, 0)" xlink:href="#linear-gradient"/><linearGradient id="linear-gradient-61" x1="669.89" y1="711.38" x2="670.01" y2="707.31" gradientTransform="translate(44.77 -40.03) rotate(3.36)" xlink:href="#linear-gradient"/><linearGradient id="linear-gradient-62" x1="675.08" y1="706.51" x2="675.2" y2="702.44" gradientTransform="translate(44.77 -40.03) rotate(3.36)" xlink:href="#linear-gradient"/><linearGradient id="linear-gradient-63" x1="665.51" y1="719.49" x2="665.63" y2="715.42" gradientTransform="translate(403.49 -240.33) rotate(26.28)" xlink:href="#linear-gradient"/><linearGradient id="linear-gradient-64" x1="669.52" y1="717.64" x2="669.9" y2="704.83" gradientTransform="matrix(1, 0, 0, 1, 0, 0)" xlink:href="#linear-gradient"/></defs><g id="Layer_2" data-name="Layer 2"><g id="Layer_1-2" data-name="Layer 1"><path class="cls-1" d="M.34,239.14C2.46,181.66,15.15,123,48,75.93S136.5-4.41,193.4.47C246.23,5,291.54,40.29,327.69,79.4s67,83.76,108.74,116.7c81.8,64.51,202.73,73.46,292.89,21.67,33.09-19,62.66-45.51,99.23-56.27C881.28,146,940.77,168,977.68,209s52.92,98.2,51.79,153.54-18.08,109.25-40.28,159.86c-42.13,96-106.58,185.68-197.38,237.18s-210.66,58.31-296.92-.77c-83.52-57.21-124.51-164.48-211.27-216.57C235,513.07,177.16,504.51,124.81,482.89c-34-14.06-67.16-36.25-87.73-67.58-9.8-14.94-14.44-32-21.5-48.28C9,351.79,5.89,336.6,3.84,320.09A508.06,508.06,0,0,1,.34,239.14Z"/><polygon class="cls-2" points="125.66 726.03 270.13 632.19 800.54 632.19 933.4 726.03 125.66 726.03"/><path class="cls-3" d="M664.46,634.89s18.57,7.59,38.39,2.64c0,0-2,11.21-2.47,15-.82,6-2.13,19.36-4.46,23.91l-46.23,7a15.92,15.92,0,0,1-12.83-3.75,16.78,16.78,0,0,1-5.36-7.82,11.4,11.4,0,0,1-.49-5.16,14,14,0,0,1,5-8.87,20.2,20.2,0,0,1,9.7-4.5l17.74-2.94Z"/><path class="cls-4" d="M697.28,672.9l-59,7.73s3.83,3.94,11.42,2.79c6.29-.95,34-4,43.49-5a4.22,4.22,0,0,0,3.71-3.43C697,674.4,697.13,673.7,697.28,672.9Z"/><path class="cls-5" d="M639.7,655.27a11.06,11.06,0,0,1,2.71,3.41,13.76,13.76,0,0,1,1.27,3.7,14,14,0,0,1,.21,3.9,11.2,11.2,0,0,1-1.22,4.18l-.3.06c-.62-2.51-1.08-5-1.63-7.57s-1-5.07-1.34-7.62Z"/><path class="cls-6" d="M646.42,653.14a11.61,11.61,0,0,1,2.8,3.63,15.26,15.26,0,0,1,1.38,3.92,15.81,15.81,0,0,1,.3,4.14,12,12,0,0,1-1.12,4.44l-.29.06c-.69-2.66-1.22-5.35-1.83-8s-1.1-5.38-1.53-8.1Z"/><path class="cls-7" d="M653.4,652a11.54,11.54,0,0,1,2.81,3.55,15,15,0,0,1,1.39,3.86,15.36,15.36,0,0,1,.31,4.08,11.67,11.67,0,0,1-1.1,4.39l-.3.07c-.69-2.62-1.22-5.28-1.85-7.91s-1.11-5.3-1.55-8Z"/><path class="cls-8" d="M664.46,634.89s18.68,8.26,38.39,2.64l-.93,5.41a55.14,55.14,0,0,1-37.74-3.55Z"/><circle class="cls-9" cx="642.56" cy="670.03" r="0.54"/><circle class="cls-10" cx="649.64" cy="669.3" r="0.54"/><circle class="cls-11" cx="656.74" cy="667.94" r="0.54"/><path class="cls-12" d="M634.28,659.6s-4,16.58,11.07,20.88L640.44,682a16.62,16.62,0,0,1-8.94-10.15C629.58,666.34,631.86,662.68,634.28,659.6Z"/><path class="cls-13" d="M493.67,391.88s10.46,25.05,0,47.94h40.68s-9.9-23.2,0-47.94Z"/><rect class="cls-13" x="407.34" y="256.62" width="213.34" height="145.31" rx="10.56"/><path class="cls-14" d="M513.65,408.54a38.33,38.33,0,0,1,11.9,14.38c2.85,5.64,5.41,9.42,7,15.57-3.7-12.08-4.89-22.44-2.73-35.31-3.71.11-6.89-.13-10.45,0-4.13.11-5.67-.16-9.08-.09s-7.31-.07-10.7,0c-.18,0-1.46,0-1.42.16.08.31.08.68.14.77s.63-.09.93-.1.72,0,1.09,0a21.8,21.8,0,0,1,4.33.59,25.94,25.94,0,0,1,8.11,3.44Z"/><rect class="cls-15" x="419.42" y="268.39" width="71.61" height="66.45" rx="5"/><path class="cls-16" d="M125.66,726l98.89-268.85s1.93-12.61,17.89-11.77,577.87,0,577.87,0,15-3,16.92,10.93c8.7,24,96.17,269.69,96.17,269.69"/><rect class="cls-17" x="458.2" y="437.64" width="100.4" height="5.38"/><path class="cls-18" d="M375.43,670.13a4.55,4.55,0,0,1,4-5.57.5.5,0,0,1,.55.28,4.11,4.11,0,0,1-.55,4.23c-1.08,1.13-2.33,1.89-3.71,1.18a7.5,7.5,0,0,0,7,6.25"/><path class="cls-18" d="M375.38,669.94a11,11,0,0,1-5,6.79"/><rect class="cls-19" x="518.99" y="341.21" width="41.51" height="36.73"/><path class="cls-20" d="M706.53,625.8l-5,20.56s-22.17,7.24-37.43-6.42l1.39-20.62S683.93,615.76,706.53,625.8Z"/><path class="cls-21" d="M548.59,375.8a6.77,6.77,0,0,0-2.84-2.26c-1.64-.71-3.56-1.37-4-3.77h-3.61c-.44,2.4-2.35,3.06-4,3.77a6.71,6.71,0,0,0-2.84,2.26,5.85,5.85,0,0,0-.94,2.07h19.15A5.85,5.85,0,0,0,548.59,375.8Z"/><path class="cls-22" d="M535.93,372.72a13.14,13.14,0,0,0,8,0c2.61,1.21,4.55,1.72,5.56,5.15H530.38C531.52,373.89,534.51,373.57,535.93,372.72Z"/><path class="cls-23" d="M536.52,372.89v5H530.3c1.13-3.49,3.67-4.29,5.63-5.17Z"/><polygon class="cls-24" points="536.52 372.89 536.52 377.84 534.61 377.84 533.9 376.05 534.62 373.39 535.93 372.72 536.52 372.89"/><path class="cls-25" d="M536.53,377.86H534.6l-.72-1.81h0l.73-2.67h0l1.31-.67.6.18Zm-1.91,0h1.88V372.9l-.56-.16-1.3.66-.72,2.65Z"/><circle class="cls-22" cx="535.31" cy="375.69" r="0.67"/><path class="cls-23" d="M543.39,372.89v5h6.21c-1.13-3.49-3.67-4.29-5.63-5.17Z"/><polygon class="cls-24" points="543.38 372.89 543.38 377.84 545.3 377.84 546 376.05 545.28 373.39 543.97 372.72 543.38 372.89"/><path class="cls-25" d="M545.31,377.86h-1.94v-5l.6-.18,1.32.68h0l.72,2.67h0Zm-1.91,0h1.88l.71-1.78-.72-2.65-1.3-.66-.57.16Z"/><circle class="cls-22" cx="544.6" cy="375.69" r="0.67"/><path class="cls-25" d="M549.6,377.93H530.3l0-.07a6,6,0,0,1,.95-2.1,6.8,6.8,0,0,1,2.86-2.28l.31-.13c1.52-.65,3.25-1.38,3.65-3.59v-.05h3.71v.05c.4,2.21,2.12,2.94,3.64,3.59l.31.13a6.77,6.77,0,0,1,2.87,2.28h0a6,6,0,0,1,1,2.1Zm-19.14-.12h19a6,6,0,0,0-.91-2h0a6.65,6.65,0,0,0-2.82-2.23l-.31-.14c-1.53-.65-3.27-1.39-3.71-3.63h-3.49c-.44,2.24-2.18,3-3.72,3.63l-.31.14a6.68,6.68,0,0,0-2.81,2.23A5.81,5.81,0,0,0,530.46,377.81Z"/><g class="cls-26"><path class="cls-27" d="M538.17,369.58l3.67,0,.06,1.06c-.58.85-3.41.81-3.84,0Z"/></g><path class="cls-21" d="M532,366.5c-1.65,0-2.7-2.19-2.19-3.6a1.29,1.29,0,0,1,.7-.78,1.54,1.54,0,0,1,1.49.29Z"/><path class="cls-28" d="M532.1,366.56H532a2.2,2.2,0,0,1-1.79-1,3.11,3.11,0,0,1-.46-2.67,1.38,1.38,0,0,1,.74-.81,1.59,1.59,0,0,1,1.54.3l0,0ZM531,362.09a1,1,0,0,0-.43.09,1.26,1.26,0,0,0-.67.74,2.94,2.94,0,0,0,.45,2.54,2.08,2.08,0,0,0,1.61,1v-4A1.77,1.77,0,0,0,531,362.09Z"/><path class="cls-29" d="M532,365.72c-1.83-.08-2.21-3.38,0-2.59"/><path class="cls-28" d="M532.05,363.19a2.15,2.15,0,0,0-.61-.13,1.58,1.58,0,0,0-.31,0,.83.83,0,0,0-.29.11.77.77,0,0,0-.23.21,1,1,0,0,0-.11.29,1.17,1.17,0,0,0,0,.32,1.82,1.82,0,0,0,0,.32,1.72,1.72,0,0,1,0-.64.77.77,0,0,1,.11-.3.64.64,0,0,1,.22-.24,1.17,1.17,0,0,1,.31-.12,1.67,1.67,0,0,1,.32,0,2.77,2.77,0,0,1,.64.11Z"/><path class="cls-21" d="M548.11,366.4c1.64,0,2.69-2.19,2.18-3.61a1.3,1.3,0,0,0-.7-.77,1.53,1.53,0,0,0-1.48.29Z"/><path class="cls-28" d="M548.11,366.46H548v-4.18l0,0a1.59,1.59,0,0,1,1.54-.3,1.38,1.38,0,0,1,.74.81,3.06,3.06,0,0,1-.46,2.66A2.18,2.18,0,0,1,548.11,366.46Zm.06-4.12v4a2,2,0,0,0,1.61-1,3,3,0,0,0,.45-2.55,1.26,1.26,0,0,0-.67-.74A1.45,1.45,0,0,0,548.17,362.34Z"/><path class="cls-29" d="M548.15,363c2.23-.79,1.85,2.51,0,2.59"/><path class="cls-28" d="M548.06,363a2.32,2.32,0,0,1,.64-.11,1.13,1.13,0,0,1,.32,0,.91.91,0,0,1,.31.12.69.69,0,0,1,.22.23.89.89,0,0,1,.11.31,1.67,1.67,0,0,1,0,.63c0-.1,0-.21,0-.31a1.12,1.12,0,0,0,0-.32,1,1,0,0,0-.11-.29.73.73,0,0,0-.22-.21.77.77,0,0,0-.3-.11,1.06,1.06,0,0,0-.31,0,2.15,2.15,0,0,0-.61.13Z"/><path class="cls-21" d="M548.44,353.09H531.67c-2.28,10.37-.65,17.19,8.27,17.41h.23C549.08,370.28,550.72,363.46,548.44,353.09Z"/><path class="cls-28" d="M539.94,370.56a12,12,0,0,1-4.39-.84,7.25,7.25,0,0,1-2.92-2.2,10.48,10.48,0,0,1-1.92-6,32.47,32.47,0,0,1,.89-8.48V353h16.88v.05a32.1,32.1,0,0,1,.9,8.48,10.41,10.41,0,0,1-1.93,6,7.29,7.29,0,0,1-2.91,2.2,12,12,0,0,1-4.39.84Zm-8.22-17.4a31.73,31.73,0,0,0-.88,8.4,10.28,10.28,0,0,0,1.89,5.88c1.5,1.91,3.92,2.91,7.21,3h.23c3.28-.08,5.71-1.08,7.2-3a10.28,10.28,0,0,0,1.9-5.88,31.73,31.73,0,0,0-.88-8.4Z"/><path class="cls-30" d="M537.57,361.88c0,.62-.32,1.13-.71,1.13s-.72-.51-.72-1.13.32-1.14.72-1.14S537.57,361.25,537.57,361.88Z"/><path class="cls-22" d="M537.3,361.39a.39.39,0,0,1-.34.43.44.44,0,0,1,0-.86A.39.39,0,0,1,537.3,361.39Z"/><path class="cls-30" d="M544,361.88c0,.62-.31,1.13-.71,1.13s-.71-.51-.71-1.13.32-1.14.71-1.14S544,361.25,544,361.88Z"/><path class="cls-22" d="M543.7,361.39a.4.4,0,0,1-.35.43.44.44,0,0,1,0-.86A.4.4,0,0,1,543.7,361.39Z"/><path class="cls-30" d="M543.13,359.93c-.69,0-1-.65-.47-1.05a1,1,0,0,1,.73-.18c.71.08,1.15.33,1.23.82a.53.53,0,0,1-.15.48c-.25.23-.64.14-1.07,0A.61.61,0,0,0,543.13,359.93Z"/><path class="cls-30" d="M537.11,359.93c.69,0,.95-.65.47-1.05a1,1,0,0,0-.73-.18c-.71.08-1.15.33-1.23.82a.53.53,0,0,0,.15.48c.25.23.64.14,1.06,0A.68.68,0,0,1,537.11,359.93Z"/><path class="cls-25" d="M540,373.39a13.57,13.57,0,0,1-4.05-.63l0-.08a13.19,13.19,0,0,0,8,0l0,.08A13.28,13.28,0,0,1,540,373.39Z"/><path class="cls-31" d="M546,353.37c.2,4.24-4.92,6.77-11.66,8.51,1.66-1.67,3-2.73,3.65-4.57a14,14,0,0,1-5.93,2.83,13.5,13.5,0,0,0,2.36-3.17l-2.33,1.19c-1,1.48-1.12,3.82-.77,6.7-1.74-2.67-3.18-5.44-1.94-9.93a4.14,4.14,0,0,1-4-1.82,6.8,6.8,0,0,0,4.37-1.3,2.85,2.85,0,0,1-2.33-2A5.9,5.9,0,0,0,531,350a4.25,4.25,0,0,1-1.86-2.37,13,13,0,0,0,4.43.34c7.91-2,12.23-1.4,15.33,1.84,2.77,2.77,3.71,10.89-.08,14.78A15.28,15.28,0,0,0,546,353.37Z"/><path class="cls-25" d="M531.43,365.13l-.14-.23c-1.73-2.66-3.18-5.43-2-9.9a4.2,4.2,0,0,1-3.94-1.85l-.08-.11h.13a6.72,6.72,0,0,0,4.21-1.21,2.88,2.88,0,0,1-2.23-2.06l0-.11.12,0a6,6,0,0,0,3.39.31,4.28,4.28,0,0,1-1.77-2.33l0-.11.11,0a12.15,12.15,0,0,0,4.4.34,26.12,26.12,0,0,1,9.49-1,9.29,9.29,0,0,1,5.89,2.91,7.64,7.64,0,0,1,1.71,2.95,14,14,0,0,1,.73,4.05,10.63,10.63,0,0,1-2.51,7.86l-.13.13,0-.18a15.3,15.3,0,0,0-2.69-11.05,4.94,4.94,0,0,1-.81,2.71,8.42,8.42,0,0,1-2.46,2.34,28.7,28.7,0,0,1-8.45,3.32l-.22.05.16-.16.8-.79a10.47,10.47,0,0,0,2.75-3.52,14.24,14.24,0,0,1-5.77,2.68l-.19.05.13-.15c.27-.33.53-.63.78-.92a8.64,8.64,0,0,0,1.51-2.08l-2.16,1.11c-.89,1.37-1.13,3.55-.76,6.65Zm-1.95-10.27,0,.09c-1.2,4.34.13,7.07,1.79,9.65-.34-3-.07-5.12.81-6.47v0l2.49-1.27-.06.15a7.93,7.93,0,0,1-1.6,2.28c-.21.24-.43.49-.65.76a13.61,13.61,0,0,0,5.72-2.77l.19-.16-.09.23a10.11,10.11,0,0,1-2.87,3.8q-.32.3-.63.63a28.35,28.35,0,0,0,8.18-3.25c2.25-1.48,3.3-3.16,3.2-5.14v-.21l.13.17a14.75,14.75,0,0,1,2.55,5.43,17.57,17.57,0,0,1,.3,5.69,10.68,10.68,0,0,0,2.36-7.63c-.11-2.86-1-5.58-2.41-6.93-3.12-3.26-7.54-3.79-15.27-1.82h0a12.42,12.42,0,0,1-4.34-.32,4,4,0,0,0,1.79,2.23l.12.07-.13,0a5.61,5.61,0,0,1-3.48-.23,2.77,2.77,0,0,0,2.24,1.89l.14,0-.12.08a6.93,6.93,0,0,1-4.27,1.32,4.1,4.1,0,0,0,3.84,1.69Z"/><polyline class="cls-32" points="739.32 318.19 730.5 286.21 703.67 299.89 708.26 318.2"/><rect class="cls-33" x="472.15" y="382.68" width="86.45" height="17.61" rx="8.8"/><path class="cls-34" d="M536,390.15l.06-2.82a2,2,0,0,1,1.68-1.8c1.59-.2,10.32,0,10.32,0s1.86.18,1.89,1.77a74.36,74.36,0,0,1,0,8.32,1.81,1.81,0,0,1-1.92,1.62c-1.5.12-10.08,0-10.08,0a1.81,1.81,0,0,1-1.95-1.73A46.26,46.26,0,0,1,536,390.15Z"/><path class="cls-34" d="M536,390.39a27,27,0,0,0-3.25-4.05c-.32-.24-1.15-.48-1.44.69a78.72,78.72,0,0,0,0,9c0,.36.53,1.14,1.59.24a34.24,34.24,0,0,0,3.1-4Z"/><path class="cls-34" d="M493.93,387.82h4.7a1.53,1.53,0,0,1,1.3,1.41c.06,1.24,0,5.53,0,5.53a1.49,1.49,0,0,1-1.38,1.35h-4.62L489.87,399s-1.47.79-1.77-.53V385.58s.12-1.38,1.59-.85Z"/><path class="cls-34" d="M480,387s.68-.85,1.41-.31,0,1.45,0,1.45a9.86,9.86,0,0,0-1.09,4.56,6.78,6.78,0,0,0,1,3.15,1.57,1.57,0,0,1,.17.64s-.13,1.37-1.48.46c-1.26-1.09-1.7-4.84-1.43-6A9.55,9.55,0,0,1,480,387Z"/><path class="cls-34" d="M485,387.43s.62-.78,1.29-.29,0,1.33,0,1.33a9,9,0,0,0-1,4.18,6,6,0,0,0,.9,2.89,1.5,1.5,0,0,1,.15.58s-.12,1.27-1.35.43c-1.16-1-1.57-4.44-1.31-5.52A8.62,8.62,0,0,1,485,387.43Z"/><rect class="cls-34" x="511.54" y="397.84" width="7.48" height="1.43" rx="0.72" transform="translate(1030.55 797.12) rotate(180)"/><rect class="cls-34" x="514.6" y="395.86" width="1.35" height="2.82" rx="0.67" transform="translate(1030.55 794.54) rotate(180)"/><rect class="cls-34" x="512.04" y="383.02" width="6.55" height="11.89" rx="3.28" transform="translate(1030.64 777.93) rotate(-180)"/><path class="cls-34" d="M510,391.37a5.69,5.69,0,0,0,4.59,5.37,5.22,5.22,0,0,0,6-5.37h-1.35a3.82,3.82,0,0,1-7,2.32,4.93,4.93,0,0,1-.85-2.32Z"/><rect class="cls-35" x="542.71" y="359.51" width="7.13" height="70.25" rx="3.57" transform="translate(168.44 -163.39) rotate(20.05)"/><path class="cls-36" d="M730.76,291s-12.38,24.3-23.56,22.38l-2.55-9.7Z"/><path class="cls-37" d="M632.93,402.62H539.74s-4.37.35-8.37,8.3c0,0-6.59-.7-8.47,4.21s0,6.55,0,6.55h-3.53s-5.65,4.2,0,9.35c0,0-6.12-.47-6.12,4.91s2.83,5.61,2.83,5.61H634.25Z"/><path class="cls-38" d="M679.8,327.21s2.85-20.73-3.51-25c-6-4-12.35,1.47-10-21a3.67,3.67,0,0,0-4-4,80.7,80.7,0,0,0-16.57,4,4.15,4.15,0,0,0-2.78,3.34c-1.18,7.8-6.41,22.08.22,23.66,7.41,1.76,14.83,5.65,11.3,12s-38.83,88.95-38.83,88.95-9.12,26.61,13.85,35.38A32,32,0,0,0,655,443.05a114.85,114.85,0,0,0,25.49-17.26l54.13-57.35Z"/><path class="cls-39" d="M323.19,332l6.17-23.58h32.83l-3.11,18.39S351.43,338.19,323.19,332Z"/><ellipse class="cls-40" cx="354.84" cy="622" rx="26.49" ry="6.96"/><path class="cls-41" d="M370.24,619.68V645.3l-30.4-.55-1.83-25S351.55,616.53,370.24,619.68Z"/><path class="cls-42" d="M334.23,657.05s-.18,34.88,12.84,47.85c8.3,7.74,24.58,0,24.58,0s3.26-6.37-1.06-14.73c-5-9.69-1-32.22-1-32.22L350,639.62S334,650.29,334.23,657.05Z"/><line class="cls-43" x1="336.87" y1="652.84" x2="359.87" y2="652.84"/><line class="cls-43" x1="334.23" y1="657.95" x2="362.31" y2="657.95"/><line class="cls-43" x1="334.44" y1="663.32" x2="363.15" y2="663.32"/><line class="cls-43" x1="334.79" y1="668.07" x2="363.99" y2="668.07"/><line class="cls-43" x1="335.28" y1="672.65" x2="364.66" y2="672.65"/><line class="cls-43" x1="335.87" y1="676.78" x2="365.25" y2="676.78"/><line class="cls-43" x1="336.71" y1="681.45" x2="365.9" y2="681.45"/><line class="cls-43" x1="337.7" y1="685.78" x2="366.46" y2="685.78"/><line class="cls-43" x1="338.97" y1="690.17" x2="366.97" y2="690.17"/><line class="cls-43" x1="340.65" y1="694.54" x2="367.42" y2="694.54"/><line class="cls-43" x1="342.65" y1="698.89" x2="368.48" y2="698.89"/><line class="cls-43" x1="345.44" y1="703.09" x2="370.4" y2="703.09"/><path class="cls-44" d="M334.23,657.05s2.36-19.57,21.35-21.13,20.93,21.13,20.93,21.13v38.73s-.39,6.59-4.86,9.12c0,0-3.88-4.46-4.47-12.43-.46-6.29-3.22-24.77-4.36-32.24a16.74,16.74,0,0,0-4.15-8.85c-2.48-2.7-6.3-5.12-11.6-4C336.46,649.64,334.23,657.05,334.23,657.05Z"/><ellipse class="cls-40" cx="439.46" cy="622" rx="26.49" ry="6.96"/><path class="cls-45" d="M695,453.33s-48.47-6.45-64,19.36L661.23,639.9l8-12.82h38.84l14.3-65.31L760.54,458Z"/><path class="cls-46" d="M710.59,471.32s-81.6-2.46-102.07,5.3-23.3,19.69-23.3,19.69-12,17.73,0,44.56S653.7,658,653.7,658s21.21-25.21,54.37-30.94l-37.43-81.55s56.6,47.58,69.6-28S745.5,471,745.5,471Z"/><path class="cls-47" d="M739.3,509.81H621.93s-16.23,3.52-9.53,20.47C622.29,546.26,675,639.9,675,639.9"/><path class="cls-48" d="M746.07,473c9.33-25.63,17.49-55.15,26.82-80.78a380.26,380.26,0,0,0-.54-43.71,34.75,34.75,0,0,0-21.76-30.09,21.93,21.93,0,0,0-9-1.74c-8.28.6-28.63.07-39.19-.27a27.34,27.34,0,0,0-15,3.82c-3.56,2.16-7.15,5.06-8.28,8.45-2.47,7.42-7.06,52.24-7.06,52.24s11.83,17,33.09,17.65l-24.62,27.18c3.23,15.38-5.26,44.13,13.47,44.5"/><path class="cls-49" d="M456.58,614.4l-1.27,29.49c-5.22.07-9.17-1.56-14.4-1.49-4.92.06-10.86,2.83-15.79,2.9-.67-8.76-.31-19.66-1-28.42C424.14,616.88,440,609.48,456.58,614.4Z"/><path class="cls-50" d="M401,397.91S385.65,429.26,352,414.82C352,414.82,360.72,393.67,401,397.91Z"/><path class="cls-42" d="M296.51,471.83H417.63a52.21,52.21,0,0,1,31.81,10.52c9.85,7.56,16.31,20,16.47,40.52.36,43.78,0,99.13,0,99.13s-21.63-12.88-53,0c0,0,.71-29.49.14-54.93-.56-24.93-31.24-6-31.24-6s.28,48.36-.66,61.18c0,0-25.81-8.7-52.85,0v-61.8s-39.4,0-37.52-39.37S296.51,471.83,296.51,471.83Z"/><path class="cls-35" d="M278.78,488.13,262.59,384.44S268,339,308.3,337.78s41.78-7.15,41.78-7.15,47.13-26.26,50.7,19.48,1.78,57.28,1.78,57.28-16.54-3.89-41.89,22"/><path class="cls-35" d="M360.67,429.35l4.05,45.48s-35.28,16.83-69.65,13.3-8.47-40.8-8.47-40.8L288,377.54"/><path class="cls-51" d="M288,377.54l12.8,138.92s2.74,28.74,27.37,31.48,68.42,0,68.42,0,14.37,11.4,0,24.17l-80.05-.91s-40.09-15-39-45.16c-2.51-25.4-13-148.48-13-148.48S277.08,372.88,288,377.54Z"/><path class="cls-3" d="M264.56,377.56H131.13s-5.47-.69-5.47,7.52,10.26,140.28,10.26,140.28,4.79,43.79,48.59,45.84,132.06,0,132.06,0S281,556.15,277.56,526,264.56,377.56,264.56,377.56Z"/><polygon class="cls-3" points="246.25 594.47 246.25 661.52 275.3 662.77 275.3 594.03 246.25 594.47"/><path class="cls-52" d="M402.56,407.39c.92,3.31-8.06,6.75-19.63,9.93s-22.47,3.4-23.38.08,8.51-8.9,20.08-12.08S401.65,404.08,402.56,407.39Z"/><circle class="cls-3" cx="188.33" cy="705.96" r="13.51"/><circle class="cls-53" cx="188.33" cy="705.96" r="7.77"/><circle class="cls-3" cx="231.01" cy="705.96" r="13.51"/><circle class="cls-53" cx="231.01" cy="706.38" r="7.77"/><circle class="cls-3" cx="293.44" cy="705.96" r="13.51"/><circle class="cls-3" cx="336.12" cy="705.96" r="13.51"/><polygon class="cls-54" points="239.25 572.11 239.25 594.47 281.67 594.47 281.67 571.81 239.25 572.11"/><line class="cls-55" x1="246.25" y1="598.52" x2="275.3" y2="598.52"/><line class="cls-55" x1="246.25" y1="604.93" x2="275.3" y2="604.93"/><line class="cls-55" x1="246.25" y1="611.35" x2="275.3" y2="611.35"/><line class="cls-55" x1="246.25" y1="617.76" x2="275.3" y2="617.76"/><line class="cls-55" x1="246.25" y1="624.17" x2="275.3" y2="624.17"/><path class="cls-56" d="M239.25,677.26V661.52h42.42v17.11h58.16s13.69,1.37,14.37,17.11H171.5s-1.31-7.45,5.87-13.23a19.37,19.37,0,0,1,11.71-4Z"/><line class="cls-55" x1="246.25" y1="630.59" x2="275.3" y2="630.59"/><line class="cls-55" x1="246.25" y1="637" x2="275.3" y2="637"/><line class="cls-55" x1="246.25" y1="643.41" x2="275.3" y2="643.41"/><line class="cls-55" x1="246.25" y1="649.82" x2="275.3" y2="649.82"/><line class="cls-55" x1="246.25" y1="656.24" x2="275.3" y2="656.24"/><circle class="cls-57" cx="231.01" cy="706.38" r="5.26"/><circle class="cls-57" cx="188.33" cy="705.96" r="5.26"/><circle class="cls-57" cx="293.44" cy="706.59" r="5.26"/><circle class="cls-57" cx="336.12" cy="705.96" r="5.26"/><circle class="cls-53" cx="293.44" cy="706.59" r="7.77"/><circle class="cls-53" cx="336.12" cy="705.96" r="7.77"/><path class="cls-58" d="M750.91,374,738.11,513s-2.74,28.73-27.37,31.47-68.43,0-68.43,0-14.37,11.41,0,24.18l80.06-.91s40.09-15,39-45.16c2.52-25.41,13-148.49,13-148.49S761.86,369.37,750.91,374Z"/><path class="cls-3" d="M774.38,374.05H907.81s5.47-.68,5.47,7.53S903,521.85,903,521.85s-4.79,43.79-48.59,45.85-132.06,0-132.06,0,35.58-15.06,39-45.16S774.38,374.05,774.38,374.05Z"/><polygon class="cls-3" points="792.69 590.96 792.69 658.02 763.64 659.26 763.64 590.52 792.69 590.96"/><circle class="cls-3" cx="850.61" cy="702.45" r="13.51"/><circle class="cls-53" cx="850.61" cy="702.45" r="7.77"/><circle class="cls-3" cx="807.93" cy="702.45" r="13.51"/><circle class="cls-53" cx="807.93" cy="702.87" r="7.77"/><circle class="cls-3" cx="745.5" cy="702.45" r="13.51"/><circle class="cls-3" cx="702.82" cy="702.45" r="13.51"/><path class="cls-59" d="M799.69,673.76V658H757.27v17.1H699.11s-13.69,1.37-14.37,17.11H867.43s1.32-7.44-5.86-13.22a19.38,19.38,0,0,0-11.71-4Z"/><polygon class="cls-60" points="799.69 568.61 799.69 590.96 757.27 590.96 757.27 568.3 799.69 568.61"/><line class="cls-55" x1="792.69" y1="595.02" x2="763.64" y2="595.02"/><line class="cls-55" x1="792.69" y1="601.43" x2="763.64" y2="601.43"/><line class="cls-55" x1="792.69" y1="607.84" x2="763.64" y2="607.84"/><line class="cls-55" x1="792.69" y1="614.25" x2="763.64" y2="614.25"/><line class="cls-55" x1="792.69" y1="620.67" x2="763.64" y2="620.67"/><line class="cls-55" x1="792.69" y1="627.08" x2="763.64" y2="627.08"/><line class="cls-55" x1="792.69" y1="633.49" x2="763.64" y2="633.49"/><line class="cls-55" x1="792.69" y1="639.9" x2="763.64" y2="639.9"/><line class="cls-55" x1="792.69" y1="646.32" x2="763.64" y2="646.32"/><line class="cls-55" x1="792.69" y1="652.73" x2="763.64" y2="652.73"/><circle class="cls-57" cx="807.93" cy="702.87" r="5.26"/><circle class="cls-57" cx="850.61" cy="702.45" r="5.26"/><circle class="cls-57" cx="745.5" cy="703.08" r="5.26"/><circle class="cls-57" cx="702.82" cy="702.45" r="5.26"/><circle class="cls-53" cx="745.5" cy="703.08" r="7.77"/><circle class="cls-53" cx="702.82" cy="702.45" r="7.77"/><path class="cls-61" d="M359.44,416.61l.79,108.69c0,2.65-.06,5.29-.16,7.93a32.81,32.81,0,0,0,0,4.95A12.16,12.16,0,0,0,371,548.85c9.89,1.07,25.63-.91,25.63-.91s10.1,11.73,0,24.17c0,0,25.17,4.41,19.87-24.54-1.05-7.41-4.58-10.23-4.58-10.23a13.34,13.34,0,0,0-5.63-4A17.56,17.56,0,0,1,394.55,516v-.08c0-.64.05-1.29.05-1.93V403.86A45.15,45.15,0,0,0,374.45,407C366.52,410,360.74,412.72,359.44,416.61Z"/><path class="cls-44" d="M454.62,639.86a14,14,0,0,1,1.69,2c1.59,2,5.84,7.47,6.75,18.88a143.6,143.6,0,0,0,6.31,30.2s3.11,11.65-5.08,12.74l-24.86-49.44s-11.69-17.32-20.73,2c0,0,5.75-20.9,22.14-20.5C449.92,635.74,452.86,638.35,454.62,639.86Z"/><path class="cls-42" d="M419.48,663.93a12.3,12.3,0,0,1,3.5-14.62c3.94-3.07,9.71-4.17,16.45,4.92,10.52,14.19,24.86,49.44,24.86,49.44a21.07,21.07,0,0,1-2.47.61,25.18,25.18,0,0,1-26-11.66C429.79,682.86,422.87,671.76,419.48,663.93Z"/><line class="cls-43" x1="420.99" y1="651.3" x2="436.96" y2="651.3"/><line class="cls-43" x1="418.7" y1="656.24" x2="440.85" y2="656.24"/><line class="cls-43" x1="418.7" y1="661.45" x2="444.32" y2="661.45"/><line class="cls-43" x1="420.44" y1="666.05" x2="446.73" y2="666.05"/><line class="cls-43" x1="422.69" y1="670.49" x2="449.09" y2="670.49"/><line class="cls-43" x1="425.12" y1="674.89" x2="451.32" y2="674.89"/><line class="cls-43" x1="427.52" y1="679.01" x2="453.33" y2="679.01"/><line class="cls-43" x1="430.03" y1="683.21" x2="455.31" y2="683.21"/><line class="cls-43" x1="432.63" y1="687.47" x2="457.27" y2="687.47"/><line class="cls-43" x1="435.24" y1="691.71" x2="459.17" y2="691.71"/><line class="cls-43" x1="438.22" y1="695.92" x2="461.01" y2="695.92"/><line class="cls-43" x1="442.67" y1="699.98" x2="462.75" y2="699.98"/><line class="cls-43" x1="450.17" y1="703.67" x2="464.29" y2="703.67"/><path class="cls-62" d="M364.93,308.25s-22,10.55-35.61,9.24l2.78-9.24Z"/><path class="cls-63" d="M349.6,281.42s3.88,1.07,4.59,7.06"/><line class="cls-47" x1="724.82" y1="376.73" x2="705.15" y2="398.61"/><path class="cls-47" d="M672.79,374s18.84,18.93,37.12,19.28"/><line class="cls-47" x1="672.06" y1="380.96" x2="668.17" y2="412.03"/><path class="cls-64" d="M655.26,316.19a8.06,8.06,0,0,0,2.91.32,10.3,10.3,0,0,0,2.72-.61,25.07,25.07,0,0,0,2.68-1.12c.43-.25.9-.45,1.36-.68a11.39,11.39,0,0,1,1.45-.67l.06.07-1.18,1c-.41.32-.84.62-1.26.92a13.09,13.09,0,0,1-2.79,1.42,7.89,7.89,0,0,1-3.09.45,5.5,5.5,0,0,1-2.92-1Z"/><path class="cls-65" d="M666,293.34a3.89,3.89,0,0,1-1.4,1.36,2.26,2.26,0,0,1-1.08.29,2.1,2.1,0,0,1-1.14-.38,4.17,4.17,0,0,1-1.31-1.71,9.75,9.75,0,0,1-.63-1.89,22.38,22.38,0,0,1-.51-3.8c-.05-1.26-.05-2.51,0-3.76v-.06a13.67,13.67,0,0,0,.06-1.82,6.22,6.22,0,0,0-.28-1.75,2.65,2.65,0,0,0-.95-1.34,3.27,3.27,0,0,0-1.78-.36l0-.1a3.27,3.27,0,0,1,2,.09,2.81,2.81,0,0,1,1.35,1.45,8.41,8.41,0,0,1,.55,3.91h0a40.44,40.44,0,0,0,.45,7.38,9.85,9.85,0,0,0,.48,1.77,3.58,3.58,0,0,0,1,1.51,1.6,1.6,0,0,0,1.68.22,4.1,4.1,0,0,0,1.47-1.07Z"/><path class="cls-66" d="M662.32,293.68a6.31,6.31,0,0,1-1.41,1.65,3.73,3.73,0,0,1-2.13,1,3,3,0,0,1-2.38-1,6.37,6.37,0,0,1-1.26-2,16.44,16.44,0,0,1-1-4.28,34.21,34.21,0,0,1-.23-4.28v-.15a14.79,14.79,0,0,0,.2-1.8,6.05,6.05,0,0,0-.17-1.77,2.38,2.38,0,0,0-.84-1.38,3.15,3.15,0,0,0-1.77-.35l0-.1a3.14,3.14,0,0,1,2,.1,2.62,2.62,0,0,1,1.23,1.52,8.77,8.77,0,0,1,.28,3.91h0c.07,1.4.15,2.8.33,4.19A18.75,18.75,0,0,0,656,293a5.89,5.89,0,0,0,1,1.8,2.28,2.28,0,0,0,1.78.86,3.64,3.64,0,0,0,1.92-.69,7.93,7.93,0,0,0,1.56-1.39Z"/><path class="cls-67" d="M657.08,294.79a6.17,6.17,0,0,1-2.06,2.26,3.16,3.16,0,0,1-1.67.46,2.85,2.85,0,0,1-1.71-.7,6.53,6.53,0,0,1-1.77-2.74,17.61,17.61,0,0,1-.78-2.95,27.31,27.31,0,0,1-.35-3c0-.49,0-1-.07-1.49l0-.75c0-.24,0-.44,0-.68a5.78,5.78,0,0,0-.56-2.56,2.55,2.55,0,0,0-2.08-1.49v-.1a2.82,2.82,0,0,1,2.52,1.3,6.2,6.2,0,0,1,.89,2.78,50.81,50.81,0,0,0,.63,5.78,17.86,17.86,0,0,0,.69,2.82,6.14,6.14,0,0,0,1.41,2.47,2.18,2.18,0,0,0,1.25.61,2.67,2.67,0,0,0,1.38-.27,6.71,6.71,0,0,0,2.2-1.84Z"/><path class="cls-68" d="M669.84,299.79a19.66,19.66,0,0,1-4.4,1.67c-.77.21-1.54.37-2.32.52a23.65,23.65,0,0,1-2.38.22,14.73,14.73,0,0,1-4.84-.46,10.31,10.31,0,0,1-4.36-2.4l.18.12a8.92,8.92,0,0,0-2.86-1,14.48,14.48,0,0,0-3.18-.31l0-.1a12.21,12.21,0,0,1,3.25-.13,9.91,9.91,0,0,1,3.15.82h0a10,10,0,0,0,4.06,2.06,17.19,17.19,0,0,0,4.58.48,26.38,26.38,0,0,0,4.6-.47,34.66,34.66,0,0,0,4.49-1.12Z"/><path class="cls-69" d="M572.55,421a20.8,20.8,0,0,1-6.42,3.72,14,14,0,0,1-7.54.61,12.22,12.22,0,0,1-6.57-3.94,23.49,23.49,0,0,1-4-6.44l.81.53c-1,0-2,0-3.06,0l-3.06,0,.76-.47a11.61,11.61,0,0,1-4.75,4.47,10.57,10.57,0,0,1-6.34,1,12,12,0,0,1-1.59-.31,4.08,4.08,0,0,1-1.54-.81,3.36,3.36,0,0,1-1.17-3.17,6.91,6.91,0,0,1,1.3-2.9,12.2,12.2,0,0,1,2.1-2.26l.07.07a13.45,13.45,0,0,0-1.91,2.35,6.53,6.53,0,0,0-1.09,2.79,3,3,0,0,0,1.07,2.65,5.28,5.28,0,0,0,2.83.88,10.34,10.34,0,0,0,5.87-1.05,10.66,10.66,0,0,0,4.3-4.12l0-.05h6.24l0,.06a22.43,22.43,0,0,0,3.81,6.22,12,12,0,0,0,6.09,3.83,13.64,13.64,0,0,0,7.22-.38,21.45,21.45,0,0,0,6.49-3.32Z"/><path class="cls-70" d="M547.54,414.62a10.6,10.6,0,0,1-1.12,3.41,9.4,9.4,0,0,1-2.4,2.84,7.56,7.56,0,0,1-3.53,1.4c-1.19.18-2.38.32-3.56.39-2.37,0-4.71,0-7-.13-1.17-.11-2.34-.21-3.5-.35s-2.33-.32-3.48-.59v-.1a135.88,135.88,0,0,0,14,.17,33.6,33.6,0,0,0,3.47-.3,7.45,7.45,0,0,0,3.24-1.14,10.42,10.42,0,0,0,3.85-5.62Z"/><path class="cls-71" d="M542.42,421a9.94,9.94,0,0,1,.42,3.77,7.37,7.37,0,0,1-1.42,3.71,6.77,6.77,0,0,1-3.39,2.25l-1,.27c-.33.08-.66.09-1,.14a18.84,18.84,0,0,1-1.9.17c-2.46,0-4.92.14-7.39.1l-3.7-.09c-1.23-.09-2.47-.12-3.71-.26v-.1l14.77-.65c.61,0,1.23,0,1.83-.12.3,0,.61,0,.91-.11l.89-.22a6.55,6.55,0,0,0,3.06-1.88c1.61-1.89,1.87-4.58,1.49-7Z"/><path class="cls-72" d="M537.61,430a10.28,10.28,0,0,1,1.4,3.94,8.45,8.45,0,0,1-.43,4.34,6.15,6.15,0,0,1-1.29,1.94,5.61,5.61,0,0,1-1.94,1.23,7.8,7.8,0,0,1-2.15.42,8.59,8.59,0,0,1-2.09-.23v-.1a9.29,9.29,0,0,0,3.9-.79,5.31,5.31,0,0,0,2.64-2.84,9.22,9.22,0,0,0,.57-3.93,16.07,16.07,0,0,0-.71-3.95Z"/><path class="cls-73" d="M424.24,618.3a73.71,73.71,0,0,0,32.34.06S443.63,613.31,424.24,618.3Z"/><path class="cls-74" d="M338,619.78s13.58,4.57,32.23-.1A85.36,85.36,0,0,0,338,619.78Z"/><path class="cls-75" d="M372.27,278.37a5.85,5.85,0,0,1,2.09-4.54c2.92-2.41,6.62-7.69-3.32-15.16-13.61-11.89-38.24-17.07-58.85,4.44-15.63,16.31-8.74,33-8,34.68.06.14.12.28.17.42.91,2.46,7,20.34-4,32.68-11.11,12.54-1.11,35.55-1.11,35.55s5.88,15.39-2.62,29.63c-6.11,10.23-5.37,23.23,5,29.84,9.26,5.88,22.55,5.86,33.68-8,6.83-8.53,11.24-19.13,9.22-29.58-1.66-8.64-2.3-12.84,6.87-30,8-14.91,5.42-26.92,3.75-33.37a47.54,47.54,0,0,1-1.28-18.3c1.12-8.29,3.67-17.32,9.54-15.69C371.27,293.11,372.27,283.51,372.27,278.37Z"/><path class="cls-76" d="M373.89,274.37A70.59,70.59,0,0,0,376,285c2,6.09-2.73,28.45-22.33,24.44,0,0-.61-6.84-2-17.55-3.18-.18-9.53.7-9-9,1.24-3.17,2.47-6.35,13.41-4.05A20.31,20.31,0,0,0,373.89,274.37Z"/><path class="cls-77" d="M354.19,256.19a109.57,109.57,0,0,0-1.5,14.45c-.22,4.85-.23,9.7-.12,14.54s.37,9.68.8,14.51a135.92,135.92,0,0,0,1.95,14.37c.93,4.73,2.54,9.33,3.58,14.09a51.84,51.84,0,0,1,1.53,14.54,29.92,29.92,0,0,1-1.29,7.25,34.33,34.33,0,0,1-3,6.7c-2.43,4.24-5.37,8.12-7.5,12.42a23.64,23.64,0,0,0-2.26,6.73,20.75,20.75,0,0,0,.16,7.07c.83,4.7,2.63,9.35,2.73,14.33a38.85,38.85,0,0,1-2.49,14.41,82.2,82.2,0,0,1-6.28,13.19c-2.41,4.21-4.95,8.34-7.21,12.62a60.38,60.38,0,0,0-5.4,13.39,33.68,33.68,0,0,0-.51,14.34,21.92,21.92,0,0,0,6.82,12.51,22,22,0,0,1-7.08-12.45,33.87,33.87,0,0,1,.26-14.52,61.71,61.71,0,0,1,5.32-13.58c2.23-4.32,4.74-8.49,7.09-12.71a84.72,84.72,0,0,0,6.16-13.08,38,38,0,0,0,2.39-14.09c-.11-4.79-1.89-9.36-2.76-14.19a21.62,21.62,0,0,1-.19-7.4,25.18,25.18,0,0,1,2.38-7c2.2-4.4,5.17-8.28,7.57-12.45a33.51,33.51,0,0,0,3-6.51,29,29,0,0,0,1.28-7,52.89,52.89,0,0,0-1.43-14.31c-1-4.73-2.54-9.33-3.45-14.13a138.39,138.39,0,0,1-1.85-14.46c-.41-4.84-.59-9.69-.64-14.54s0-9.71.31-14.56A109.36,109.36,0,0,1,354.19,256.19Z"/><path class="cls-78" d="M357,270.71a31.28,31.28,0,0,0-4.75,12.61,64.59,64.59,0,0,0-.33,13.55c.26,4.52.69,9,.87,13.58s.68,9,1,13.57a95.64,95.64,0,0,1,.19,13.65A43.17,43.17,0,0,1,351,351.05c-1.74,4.26-4.26,8.09-6.45,12a48.8,48.8,0,0,0-2.91,6.06,25,25,0,0,0-1.54,6.47c-.87,8.95,2.95,17.77,2.17,27a38,38,0,0,1-3.83,13.14,134.41,134.41,0,0,1-6.69,11.9,100,100,0,0,0-6.4,11.94,43.66,43.66,0,0,0-3.32,13.06,44.57,44.57,0,0,0,5.49,26.15,44.79,44.79,0,0,1-6-26.2,43.65,43.65,0,0,1,3.22-13.25,99.89,99.89,0,0,1,6.33-12.09c2.29-3.91,4.64-7.79,6.56-11.87a37.41,37.41,0,0,0,3.71-12.85c.36-4.47-.39-8.95-1.15-13.41s-1.55-9-1.11-13.65a25.43,25.43,0,0,1,1.61-6.73,48.89,48.89,0,0,1,3-6.18c2.23-4,4.73-7.76,6.45-11.91a42.18,42.18,0,0,0,2.92-13.09,102,102,0,0,0-.1-13.54c-.28-4.52-.68-9.05-.86-13.59s-.52-9.05-.73-13.59a64.59,64.59,0,0,1,.58-13.61A31.42,31.42,0,0,1,357,270.71Z"/><path class="cls-79" d="M322.91,254.32a22.58,22.58,0,0,0-9.1,6.83,34,34,0,0,0-5.42,10.06,52.78,52.78,0,0,0-2.54,11.16c-.43,3.81-.53,7.65-.6,11.49-.12,7.67-.14,15.47-2,23a45.36,45.36,0,0,1-1.81,5.54c-.73,1.8-1.57,3.54-2.43,5.27a90.23,90.23,0,0,0-4.77,10.42,25.56,25.56,0,0,0-1.29,5.5,26,26,0,0,0,0,5.65,80.39,80.39,0,0,0,2.49,11.19,47,47,0,0,1,1.92,11.45,40.06,40.06,0,0,1-1.79,11.48c-2.12,7.42-5.4,14.49-6.21,22.14a24.3,24.3,0,0,0,1.23,11.28,16.28,16.28,0,0,0,7.11,8.73,16.36,16.36,0,0,1-7.33-8.64,24.68,24.68,0,0,1-1.5-11.42c.73-7.77,3.95-14.93,6-22.3a41.09,41.09,0,0,0,1.67-11.26,46.15,46.15,0,0,0-1.94-11.23A81,81,0,0,1,292,349.39a27.42,27.42,0,0,1-.06-5.87,25.88,25.88,0,0,1,1.32-5.71c2.6-7.37,7.33-13.67,9.07-21.14s1.89-15.15,2.13-22.83c.12-3.85.27-7.7.74-11.54A53,53,0,0,1,307.94,271a34.2,34.2,0,0,1,5.69-10A22.68,22.68,0,0,1,322.91,254.32Z"/><circle class="cls-80" cx="314.15" cy="256.16" r="9.18"/><path class="cls-81" d="M731.88,287.86s-5.07,22.24-31.6,15.39c0,0-18.73-5.69,0-44.7l23-2.34s-4.87,17.94,13.56,15.21,10.58,14.38,6.15,16.44A13.79,13.79,0,0,1,731.88,287.86Z"/><path class="cls-82" d="M748.28,279.4s14.87-14.27,9.36-25.4a12.11,12.11,0,0,0-10.91-6.55,17.62,17.62,0,0,0-6.44,1.22s4-18.48-14.72-14.18c-6.54,1.86-5.23,12.7-5.23,12.7s-1.59-17.15-17.6-9.52a8.61,8.61,0,0,0-3.13,2.41c-2.28,2.91-2.1,6.52.55,11,0,0-11,7.79,1.32,11.32,13,3.72,21.38-2.78,21.38-2.78s-2.52,17.06,12.24,14.07S748.28,279.4,748.28,279.4Z"/><path class="cls-83" d="M695.81,630.19l9.34,19S692.77,669,672.3,668.24l-12.15-16.71S672,637,695.81,630.19Z"/><circle cx="370.09" cy="283.67" r="1.99"/><circle cx="701.13" cy="273.66" r="2.11"/><rect class="cls-84" x="443.06" y="281.14" width="22.81" height="31.36" rx="8.73"/><rect class="cls-85" x="438.05" y="294.4" width="6.11" height="6.11" rx="2.7"/><rect class="cls-86" x="464.84" y="294.37" width="6.11" height="6.11" rx="2.7"/><circle class="cls-87" cx="449.06" cy="295.93" r="1.53"/><circle class="cls-87" cx="459.14" cy="295.93" r="1.53"/><path class="cls-87" d="M454.16,297.43a1.84,1.84,0,0,1,1.22,1.74,1.74,1.74,0,0,1-.35,1.1,1.52,1.52,0,0,1-.91.61,3.15,3.15,0,0,0,.51-1.7A4.37,4.37,0,0,0,454.16,297.43Z"/><path class="cls-87" d="M450,328.78a1.85,1.85,0,0,1,1.23,1.74,1.9,1.9,0,0,1-.35,1.11,1.54,1.54,0,0,1-.92.6,3.17,3.17,0,0,0,.52-1.7A4.24,4.24,0,0,0,450,328.78Z"/><path class="cls-88" d="M458.63,303.84a6.09,6.09,0,0,1-2,1.42,6.93,6.93,0,0,1-2.47.59,5.87,5.87,0,0,1-2.52-.45,4.94,4.94,0,0,1-2-1.52,12.71,12.71,0,0,0,2.24.78,8.82,8.82,0,0,0,2.23.19A15.89,15.89,0,0,0,458.63,303.84Z"/><path class="cls-87" d="M446.21,290.91a3.18,3.18,0,0,1,1.2-.76,4.41,4.41,0,0,1,1.39-.28,3.33,3.33,0,0,1,2.61,1c-.5,0-.92,0-1.34,0s-.83,0-1.24,0C448,290.88,447.18,291,446.21,290.91Z"/><path class="cls-87" d="M457.05,290.91a3.11,3.11,0,0,1,1.2-.76,4.35,4.35,0,0,1,1.39-.28,3.3,3.3,0,0,1,2.6,1c-.5,0-.91,0-1.34,0s-.82,0-1.24,0C458.83,290.88,458,291,457.05,290.91Z"/><path class="cls-87" d="M443.06,295.08s-4.79-3.15-3-10.48c1.37-5.5,6.19-6.76,8.5-7,1.27-.16,2.53-.33,3.78-.58l15.21-3s4.8,10.75-1.76,21.07l-.71-8s-11,2.34-16.77-4.08C448.35,283,443.77,283.61,443.06,295.08Z"/><polygon class="cls-89" points="457.05 312.44 457.05 317.79 451.41 317.79 451.41 312.37 457.05 312.44"/><path class="cls-48" d="M462.47,317.83l-25.12,0s-9.16-.72-8.56,8.49.4,8.41.4,8.41h52.14s-.28.82.33-8.4-8.56-8.49-8.56-8.49H448"/><path class="cls-42" d="M434.59,318l11.67,15.28,7.56-8.79,8,8.79,12.47-15.46a33.49,33.49,0,0,0-3.43,0l-33.21,0A11.83,11.83,0,0,0,434.59,318Z"/><path class="cls-22" d="M443,317.79s9.58,14.84,22.81,0Z"/><rect class="cls-90" x="470.02" y="341.21" width="41.51" height="36.73"/><rect class="cls-91" x="567.96" y="341.21" width="41.51" height="36.73"/><rect class="cls-92" x="421.06" y="341.21" width="41.51" height="36.73"/><path class="cls-93" d="M487.64,347.53c-5.05.42-7.7,4.7-8.14,12.18a14.26,14.26,0,0,1-.3,2.15c-.91,4.26-.56,7.52,2.26,8.85l-.79-1.42a5.1,5.1,0,0,0,3.91,1.92l-.73-1.58c.76,1,2.1,1.28,4,1.42h5.85a6.86,6.86,0,0,0,2.31-.47l-.31.89c.87,0,1.42-.55,2-1.32a2.55,2.55,0,0,1-.2,1.32c5.78-1.67,5.67-5.12,4.74-10a14.49,14.49,0,0,1-.26-2.94C502.11,349.21,496.85,344.5,487.64,347.53Z"/><path class="cls-21" d="M499.23,375.77a6.71,6.71,0,0,0-2.84-2.26c-1.63-.7-3.55-1.37-4-3.77h-3.6c-.44,2.4-2.36,3.07-4,3.77a6.77,6.77,0,0,0-2.84,2.26,5.7,5.7,0,0,0-.93,2.08h19.14A5.9,5.9,0,0,0,499.23,375.77Z"/><path class="cls-94" d="M486,373a5,5,0,0,0,1.82-1.27h5.53a5.45,5.45,0,0,0,1.84,1.32,6.86,6.86,0,0,1,4.95,4.82H481C481.91,374.72,484.13,373.79,486,373Z"/><g class="cls-26"><path class="cls-27" d="M488.78,369.43l3.67,0,.07,1.06c-.58.85-3.41.81-3.84,0Z"/></g><path class="cls-28" d="M500.25,377.91H481v-.08a6,6,0,0,1,1-2.09,6.79,6.79,0,0,1,2.87-2.29l.31-.13c1.52-.64,3.24-1.37,3.64-3.59v-.05h3.71v.05c.41,2.22,2.13,2.95,3.65,3.59l.31.13a6.76,6.76,0,0,1,2.86,2.29h0a5.79,5.79,0,0,1,1,2.09Zm-19.14-.13h19a5.77,5.77,0,0,0-.91-2,6.64,6.64,0,0,0-2.81-2.24l-.31-.13c-1.54-.66-3.28-1.39-3.71-3.63h-3.5c-.44,2.24-2.18,3-3.71,3.63l-.31.13a6.67,6.67,0,0,0-2.82,2.24A5.74,5.74,0,0,0,481.11,377.78Z"/><path class="cls-21" d="M482.68,366.47c-1.65,0-2.7-2.19-2.19-3.6a1.36,1.36,0,0,1,.71-.78,1.53,1.53,0,0,1,1.48.3Z"/><path class="cls-28" d="M482.74,366.54h-.06a2.18,2.18,0,0,1-1.78-1,3.06,3.06,0,0,1-.47-2.66,1.43,1.43,0,0,1,.74-.82,1.64,1.64,0,0,1,1.54.3l0,0Zm-1.09-4.48a1.14,1.14,0,0,0-.43.09,1.29,1.29,0,0,0-.67.74,3,3,0,0,0,.45,2.55,2.1,2.1,0,0,0,1.61,1v-4A1.77,1.77,0,0,0,481.65,362.06Z"/><path class="cls-29" d="M482.61,365.69c-1.83-.08-2.21-3.38,0-2.58"/><path class="cls-28" d="M482.69,363.16a3.15,3.15,0,0,0-.61-.13,1.62,1.62,0,0,0-.31,0,1,1,0,0,0-.29.1.66.66,0,0,0-.22.22.74.74,0,0,0-.12.29,1.63,1.63,0,0,0,0,.31,1.72,1.72,0,0,0,0,.32,1.72,1.72,0,0,1,0-.64.84.84,0,0,1,.11-.3.72.72,0,0,1,.23-.23.79.79,0,0,1,.3-.12,1.16,1.16,0,0,1,.32,0,2.78,2.78,0,0,1,.64.12Z"/><path class="cls-21" d="M498.75,366.37c1.64,0,2.69-2.19,2.18-3.6a1.29,1.29,0,0,0-.7-.78,1.53,1.53,0,0,0-1.48.29Z"/><path class="cls-28" d="M498.75,366.43h-.07v-4.18l0,0a1.66,1.66,0,0,1,1.55-.3,1.37,1.37,0,0,1,.73.81,3.07,3.07,0,0,1-.46,2.67A2.18,2.18,0,0,1,498.75,366.43Zm.06-4.11v4a2.09,2.09,0,0,0,1.62-1,2.89,2.89,0,0,0,.44-2.54,1.25,1.25,0,0,0-.66-.74A1.41,1.41,0,0,0,498.81,362.32Z"/><path class="cls-29" d="M498.79,363c2.23-.79,1.86,2.51,0,2.59"/><path class="cls-28" d="M498.71,363a2.68,2.68,0,0,1,.63-.11,1.83,1.83,0,0,1,.33,0,1.14,1.14,0,0,1,.3.13.72.72,0,0,1,.23.23,1.08,1.08,0,0,1,.11.3,2,2,0,0,1,0,.64c0-.11,0-.21,0-.32a1.73,1.73,0,0,0,0-.32.88.88,0,0,0-.12-.28.66.66,0,0,0-.22-.22.77.77,0,0,0-.29-.1,1.1,1.1,0,0,0-.31,0,2.63,2.63,0,0,0-.62.13Z"/><path class="cls-21" d="M499.09,353.07H482.31c-2.28,10.37-.64,17.19,8.27,17.4h.23C499.73,370.26,501.36,363.44,499.09,353.07Z"/><path class="cls-28" d="M490.58,370.53a12,12,0,0,1-4.39-.84,7.27,7.27,0,0,1-2.91-2.19,10.43,10.43,0,0,1-1.93-6,32.13,32.13,0,0,1,.9-8.49V353h16.88v.05a32.5,32.5,0,0,1,.89,8.49,10.51,10.51,0,0,1-1.92,6,7.23,7.23,0,0,1-2.92,2.19,12,12,0,0,1-4.39.84Zm-8.22-17.4a31.81,31.81,0,0,0-.88,8.4,10.34,10.34,0,0,0,1.9,5.89c1.49,1.9,3.92,2.91,7.2,3h.23c3.29-.08,5.71-1.09,7.21-3a10.34,10.34,0,0,0,1.9-5.89,31.87,31.87,0,0,0-.89-8.4Z"/><path class="cls-30" d="M488.1,361.9c0,.63-.33,1.14-.72,1.14s-.72-.51-.72-1.14.32-1.15.72-1.15S488.1,361.26,488.1,361.9Z"/><path class="cls-22" d="M487.77,361.44a.33.33,0,1,1-.32-.4A.37.37,0,0,1,487.77,361.44Z"/><path class="cls-30" d="M486.79,359.83a.16.16,0,0,1,.1,0c.41,0,.84,0,.84-.29,0-.58-1.51-.38-1.51.18C486.26,359.93,486.44,359.91,486.79,359.83Z"/><path class="cls-30" d="M486.58,360.58c.07.13.06.28,0,.32s-.21,0-.28-.17-.06-.28,0-.32S486.51,360.44,486.58,360.58Z"/><path class="cls-30" d="M486,361.9c.16,0,.27-.1.26-.19s-.13-.16-.29-.15-.26.1-.26.2S485.89,361.91,486,361.9Z"/><path class="cls-30" d="M486.15,361c.15,0,.24.16.21.25s-.17.12-.31.07-.24-.15-.21-.24S486,361,486.15,361Z"/><path class="cls-30" d="M493.05,361.9c0,.63.33,1.14.72,1.14s.72-.51.72-1.14-.32-1.15-.72-1.15S493.05,361.26,493.05,361.9Z"/><path class="cls-22" d="M493.38,361.44a.33.33,0,1,0,.32-.4A.37.37,0,0,0,493.38,361.44Z"/><path class="cls-30" d="M494.36,359.83a.14.14,0,0,0-.09,0c-.42,0-.85,0-.85-.29,0-.58,1.51-.38,1.51.18C494.89,359.93,494.71,359.91,494.36,359.83Z"/><path class="cls-30" d="M494.57,360.58c-.07.13-.06.28,0,.32s.21,0,.28-.17.06-.28,0-.32S494.64,360.44,494.57,360.58Z"/><path class="cls-30" d="M495.11,361.9c-.15,0-.27-.1-.26-.19s.13-.16.29-.15.27.1.26.2S495.26,361.91,495.11,361.9Z"/><path class="cls-30" d="M495,361c-.15,0-.24.16-.21.25s.17.12.31.07.24-.15.21-.24S495.15,361,495,361Z"/><polygon class="cls-22" points="493.36 371.71 487.84 371.71 488.23 371.23 493 371.27 493.36 371.71"/><path class="cls-25" d="M493.45,371.76h-5.7l.46-.58,4.81.05Zm-5.52-.09h5.34l-.29-.35-4.73-.05Z"/><path class="cls-93" d="M486.42,353.18a15.18,15.18,0,0,0-4.74,9.53.41.41,0,0,1-.41.37h0l-1.39-3.55,2-7.45,9.26-2.84,9,3.2,1.42,7.18-1.38,3.46h0a.45.45,0,0,1-.44-.37c-.47-2.4-3.24-5.06-6.2-6.77a11.7,11.7,0,0,0,1.24,2.86c-2.59-.33-4-1.59-5.4-4l.42,2.61C487.35,356.06,486.62,355.41,486.42,353.18Z"/><path class="cls-21" d="M449.81,375.77a6.71,6.71,0,0,0-2.84-2.26c-1.63-.7-3.55-1.37-4-3.77h-3.6c-.44,2.4-2.36,3.07-4,3.77a6.77,6.77,0,0,0-2.84,2.26,5.7,5.7,0,0,0-.93,2.08h19.14A5.9,5.9,0,0,0,449.81,375.77Z"/><path class="cls-95" d="M436.63,373a7.53,7.53,0,0,0,9.17,0c2.22.67,4.58,2.73,4.95,4.82H431.56A7.25,7.25,0,0,1,436.63,373Z"/><g class="cls-26"><path class="cls-27" d="M439.39,369.55l3.67,0,.06,1.06c-.57.84-3.4.81-3.83,0Z"/></g><path class="cls-96" d="M431.82,363.81a31.89,31.89,0,0,1-.67-6,1.19,1.19,0,0,0-.25.53c-1.23-3.21.55-8.21,3.63-9.75a2.71,2.71,0,0,1-.1-2.22,4.31,4.31,0,0,0,.44,1.27,3.48,3.48,0,0,1,.88-2.17,10.2,10.2,0,0,0-.24,2.54c1-1.78,2.2-2.83,3.8-2.35,3.27,1.51,5.87,2.06,8.35.08a3.68,3.68,0,0,1-.73,1.81,4.32,4.32,0,0,0,1.93-.89l-.54,1.57a4.87,4.87,0,0,0,3.23-1.6,3.63,3.63,0,0,1-2.17,3.13,11.64,11.64,0,0,1,2.48,1.47,1.46,1.46,0,0,1-1.45.13,4.74,4.74,0,0,1,1.45,5.06,3,3,0,0,0-.57-1.06,19.71,19.71,0,0,1-.18,6.56l-3.31,6H435.13Z"/><path class="cls-25" d="M447.81,368H435.13s0,0-.05,0l-3.3-4.16s0,0,0,0a30.86,30.86,0,0,1-.67-5.8,2,2,0,0,0-.12.32l0,0s0,0,0,0a.07.07,0,0,1-.07,0,8.08,8.08,0,0,1,.21-5.54,7.7,7.7,0,0,1,3.41-4.26,2.68,2.68,0,0,1-.08-2.21.06.06,0,0,1,.06,0,.06.06,0,0,1,.06,0,6.42,6.42,0,0,0,.32,1.06,3.59,3.59,0,0,1,.88-2,.08.08,0,0,1,.08,0,.06.06,0,0,1,0,.07,11,11,0,0,0-.24,2.31,5.69,5.69,0,0,1,1.59-1.85,2.44,2.44,0,0,1,2.17-.34h0c3.29,1.51,5.82,2.05,8.28.08h.07a.06.06,0,0,1,0,.06,3.78,3.78,0,0,1-.66,1.72,4.83,4.83,0,0,0,1.76-.87.08.08,0,0,1,.08,0,.06.06,0,0,1,0,.07l-.52,1.49a4.8,4.8,0,0,0,3.1-1.59s.05,0,.07,0a0,0,0,0,1,0,.06,3.67,3.67,0,0,1-2.07,3.12,11.14,11.14,0,0,1,2.36,1.42.05.05,0,0,1,0,0,.13.13,0,0,1,0,.05,1.37,1.37,0,0,1-1.27.21,5.54,5.54,0,0,1,1.35,2.19,4.65,4.65,0,0,1-.06,2.76.06.06,0,0,1-.12,0,3.56,3.56,0,0,0-.41-.87,19.84,19.84,0,0,1-.21,6.36s0,0,0,0l-3.31,6A.05.05,0,0,1,447.81,368Zm-12.65-.12h12.61l3.28-6a19.37,19.37,0,0,0,.18-6.52.07.07,0,0,1,0-.07.06.06,0,0,1,.07,0,2.83,2.83,0,0,1,.52.91,4.67,4.67,0,0,0-1.49-4.82.08.08,0,0,1,0-.08.08.08,0,0,1,.08,0,1.38,1.38,0,0,0,1.32-.08,12.89,12.89,0,0,0-2.4-1.41.05.05,0,0,1,0-.06s0-.05,0-.05a3.46,3.46,0,0,0,2.1-2.9,4.72,4.72,0,0,1-3.14,1.5l-.05,0a.13.13,0,0,1,0-.06l.49-1.39a4.3,4.3,0,0,1-1.82.8.07.07,0,0,1-.06,0,.09.09,0,0,1,0-.07,3.53,3.53,0,0,0,.7-1.62,5.51,5.51,0,0,1-3.8,1.18,12.59,12.59,0,0,1-4.49-1.35c-1.4-.42-2.58.32-3.72,2.32a.05.05,0,0,1-.07,0s0,0,0-.05a9.83,9.83,0,0,1,.18-2.31,3.24,3.24,0,0,0-.7,1.93.06.06,0,0,1-.05.06.06.06,0,0,1-.07,0,3.47,3.47,0,0,1-.4-1.09,2.72,2.72,0,0,0,.18,2,.07.07,0,0,1,0,.08,7.51,7.51,0,0,0-3.41,4.21,8.22,8.22,0,0,0-.26,5.28.82.82,0,0,1,.21-.38.09.09,0,0,1,.07,0,.07.07,0,0,1,0,.06,30.43,30.43,0,0,0,.67,5.94Z"/><path class="cls-25" d="M450.83,377.91h-19.3v-.08a6,6,0,0,1,.95-2.09,6.79,6.79,0,0,1,2.87-2.29l.31-.13c1.52-.64,3.24-1.37,3.64-3.59v-.05H443v.05c.41,2.22,2.13,2.95,3.65,3.59l.31.13a6.76,6.76,0,0,1,2.86,2.29,5.79,5.79,0,0,1,.95,2.09Zm-19.14-.13h19a5.77,5.77,0,0,0-.91-2,6.64,6.64,0,0,0-2.81-2.24l-.31-.13c-1.54-.65-3.28-1.39-3.71-3.63h-3.5c-.44,2.24-2.18,3-3.71,3.63l-.31.13a6.67,6.67,0,0,0-2.82,2.24A5.74,5.74,0,0,0,431.69,377.78Z"/><path class="cls-21" d="M433.26,366.47c-1.65,0-2.7-2.19-2.19-3.6a1.36,1.36,0,0,1,.71-.78,1.53,1.53,0,0,1,1.48.3Z"/><path class="cls-28" d="M433.32,366.54h-.06a2.18,2.18,0,0,1-1.78-1,3.06,3.06,0,0,1-.47-2.66,1.43,1.43,0,0,1,.74-.82,1.64,1.64,0,0,1,1.54.3l0,0Zm-1.09-4.48a1.14,1.14,0,0,0-.43.09,1.29,1.29,0,0,0-.67.74,3,3,0,0,0,.45,2.55,2.1,2.1,0,0,0,1.61,1v-4A1.74,1.74,0,0,0,432.23,362.06Z"/><path class="cls-29" d="M433.19,365.69c-1.83-.08-2.21-3.38,0-2.58"/><path class="cls-28" d="M433.27,363.16a3.15,3.15,0,0,0-.61-.13,1.62,1.62,0,0,0-.31,0,1,1,0,0,0-.29.1.66.66,0,0,0-.22.22.81.81,0,0,0-.12.29,1.63,1.63,0,0,0,0,.31,1.67,1.67,0,0,0,0,.32,1.72,1.72,0,0,1,0-.64.84.84,0,0,1,.11-.3.72.72,0,0,1,.23-.23.79.79,0,0,1,.3-.12l.32,0a2.78,2.78,0,0,1,.64.12Z"/><path class="cls-21" d="M449.33,366.37c1.64,0,2.69-2.19,2.18-3.6a1.29,1.29,0,0,0-.7-.78,1.53,1.53,0,0,0-1.48.29Z"/><path class="cls-28" d="M449.33,366.44h-.07v-4.19l0,0a1.66,1.66,0,0,1,1.55-.3,1.38,1.38,0,0,1,.73.82,3.06,3.06,0,0,1-.46,2.66A2.19,2.19,0,0,1,449.33,366.44Zm.06-4.12v4a2.09,2.09,0,0,0,1.62-1,2.89,2.89,0,0,0,.44-2.54,1.25,1.25,0,0,0-.66-.74A1.41,1.41,0,0,0,449.39,362.32Z"/><path class="cls-29" d="M449.37,363c2.23-.79,1.86,2.51,0,2.59"/><path class="cls-28" d="M449.29,363a2.68,2.68,0,0,1,.63-.11,1.23,1.23,0,0,1,.33,0,.86.86,0,0,1,.3.12.72.72,0,0,1,.23.23,1.08,1.08,0,0,1,.11.3,2,2,0,0,1,0,.64c0-.11,0-.21,0-.32a1.55,1.55,0,0,0,0-.31.84.84,0,0,0-.12-.29.66.66,0,0,0-.22-.22.77.77,0,0,0-.29-.1,1.08,1.08,0,0,0-.31,0,2.63,2.63,0,0,0-.62.13Z"/><path class="cls-21" d="M449.67,353.07H432.89c-2.28,10.37-.64,17.19,8.27,17.4h.23C450.31,370.26,451.94,363.44,449.67,353.07Z"/><path class="cls-28" d="M441.16,370.53a12,12,0,0,1-4.39-.84,7.27,7.27,0,0,1-2.91-2.19,10.43,10.43,0,0,1-1.93-6,32.13,32.13,0,0,1,.9-8.49V353h16.88v.05a32.5,32.5,0,0,1,.89,8.49,10.51,10.51,0,0,1-1.92,6,7.23,7.23,0,0,1-2.92,2.19,12,12,0,0,1-4.39.84Zm-8.22-17.4a31.81,31.81,0,0,0-.88,8.4,10.34,10.34,0,0,0,1.9,5.89c1.49,1.9,3.92,2.91,7.2,3h.23c3.29-.08,5.71-1.09,7.21-3a10.34,10.34,0,0,0,1.9-5.89,32.24,32.24,0,0,0-.88-8.4Z"/><path class="cls-30" d="M438.79,361.85c0,.63-.32,1.14-.71,1.14s-.71-.51-.71-1.14.32-1.14.71-1.14S438.79,361.22,438.79,361.85Z"/><path class="cls-22" d="M438.53,361.36a.36.36,0,1,1-.7,0,.36.36,0,1,1,.7,0Z"/><path class="cls-30" d="M445.19,361.85c0,.63-.32,1.14-.72,1.14s-.71-.51-.71-1.14.32-1.14.71-1.14S445.19,361.22,445.19,361.85Z"/><path class="cls-22" d="M444.92,361.36a.35.35,0,1,1-.69,0,.35.35,0,1,1,.69,0Z"/><path class="cls-30" d="M438.41,359.76c.8,0,1.1-.47.54-.76a1.58,1.58,0,0,0-.85-.13c-.82.05-1.33.24-1.42.6a.31.31,0,0,0,.17.35,1.82,1.82,0,0,0,1.24,0A1.12,1.12,0,0,1,438.41,359.76Z"/><path class="cls-30" d="M444.23,359.76c-.8,0-1.1-.47-.54-.76a1.54,1.54,0,0,1,.84-.13c.83.05,1.34.24,1.43.6a.31.31,0,0,1-.17.35,1.82,1.82,0,0,1-1.24,0A1.12,1.12,0,0,0,444.23,359.76Z"/><path class="cls-96" d="M432.14,362c-.08-3.13.7-5.92,3-8a3.94,3.94,0,0,0,.67,1.8,6.92,6.92,0,0,1,.69-2c1.87,1.55,3.79,2.42,5.81,2.14l-2.44-1.59A11.94,11.94,0,0,0,447,355a5.46,5.46,0,0,1-2.49-1.85c4.72.45,5.55,4.38,5.95,8.85l.46-.06-.42-9.34-8.35-3-10.25,2.62-.15,9.73Z"/><path class="cls-25" d="M441.25,374.65a8.42,8.42,0,0,1-4.67-1.57l.07-.11a7.49,7.49,0,0,0,9.1,0l.08.11a8.15,8.15,0,0,1-4.51,1.57Z"/><path class="cls-21" d="M597.23,375.81a6.71,6.71,0,0,0-2.84-2.26c-1.63-.7-3.55-1.37-4-3.77h-3.6c-.44,2.4-2.36,3.07-4,3.77a6.77,6.77,0,0,0-2.84,2.26,5.66,5.66,0,0,0-.93,2.07h19.14A5.68,5.68,0,0,0,597.23,375.81Z"/><path class="cls-97" d="M585.61,372c2.77.51,2.84.51,6.08.05,1,1.24,5.27,1.45,6.48,5.83H579C580.25,373.49,584.3,373.45,585.61,372Z"/><path class="cls-98" d="M587.05,372.48c-1.83,1.32-4,3.13-4.57,5.4H579c1.29-4.32,5-4.42,6.31-5.65Z"/><path class="cls-98" d="M590.15,372.48c1.83,1.32,4,3.13,4.57,5.4h3.45c-1.29-4.32-5-4.42-6.31-5.65Z"/><path class="cls-22" d="M591.8,372.23a16.72,16.72,0,0,1-6.46,0l.55-.51a13.19,13.19,0,0,0,5.42,0Z"/><path class="cls-28" d="M588.56,372.59a16.84,16.84,0,0,1-3.23-.32l-.08,0,.62-.58h0a13.26,13.26,0,0,0,5.4,0h0l.56.58-.08,0A17,17,0,0,1,588.56,372.59Zm-3.13-.39a16.43,16.43,0,0,0,6.29,0l-.42-.44a13.26,13.26,0,0,1-5.4,0Z"/><path class="cls-25" d="M598.25,378H579l0-.08a5.81,5.81,0,0,1,.94-2.1,6.84,6.84,0,0,1,2.87-2.28l.31-.13c1.52-.65,3.24-1.38,3.65-3.59v0h3.7v0c.41,2.21,2.13,2.94,3.65,3.59l.31.13a6.75,6.75,0,0,1,2.86,2.28h0a5.67,5.67,0,0,1,1,2.1Zm-19.14-.13h19a5.68,5.68,0,0,0-.91-2h0a6.51,6.51,0,0,0-2.81-2.24l-.31-.13c-1.54-.66-3.28-1.4-3.71-3.64h-3.5c-.43,2.24-2.17,3-3.71,3.64l-.31.13a6.51,6.51,0,0,0-2.81,2.24A5.51,5.51,0,0,0,579.11,377.82Z"/><g class="cls-26"><path class="cls-27" d="M586.81,369.59l3.67,0,.06,1.05c-.57.85-3.4.82-3.83,0Z"/></g><path class="cls-21" d="M580.68,366.51c-1.65,0-2.7-2.19-2.18-3.6a1.29,1.29,0,0,1,.7-.78,1.56,1.56,0,0,1,1.48.29Z"/><path class="cls-28" d="M580.74,366.58h-.06a2.19,2.19,0,0,1-1.78-1,3.06,3.06,0,0,1-.46-2.66,1.38,1.38,0,0,1,.73-.82,1.64,1.64,0,0,1,1.54.3l0,0Zm-1.09-4.48a1.14,1.14,0,0,0-.43.09,1.29,1.29,0,0,0-.67.74,3,3,0,0,0,.45,2.55,2.1,2.1,0,0,0,1.62,1v-4A1.8,1.8,0,0,0,579.65,362.1Z"/><path class="cls-29" d="M580.62,365.73c-1.84-.08-2.21-3.38,0-2.58"/><path class="cls-28" d="M580.7,363.2a3.25,3.25,0,0,0-.62-.13,1.62,1.62,0,0,0-.31,0,.77.77,0,0,0-.29.1.66.66,0,0,0-.22.22.69.69,0,0,0-.12.29,1.55,1.55,0,0,0,0,.31c0,.11,0,.21,0,.32a2,2,0,0,1,0-.64,1.08,1.08,0,0,1,.11-.3.84.84,0,0,1,.23-.23.79.79,0,0,1,.3-.12,1.19,1.19,0,0,1,.32,0,2.77,2.77,0,0,1,.64.11Z"/><path class="cls-21" d="M596.75,366.41c1.65,0,2.7-2.19,2.18-3.61a1.27,1.27,0,0,0-.7-.77,1.53,1.53,0,0,0-1.48.29Z"/><path class="cls-28" d="M596.75,366.47h-.06v-4.18l0,0a1.62,1.62,0,0,1,1.55-.3,1.37,1.37,0,0,1,.73.81,3.08,3.08,0,0,1-.46,2.67A2.18,2.18,0,0,1,596.75,366.47Zm.06-4.11v4a2.12,2.12,0,0,0,1.62-1,2.9,2.9,0,0,0,.44-2.54,1.25,1.25,0,0,0-.66-.74A1.42,1.42,0,0,0,596.81,362.36Z"/><path class="cls-29" d="M596.79,363c2.23-.79,1.86,2.51,0,2.59"/><path class="cls-28" d="M596.71,363a2.32,2.32,0,0,1,.63-.11,1.22,1.22,0,0,1,.33,0,1,1,0,0,1,.3.12.76.76,0,0,1,.23.24,1,1,0,0,1,.11.3,2,2,0,0,1,0,.64c0-.11,0-.22,0-.32a1.73,1.73,0,0,0,0-.32.81.81,0,0,0-.12-.29.73.73,0,0,0-.22-.21,1,1,0,0,0-.29-.11,1.61,1.61,0,0,0-.31,0,2.21,2.21,0,0,0-.62.13Z"/><path class="cls-21" d="M597.09,353.1H580.31c-2.28,10.37-.64,17.19,8.27,17.41h.23C597.73,370.29,599.36,363.47,597.09,353.1Z"/><path class="cls-28" d="M588.58,370.57a12,12,0,0,1-4.39-.84,7.2,7.2,0,0,1-2.91-2.2,10.45,10.45,0,0,1-1.93-5.95,32.13,32.13,0,0,1,.9-8.49v0h16.88v0a32.08,32.08,0,0,1,.89,8.49,10.45,10.45,0,0,1-1.92,5.95,7.16,7.16,0,0,1-2.92,2.2,11.9,11.9,0,0,1-4.38.84Zm-8.22-17.4a32.2,32.2,0,0,0-.88,8.4,10.34,10.34,0,0,0,1.9,5.89c1.49,1.9,3.92,2.91,7.21,3h.22c3.29-.08,5.71-1.09,7.21-3a10.34,10.34,0,0,0,1.9-5.89,32.2,32.2,0,0,0-.88-8.4Z"/><path class="cls-30" d="M586.21,361.89c0,.63-.32,1.14-.71,1.14s-.71-.51-.71-1.14.32-1.14.71-1.14S586.21,361.26,586.21,361.89Z"/><path class="cls-22" d="M586,361.4a.36.36,0,1,1-.35-.43A.4.4,0,0,1,586,361.4Z"/><path class="cls-30" d="M592.61,361.89c0,.63-.32,1.14-.71,1.14s-.72-.51-.72-1.14.32-1.14.72-1.14S592.61,361.26,592.61,361.89Z"/><path class="cls-22" d="M592.34,361.4a.39.39,0,0,1-.34.43.44.44,0,0,1,0-.86A.39.39,0,0,1,592.34,361.4Z"/><path class="cls-30" d="M591.77,359.94c-.68,0-.94-.65-.47-1.05a1,1,0,0,1,.73-.17c.72.07,1.16.32,1.23.81a.53.53,0,0,1-.15.48c-.25.23-.64.14-1.06,0A.86.86,0,0,0,591.77,359.94Z"/><path class="cls-30" d="M585.76,359.94c.68,0,.94-.65.46-1.05a1,1,0,0,0-.73-.17c-.71.07-1.15.32-1.23.81a.51.51,0,0,0,.16.48c.25.23.64.14,1.06,0A.86.86,0,0,1,585.76,359.94Z"/><path class="cls-99" d="M591.32,353.69c-1.83,2.17-5.1,3.35-9,4.29a2.74,2.74,0,0,0-1.8,1.4c-.81,1.58-.67,3.59-.49,5.66-3.72-4.58-5.39-11.36.44-15.61a12.05,12.05,0,0,1,3.55-1.77c2.9-.93,6.82-1.59,8.55,1,7.64.22,9.35,8.26,5.14,15-.84-6.39-2.22-9.18-5.53-10.25A.82.82,0,0,0,591.32,353.69Z"/><path class="cls-25" d="M580.12,365.24l-.13-.16a16.37,16.37,0,0,1-2.66-4.62,10.66,10.66,0,0,1-.65-5,8.7,8.7,0,0,1,3.76-6A12.31,12.31,0,0,1,584,347.6a14.65,14.65,0,0,1,4.74-.82,4.52,4.52,0,0,1,3.87,1.83,8.24,8.24,0,0,1,4,1.06,6.67,6.67,0,0,1,2.48,2.6,9.25,9.25,0,0,1,.89,5.37,14.51,14.51,0,0,1-2.19,6.06l-.09.15,0-.17a21.54,21.54,0,0,0-1.83-7.1,6,6,0,0,0-3.66-3.1.75.75,0,0,0-.8.25h0c-2,2.37-5.68,3.51-9,4.31a2.68,2.68,0,0,0-1.76,1.36c-.83,1.61-.66,3.65-.49,5.63Zm8.39-18.34a15.15,15.15,0,0,0-4.46.82,12.34,12.34,0,0,0-3.54,1.76,8.6,8.6,0,0,0-3.71,5.94c-.38,3,.76,6.4,3.16,9.42-.16-1.94-.3-3.91.51-5.49a2.78,2.78,0,0,1,1.85-1.43c3.32-.8,7-1.93,9-4.27a.88.88,0,0,1,.93-.29c3.23,1,4.69,3.7,5.55,10.13,2.32-3.81,2.79-8.17,1.2-11.16a7.1,7.1,0,0,0-6.38-3.6h0l0,0a4.41,4.41,0,0,0-3.79-1.8Z"/><rect class="cls-100" x="500.77" y="268.65" width="111.14" height="67" rx="5"/><line class="cls-101" x1="516.59" y1="278.24" x2="594.02" y2="278.24"/><line class="cls-101" x1="516.59" y1="289.83" x2="594.02" y2="289.83"/><line class="cls-101" x1="516.59" y1="301.42" x2="594.02" y2="301.42"/><line class="cls-101" x1="516.59" y1="313" x2="594.02" y2="313"/><line class="cls-101" x1="516.59" y1="324.59" x2="594.02" y2="324.59"/><path class="cls-88" d="M442.6,366.3a1.83,1.83,0,0,1-1.39.72,1.55,1.55,0,0,1-1.4-.7,4.08,4.08,0,0,0,1.38.2A9,9,0,0,0,442.6,366.3Z"/><path class="cls-87" d="M441,362.87a1.24,1.24,0,0,1,.45.43,1.29,1.29,0,0,1,.19.63,1.16,1.16,0,0,1-.18.63,1.08,1.08,0,0,1-.49.41,1.49,1.49,0,0,0,.42-1A1.85,1.85,0,0,0,441,362.87Z"/><path class="cls-88" d="M492.24,367a1.87,1.87,0,0,1-.5.74,1.66,1.66,0,0,1-.82.46,1.24,1.24,0,0,1-1-.18,1.36,1.36,0,0,1-.53-.75,3.3,3.3,0,0,0,.71.41,1.31,1.31,0,0,0,.68,0A5.38,5.38,0,0,0,492.24,367Z"/><path class="cls-87" d="M490.61,363.53a1.08,1.08,0,0,1,.58.92,1,1,0,0,1-.16.56.92.92,0,0,1-.43.35,1.38,1.38,0,0,0,.34-.91A1.78,1.78,0,0,0,490.61,363.53Z"/><path class="cls-87" d="M540,363.15a1.08,1.08,0,0,1,.58.92,1,1,0,0,1-.15.56,1,1,0,0,1-.43.35,1.31,1.31,0,0,0,.33-.9A1.62,1.62,0,0,0,540,363.15Z"/><path class="cls-88" d="M538.28,367a14.41,14.41,0,0,0,2,.06c.64,0,1.28-.06,2-.06a3.46,3.46,0,0,1-1,.41,3.93,3.93,0,0,1-1,.15,3.55,3.55,0,0,1-1-.12A2.32,2.32,0,0,1,538.28,367Z"/><path class="cls-87" d="M588.72,363.26a1.06,1.06,0,0,1,.58.92,1.09,1.09,0,0,1-.15.56,1,1,0,0,1-.44.35,1.28,1.28,0,0,0,.34-.9A1.7,1.7,0,0,0,588.72,363.26Z"/><path class="cls-88" d="M586.73,366.58a16.24,16.24,0,0,0,2,.05c.64,0,1.28-.06,2-.05a3.76,3.76,0,0,1-.95.4,3.87,3.87,0,0,1-1,.15,3.59,3.59,0,0,1-1-.12A2.51,2.51,0,0,1,586.73,366.58Z"/><path class="cls-102" d="M410.54,545.73a17.49,17.49,0,0,1,2.14,5.73,28.61,28.61,0,0,1,.53,6.12,31.79,31.79,0,0,1-.75,6.08c-.21,1-.52,2-.79,3s-.7,1.91-1.12,2.83l-.1,0c.23-1,.49-1.95.71-2.93s.4-2,.53-3a44.42,44.42,0,0,0,.52-6,38.73,38.73,0,0,0-.31-6,24.17,24.17,0,0,0-1.45-5.8Z"/><path class="cls-103" d="M404.86,547a12.11,12.11,0,0,1,1.59,2.83,25.55,25.55,0,0,1,.95,3.12,30,30,0,0,1,.54,6.48l-.12,1.62-.21,1.61c-.06.54-.14,1.07-.25,1.6s-.22,1-.34,1.58c-.28,1-.6,2.06-.91,3.09s-.78,2-1.25,3l-.09,0,.83-3.07c.22-1,.46-2.06.65-3.1a43.19,43.19,0,0,0,.69-6.31,33.4,33.4,0,0,0-.31-6.32,19.5,19.5,0,0,0-1.86-6Z"/><path class="cls-43" d="M394.61,500.46h31.52s14.59,1.18,15,18.3,0,97.34,0,97.34"/><path class="cls-43" d="M377.9,571.91c.27,17.26.13,17-.4,49.26"/><path class="cls-104" d="M368.11,296.54s2.46,3.75,5.78,2.65"/><g class="cls-105"><path class="cls-106" d="M737.39,278a3.36,3.36,0,0,1,1.58-2,3.52,3.52,0,0,1,2.84-.29,3.66,3.66,0,0,1,2.19,2.1,3.61,3.61,0,0,1-.1,3.18,2.87,2.87,0,0,1-1.37,1.14,9.17,9.17,0,0,1-1.24.4,7.51,7.51,0,0,0-2,.82,10.06,10.06,0,0,0-3.08,3.36,6.69,6.69,0,0,1,2.13-4.6,7.1,7.1,0,0,1,2.31-1.37c.4-.16.78-.27,1-.41a.83.83,0,0,0,.46-.37,2,2,0,0,0,.05-1.48,2.27,2.27,0,0,0-1-1.34A3.27,3.27,0,0,0,737.39,278Z"/></g><path class="cls-107" d="M349.37,283.51a2,2,0,0,0-2.24-1.13,1.54,1.54,0,0,0-1.05,1.73c0,.23.41.45.87.73a4.39,4.39,0,0,1,1.22,1.1,4.28,4.28,0,0,1,.77,3,6,6,0,0,0-1.37-2.52,4.74,4.74,0,0,0-1.11-.79,6.17,6.17,0,0,1-.69-.41,1.61,1.61,0,0,1-.64-.81,2.29,2.29,0,0,1,1.86-2.82A2.15,2.15,0,0,1,349.37,283.51Z"/><path class="cls-108" d="M660.15,651.53s12-14.91,35.66-21.34C695.81,630.19,678.5,641.46,660.15,651.53Z"/><path class="cls-109" d="M706.13,627.44a70.3,70.3,0,0,0-10.32,2.75A11.67,11.67,0,0,0,706.13,627.44Z"/><path class="cls-18" d="M463.41,663c-.73-2.66.48-5.33,3.38-6a.5.5,0,0,1,.58.22,4.14,4.14,0,0,1-.11,4.27c-.95,1.24-2.11,2.12-3.56,1.56a7.5,7.5,0,0,0,7.58,5.48"/><path class="cls-18" d="M463.34,662.8a11,11,0,0,1-4.27,7.28"/><path class="cls-22" d="M557,367.22l-1.28-.49a2.87,2.87,0,0,1-1.74-3.64h0a2.85,2.85,0,0,1,3.65-1.7l1.32.48a2.88,2.88,0,0,1,1.72,3.66h0A2.86,2.86,0,0,1,557,367.22Z"/><polygon class="cls-22" points="557.02 367.22 559.73 368.18 560.65 365.65 553.96 363.2 553.05 365.69 557.02 367.22"/><rect class="cls-22" x="552.42" y="367.8" width="7.13" height="0.48" transform="matrix(0.94, 0.34, -0.34, 0.94, 159.91, -168.33)"/><rect class="cls-22" x="551.94" y="369.12" width="7.13" height="0.48" transform="translate(160.33 -168.09) rotate(20.05)"/><path class="cls-3" d="M670.6,665.92s19.64-4.07,33.31-19.25c0,0,4.65,10.38,6.32,13.79,2.68,5.46,9,17.25,9.66,22.32l-34.43,31.64a15.91,15.91,0,0,1-12.74,4.06,16.7,16.7,0,0,1-8.81-3.5,11.49,11.49,0,0,1-3.29-4,14,14,0,0,1-.78-10.17,20.25,20.25,0,0,1,5.54-9.15l13.07-12.35Z"/><path class="cls-110" d="M719.06,679.11l-44.63,39.38s5.37,1.13,11-4.07c4.68-4.3,26-22.3,33.29-28.42a4.24,4.24,0,0,0,1.16-4.92C719.66,680.52,719.38,679.86,719.06,679.11Z"/><path class="cls-111" d="M661.45,696.66A10.84,10.84,0,0,1,665.6,698a13.81,13.81,0,0,1,3.12,2.35,14.09,14.09,0,0,1,2.35,3.13,11,11,0,0,1,1.32,4.14l-.21.22c-1.91-1.73-3.72-3.58-5.58-5.37s-3.63-3.66-5.36-5.57Z"/><path class="cls-112" d="M665.84,691.14a11.7,11.7,0,0,1,4.34,1.44,15.28,15.28,0,0,1,3.33,2.48,15.6,15.6,0,0,1,2.57,3.27,11.9,11.9,0,0,1,1.55,4.31l-.21.21c-2-1.82-4-3.76-6-5.64s-3.92-3.85-5.79-5.86Z"/><path class="cls-113" d="M671,686.32a11.45,11.45,0,0,1,4.31,1.38,15.16,15.16,0,0,1,3.31,2.42,15.49,15.49,0,0,1,2.54,3.22,11.76,11.76,0,0,1,1.54,4.25l-.21.22c-2-1.79-4-3.69-6-5.53s-3.89-3.77-5.75-5.74Z"/><path class="cls-114" d="M670.6,665.92s20.1-3.59,33.31-19.25l2.26,5a55.2,55.2,0,0,1-33.29,18.13Z"/><circle class="cls-115" cx="672.06" cy="707.3" r="0.54"/><circle class="cls-116" cx="677.53" cy="702.74" r="0.54"/><circle class="cls-117" cx="682.66" cy="697.64" r="0.54"/><path class="cls-118" d="M659.37,703.28s5.92,16,20.85,11.13l-3.23,4A16.58,16.58,0,0,1,663.91,715C659.24,711.49,659.09,707.18,659.37,703.28Z"/><circle class="cls-119" cx="700.75" cy="428.42" r="1.59"/><circle class="cls-119" cx="722.66" cy="443.14" r="1.59"/><circle class="cls-119" cx="694.22" cy="460.42" r="1.59"/><circle class="cls-119" cx="733.07" cy="406.9" r="1.59"/><circle class="cls-119" cx="697.57" cy="370.41" r="1.59"/><circle class="cls-119" cx="689.76" cy="333.21" r="1.59"/><circle class="cls-119" cx="721.49" cy="350.01" r="1.59"/><circle class="cls-119" cx="743.57" cy="324.59" r="1.59"/><circle class="cls-119" cx="761.33" cy="350.01" r="1.59"/><circle class="cls-119" cx="743.64" cy="372" r="1.59"/><path class="cls-120" d="M692.05,290.53s5.37,2.26,8.1-1.13"/></g></g></svg>