<?xml version="1.0" encoding="utf-8"?>
<!-- Generator: Adobe Illustrator 25.1.0, SVG Export Plug-In . SVG Version: 6.00 Build 0)  -->
<svg version="1.1" id="Layer_1" xmlns="http://www.w3.org/2000/svg" xmlns:xlink="http://www.w3.org/1999/xlink" x="0px" y="0px"
	 viewBox="0 0 1080 1080" style="enable-background:new 0 0 1080 1080;" xml:space="preserve">
<style type="text/css">
	.st0{fill:none;}
	.st1{fill:#DFD9C2;}
	.st2{fill:#FBF7E9;}
	.st3{fill:#FFFFFF;}
	.st4{fill:#C29A55;}
	.st5{fill:#F9C56F;}
	.st6{fill:#F2F2F2;}
	.st7{fill:none;stroke:url(#SVGID_1_);stroke-width:2;stroke-miterlimit:10;}
	.st8{fill:none;stroke:url(#SVGID_2_);stroke-width:2;stroke-miterlimit:10;}
	.st9{fill:#CCEAFF;stroke:#011627;stroke-width:2;stroke-miterlimit:10;}
	.st10{fill:#FFFFFF;stroke:#011627;stroke-miterlimit:10;}
	.st11{fill:none;stroke:#011627;stroke-miterlimit:10;}
	.st12{fill:#66FFE5;stroke:#000621;stroke-miterlimit:10;}
	.st13{fill:#85CBFF;stroke:#000621;stroke-miterlimit:10;}
	.st14{fill:url(#SVGID_3_);}
	.st15{fill:url(#SVGID_4_);}
	.st16{fill:none;stroke:url(#SVGID_5_);stroke-width:2;stroke-miterlimit:10;}
	.st17{fill:none;stroke:url(#SVGID_6_);stroke-width:2;stroke-miterlimit:10;}
	.st18{fill:none;stroke:url(#SVGID_7_);stroke-width:2;stroke-miterlimit:10;}
	.st19{fill:none;stroke:url(#SVGID_8_);stroke-width:2;stroke-miterlimit:10;}
	.st20{fill:none;stroke:url(#SVGID_9_);stroke-width:2;stroke-miterlimit:10;}
	.st21{fill:url(#SVGID_10_);}
	.st22{fill:url(#SVGID_11_);}
	.st23{fill:url(#SVGID_12_);}
	.st24{fill:#7D97F4;}
	.st25{fill:#5672C1;}
	.st26{fill:url(#SVGID_13_);}
	.st27{fill:none;stroke:#1B998B;stroke-miterlimit:10;}
	.st28{fill:#2EC4B6;}
	.st29{filter:url(#Adobe_OpacityMaskFilter);}
	.st30{filter:url(#Adobe_OpacityMaskFilter_1_);}
	.st31{mask:url(#SVGID_14_);fill:url(#SVGID_15_);}
	.st32{opacity:0.5;fill:url(#SVGID_16_);}
	.st33{fill:#FF9F1C;}
	.st34{fill:#1D2F49;}
	.st35{fill:#466EB6;}
	.st36{fill:url(#SVGID_17_);}
	.st37{fill:url(#SVGID_18_);}
	.st38{fill:#F3FFFE;stroke:#466EB6;stroke-width:2;stroke-miterlimit:10;}
	.st39{fill:none;stroke:#466EB6;stroke-miterlimit:10;}
	.st40{fill:url(#SVGID_19_);}
	.st41{fill:url(#SVGID_20_);}
	.st42{fill:url(#SVGID_21_);}
	.st43{fill:#F2F2F2;stroke:#177DFD;stroke-width:2;stroke-miterlimit:10;}
	.st44{fill:#177DFD;}
	.st45{fill:none;stroke:#177DFD;stroke-width:2;stroke-miterlimit:10;}
	.st46{fill:url(#SVGID_22_);}
	.st47{fill:#011627;}
	.st48{fill:#E71D36;}
	.st49{fill:url(#SVGID_23_);stroke:#5672C1;stroke-width:2;stroke-miterlimit:10;}
	.st50{fill:#7F3F1B;}
	.st51{fill:#1B998B;}
	.st52{fill:url(#SVGID_24_);}
	.st53{fill:url(#SVGID_25_);}
	.st54{fill:#FFC93B;stroke:#FFAC27;stroke-miterlimit:10;}
	.st55{fill:url(#SVGID_26_);}
	.st56{fill:url(#SVGID_27_);stroke:url(#SVGID_28_);stroke-width:2;stroke-miterlimit:10;}
	.st57{fill:url(#SVGID_29_);stroke:url(#SVGID_30_);stroke-width:2;stroke-miterlimit:10;}
	.st58{fill:url(#SVGID_31_);stroke:url(#SVGID_32_);stroke-width:2;stroke-miterlimit:10;}
	.st59{fill:url(#SVGID_33_);}
	.st60{fill:url(#SVGID_34_);}
	.st61{fill:url(#SVGID_35_);}
	.st62{fill:url(#SVGID_36_);}
	.st63{fill:#FFF9B3;stroke:#000423;stroke-miterlimit:10;}
	.st64{fill:url(#SVGID_37_);}
	.st65{fill:#000621;}
	.st66{fill:#C60021;}
	.st67{fill:none;stroke:url(#SVGID_38_);stroke-width:2;stroke-miterlimit:10;}
	.st68{fill:none;stroke:url(#SVGID_39_);stroke-width:2;stroke-miterlimit:10;}
	.st69{fill:none;stroke:url(#SVGID_40_);stroke-width:2;stroke-miterlimit:10;}
	.st70{fill:none;stroke:url(#SVGID_41_);stroke-width:2;stroke-miterlimit:10;}
	.st71{fill:none;stroke:url(#SVGID_42_);stroke-width:2;stroke-miterlimit:10;}
	.st72{fill:none;stroke:url(#SVGID_43_);stroke-width:2;stroke-miterlimit:10;}
	.st73{fill:none;stroke:url(#SVGID_44_);stroke-width:2;stroke-miterlimit:10;}
	.st74{fill:none;stroke:url(#SVGID_45_);stroke-width:2;stroke-miterlimit:10;}
	.st75{fill:none;stroke:url(#SVGID_46_);stroke-width:2;stroke-miterlimit:10;}
	.st76{fill:none;stroke:url(#SVGID_47_);stroke-width:2;stroke-miterlimit:10;}
	.st77{fill:none;stroke:url(#SVGID_48_);stroke-width:2;stroke-miterlimit:10;}
	.st78{fill:none;stroke:url(#SVGID_49_);stroke-width:2;stroke-miterlimit:10;}
	.st79{fill:none;stroke:url(#SVGID_50_);stroke-width:2;stroke-miterlimit:10;}
	.st80{fill:none;stroke:url(#SVGID_51_);stroke-width:2;stroke-miterlimit:10;}
	.st81{fill:none;stroke:url(#SVGID_52_);stroke-width:2;stroke-miterlimit:10;}
	.st82{fill:none;stroke:url(#SVGID_53_);stroke-width:2;stroke-miterlimit:10;}
	.st83{fill:none;stroke:url(#SVGID_54_);stroke-width:2;stroke-miterlimit:10;}
	.st84{fill:none;stroke:url(#SVGID_55_);stroke-width:2;stroke-miterlimit:10;}
	.st85{fill:none;stroke:url(#SVGID_56_);stroke-width:2;stroke-miterlimit:10;}
	.st86{fill:none;stroke:url(#SVGID_57_);stroke-width:2;stroke-miterlimit:10;}
	.st87{fill:none;stroke:url(#SVGID_58_);stroke-width:2;stroke-miterlimit:10;}
	.st88{fill:none;stroke:url(#SVGID_59_);stroke-width:2;stroke-miterlimit:10;}
	.st89{fill:none;stroke:url(#SVGID_60_);stroke-width:2;stroke-miterlimit:10;}
	.st90{fill:none;stroke:url(#SVGID_61_);stroke-width:2;stroke-miterlimit:10;}
	.st91{fill:none;stroke:url(#SVGID_62_);stroke-width:2;stroke-miterlimit:10;}
	.st92{fill:none;stroke:url(#SVGID_63_);stroke-width:2;stroke-miterlimit:10;}
	.st93{fill:none;stroke:url(#SVGID_64_);stroke-width:2;stroke-miterlimit:10;}
	.st94{fill:none;stroke:url(#SVGID_65_);stroke-width:2;stroke-miterlimit:10;}
	.st95{fill:#A6D1C9;}
	.st96{fill:#EFEFEF;}
	.st97{fill-rule:evenodd;clip-rule:evenodd;fill:#E5E5E5;}
	.st98{fill-rule:evenodd;clip-rule:evenodd;fill:#EFEFEF;}
	.st99{fill-rule:evenodd;clip-rule:evenodd;fill:#DDDDDD;}
	.st100{fill:#F0FFFE;}
	.st101{fill:#B5B5B5;}
	.st102{fill:#D3D3D3;}
	.st103{fill:#A6CCC8;}
	.st104{fill:#E4EAE9;}
	.st105{fill:#8EA8A3;}
	.st106{fill:#E6EDEC;}
	.st107{fill-rule:evenodd;clip-rule:evenodd;fill:#C2C4C4;}
	.st108{fill:#DDE8E8;stroke:url(#SVGID_66_);stroke-miterlimit:10;}
	.st109{fill:none;stroke:url(#SVGID_67_);stroke-width:2;stroke-miterlimit:10;}
	.st110{fill:none;stroke:url(#SVGID_68_);stroke-width:2;stroke-miterlimit:10;}
	.st111{fill:none;stroke:url(#SVGID_69_);stroke-width:2;stroke-miterlimit:10;}
	.st112{fill:none;stroke:url(#SVGID_70_);stroke-width:2;stroke-miterlimit:10;}
	.st113{fill:none;stroke:url(#SVGID_71_);stroke-width:2;stroke-miterlimit:10;}
	.st114{fill:none;stroke:url(#SVGID_72_);stroke-width:2;stroke-miterlimit:10;}
	.st115{fill:none;stroke:url(#SVGID_73_);stroke-width:2;stroke-miterlimit:10;}
	.st116{fill:none;stroke:url(#SVGID_74_);stroke-width:2;stroke-miterlimit:10;}
	.st117{fill:none;stroke:#011627;stroke-width:0.5;stroke-miterlimit:10;}
	.st118{fill:#F1F2F2;}
	.st119{fill:#E6E7E8;}
	.st120{fill:#A8A8A8;}
	.st121{fill:#BABABA;}
	.st122{fill:#414042;}
	.st123{fill:#A5A5A5;}
	.st124{fill:#9E9E9E;}
	.st125{fill:#F79548;}
	.st126{fill:#AAAAAA;}
	.st127{fill:#BFBFBF;}
	.st128{fill:#00B26B;}
	.st129{fill:#7F7F7F;}
	.st130{fill:#D71440;}
	.st131{fill:#A0A0A0;}
	.st132{fill:#6C518B;}
	.st133{fill:#A9E2FF;}
	.st134{fill:url(#SVGID_75_);stroke:#5672C1;stroke-width:2;stroke-miterlimit:10;}
	.st135{fill:#FFC93B;}
	.st136{fill:#FFAC27;}
</style>
<symbol  id="Daisy" viewBox="-23.68 -23.68 47.36 47.37">
	<g>
		<rect x="-21.42" y="-21.5" class="st0" width="43.01" height="43.1"/>
	</g>
	<g>
		<g>
			<path class="st1" d="M22.28,2.8C18.54,4.89,7.94,1.81,4.21,0.62c0.03-0.24,0.07-0.48,0.07-0.73c0-0.28-0.04-0.55-0.08-0.82
				c12.78-3.57,18.02-0.22,18.02-0.22C25.48,0.76,22.28,2.8,22.28,2.8z"/>
			<path class="st2" d="M20.27,2.43C16.95,4.16,7.53,1.61,4.21,0.62c0.03-0.2,0.06-0.4,0.06-0.61c0-0.23-0.03-0.46-0.07-0.68
				c11.36-2.96,16.02-0.18,16.02-0.18C23.11,0.74,20.27,2.43,20.27,2.43z"/>
			<path class="st3" d="M19.62,1.21C16.43,2.07,7.39,0.8,4.21,0.31c0.03-0.1,0.06-0.2,0.06-0.3c0-0.12-0.03-0.23-0.07-0.34
				c10.89-1.46,15.37-0.09,15.37-0.09C22.34,0.37,19.62,1.21,19.62,1.21z"/>
		</g>
		<g>
			<path class="st1" d="M13.81,17.7C9.68,16.55,4.35,6.89,2.54,3.41c0.2-0.15,0.39-0.29,0.57-0.47c0.2-0.2,0.37-0.42,0.52-0.64
				c11.57,6.48,12.93,12.56,12.93,12.56C17.51,18.52,13.81,17.7,13.81,17.7z"/>
			<path class="st2" d="M12.66,16.02C9.08,14.91,4.2,6.45,2.54,3.41c0.16-0.12,0.33-0.24,0.47-0.39c0.16-0.17,0.3-0.35,0.43-0.53
				c10.13,5.92,11.48,11.17,11.48,11.17C15.86,16.83,12.66,16.02,12.66,16.02z"/>
			<path class="st3" d="M13.05,14.7c-2.87-1.64-8.38-8.91-10.29-11.5c0.09-0.05,0.18-0.1,0.26-0.17C3.1,2.93,3.16,2.84,3.21,2.73
				c8.75,6.65,10.95,10.78,10.95,10.78C15.57,16.03,13.05,14.7,13.05,14.7z"/>
		</g>
		<g>
			<path class="st1" d="M-2.7,22.29C-4.81,18.56-1.77,7.95-0.6,4.21c0.24,0.03,0.48,0.07,0.74,0.07c0.28,0,0.55-0.04,0.82-0.08
				c3.63,12.76,0.3,18.02,0.3,18.02C-0.65,25.48-2.7,22.29-2.7,22.29z"/>
			<path class="st2" d="M-2.34,20.28C-4.08,16.96-1.57,7.53-0.6,4.21c0.2,0.03,0.4,0.06,0.61,0.06c0.23,0,0.46-0.04,0.68-0.08
				C3.7,15.54,0.94,20.22,0.94,20.22C-0.64,23.12-2.34,20.28-2.34,20.28z"/>
			<path class="st3" d="M-1.12,19.62C-1.99,16.44-0.77,7.39-0.29,4.21c0.1,0.03,0.2,0.06,0.3,0.06c0.12,0,0.23-0.03,0.34-0.07
				C1.86,15.09,0.5,19.56,0.5,19.56C-0.27,22.34-1.12,19.62-1.12,19.62z"/>
		</g>
		<g>
			<path class="st1" d="M-17.64,13.89C-16.5,9.75-6.86,4.38-3.39,2.56c0.15,0.19,0.29,0.39,0.47,0.57c0.2,0.2,0.42,0.36,0.64,0.52
				c-6.44,11.6-12.51,12.98-12.51,12.98C-18.44,17.59-17.64,13.89-17.64,13.89z"/>
			<path class="st2" d="M-15.97,12.72c1.1-3.58,9.54-8.49,12.58-10.16C-3.27,2.72-3.15,2.88-3,3.03c0.17,0.16,0.35,0.3,0.53,0.43
				C-8.34,13.62-13.6,14.99-13.6,14.99C-16.76,15.93-15.97,12.72-15.97,12.72z"/>
			<path class="st3" d="M-14.64,13.11c1.63-2.87,8.88-8.41,11.46-10.34C-3.12,2.87-3.07,2.96-3,3.03c0.08,0.08,0.18,0.14,0.29,0.19
				c-6.61,8.78-10.73,11-10.73,11C-15.96,15.64-14.64,13.11-14.64,13.11z"/>
		</g>
		<g>
			<path class="st1" d="M-22.3-2.61C-18.57-4.74-7.95-1.74-4.2-0.58C-4.24-0.34-4.27-0.1-4.27,0.15c0,0.28,0.04,0.55,0.09,0.82
				C-16.93,4.65-22.2,1.35-22.2,1.35C-25.47-0.55-22.3-2.61-22.3-2.61z"/>
			<path class="st2" d="M-20.29-2.26C-16.98-4.01-7.53-1.54-4.2-0.58c-0.03,0.2-0.06,0.4-0.06,0.61c0,0.23,0.03,0.46,0.08,0.68
				c-11.33,3.05-16.02,0.32-16.02,0.32C-23.11-0.54-20.29-2.26-20.29-2.26z"/>
			<path class="st3" d="M-19.62-1.04c3.18-0.88,12.23,0.3,15.42,0.77c-0.03,0.1-0.06,0.2-0.06,0.3c0,0.12,0.03,0.23,0.07,0.34
				c-10.88,1.55-15.36,0.22-15.36,0.22C-22.34-0.18-19.62-1.04-19.62-1.04z"/>
		</g>
		<g>
			<path class="st1" d="M-13.95-17.59C-9.81-16.46-4.4-6.84-2.57-3.38c-0.19,0.15-0.39,0.29-0.56,0.47c-0.2,0.2-0.36,0.42-0.52,0.64
				c-11.63-6.39-13.03-12.45-13.03-12.45C-17.66-18.37-13.95-17.59-13.95-17.59z"/>
			<path class="st2" d="M-12.78-15.91c3.59,1.09,8.53,9.51,10.21,12.54c-0.16,0.12-0.32,0.24-0.47,0.39
				c-0.16,0.17-0.3,0.35-0.43,0.53c-10.18-5.84-11.58-11.08-11.58-11.08C-15.99-16.7-12.78-15.91-12.78-15.91z"/>
			<path class="st3" d="M-13.17-14.58c2.88,1.62,8.45,8.84,10.38,11.42c-0.09,0.05-0.18,0.1-0.25,0.18
				C-3.12-2.91-3.17-2.81-3.23-2.7c-8.8-6.58-11.04-10.69-11.04-10.69C-15.7-15.89-13.17-14.58-13.17-14.58z"/>
		</g>
		<g>
			<path class="st1" d="M2.53-22.31c2.14,3.72-0.81,14.35-1.96,18.1C0.33-4.24,0.09-4.27-0.17-4.27c-0.28,0-0.55,0.04-0.82,0.09
				C-4.72-16.91-1.43-22.2-1.43-22.2C0.45-25.48,2.53-22.31,2.53-22.31z"/>
			<path class="st2" d="M2.18-20.3c1.77,3.3-0.66,12.76-1.61,16.09c-0.2-0.03-0.4-0.06-0.61-0.05c-0.23,0-0.46,0.04-0.68,0.08
				C-3.82-15.5-1.1-20.2-1.1-20.2C0.45-23.12,2.18-20.3,2.18-20.3z"/>
			<path class="st3" d="M0.96-19.63c0.9,3.18-0.25,12.23-0.7,15.42c-0.1-0.03-0.2-0.05-0.3-0.05c-0.12,0-0.23,0.03-0.34,0.07
				c-1.6-10.87-0.28-15.36-0.28-15.36C0.09-22.34,0.96-19.63,0.96-19.63z"/>
		</g>
		<g>
			<path class="st1" d="M17.53-14.03C16.43-9.88,6.83-4.43,3.37-2.58C3.23-2.77,3.08-2.97,2.9-3.14c-0.2-0.2-0.42-0.36-0.64-0.51
				c6.34-11.65,12.4-13.08,12.4-13.08C18.3-17.74,17.53-14.03,17.53-14.03z"/>
			<path class="st2" d="M15.87-12.85C14.79-9.26,6.4-4.27,3.37-2.58C3.25-2.74,3.13-2.9,2.98-3.05C2.81-3.21,2.63-3.34,2.44-3.47
				c5.79-10.21,11.03-11.62,11.03-11.62C16.64-16.06,15.87-12.85,15.87-12.85z"/>
			<path class="st3" d="M14.53-13.23C12.93-10.34,5.73-4.74,3.16-2.8c-0.05-0.09-0.1-0.18-0.18-0.25C2.9-3.13,2.8-3.19,2.69-3.24
				c6.54-8.83,10.64-11.08,10.64-11.08C15.84-15.76,14.53-13.23,14.53-13.23z"/>
		</g>
		<g>
			<path class="st1" d="M20.56-8.79c-2.17,3.7-12.87,6.4-16.7,7.26C3.77-1.76,3.68-1.98,3.55-2.2C3.41-2.44,3.24-2.66,3.07-2.87
				c9.21-9.54,15.44-9.31,15.44-9.31C22.29-12.16,20.56-8.79,20.56-8.79z"/>
			<path class="st2" d="M18.64-8.1C16.65-4.92,7.23-2.36,3.86-1.53C3.79-1.72,3.72-1.91,3.61-2.09c-0.12-0.2-0.26-0.38-0.4-0.55
				c8.3-8.29,13.73-8.26,13.73-8.26C20.24-10.99,18.64-8.1,18.64-8.1z"/>
			<path class="st3" d="M17.46-8.82C15.14-6.47,6.71-2.99,3.71-1.8C3.69-1.9,3.66-2,3.61-2.09c-0.06-0.1-0.14-0.18-0.23-0.26
				c8.66-6.77,13.21-7.85,13.21-7.85C19.39-10.92,17.46-8.82,17.46-8.82z"/>
			<path class="st3" d="M17.46-8.82C15.14-6.47,6.71-2.99,3.71-1.8C3.69-1.9,3.66-2,3.61-2.09c-0.06-0.1-0.14-0.18-0.23-0.26
				c8.66-6.77,13.21-7.85,13.21-7.85C19.39-10.92,17.46-8.82,17.46-8.82z"/>
		</g>
		<g>
			<path class="st1" d="M19.2,11.89c-4.28,0.3-12.56-7-15.43-9.66c0.13-0.2,0.27-0.41,0.38-0.63c0.12-0.25,0.21-0.52,0.28-0.78
				C17.5,3.02,20.83,8.28,20.83,8.28C22.95,11.4,19.2,11.89,19.2,11.89z"/>
			<path class="st2" d="M17.54,10.69C13.79,10.85,6.35,4.53,3.77,2.22C3.88,2.06,3.99,1.89,4.08,1.7c0.1-0.21,0.16-0.43,0.22-0.65
				C15.84,3.21,18.89,7.7,18.89,7.7C20.83,10.38,17.54,10.69,17.54,10.69z"/>
			<path class="st3" d="M17.47,9.31C14.21,8.73,6.57,3.74,3.9,1.95C3.97,1.87,4.04,1.79,4.08,1.7c0.05-0.1,0.07-0.22,0.08-0.33
				c10.48,3.31,13.94,6.46,13.94,6.46C20.29,9.71,17.47,9.31,17.47,9.31z"/>
		</g>
		<g>
			<path class="st1" d="M1.38,22.53C-1.33,19.22-0.16,8.24,0.36,4.36C0.61,4.35,0.85,4.34,1.1,4.3c0.28-0.05,0.54-0.13,0.79-0.22
				c5.75,11.95,3.38,17.71,3.38,17.71C3.95,25.32,1.38,22.53,1.38,22.53z"/>
			<path class="st2" d="M1.4,20.49C-0.89,17.52-0.02,7.8,0.36,4.36c0.2,0,0.4-0.01,0.61-0.05C1.2,4.27,1.42,4.2,1.63,4.12
				c4.9,10.67,2.99,15.75,2.99,15.75C3.56,23,1.4,20.49,1.4,20.49z"/>
			<path class="st3" d="M2.49,19.63C1.08,16.65,0.74,7.53,0.67,4.31c0.1,0.01,0.21,0.02,0.31,0c0.11-0.02,0.21-0.07,0.32-0.12
				C4.64,14.66,4.08,19.3,4.08,19.3C3.79,22.17,2.49,19.63,2.49,19.63z"/>
		</g>
		<g>
			<path class="st1" d="M-12.44,18.46c-0.15-4.28,7.43-12.3,10.2-15.08c0.2,0.14,0.4,0.28,0.62,0.4C-1.37,3.91-1.12,4-0.86,4.08
				c-2.66,13-8.04,16.14-8.04,16.14C-12.09,22.24-12.44,18.46-12.44,18.46z"/>
			<path class="st2" d="M-11.19,16.85C-11.22,13.1-4.64,5.89-2.24,3.38c0.16,0.12,0.33,0.24,0.51,0.33
				c0.21,0.11,0.42,0.18,0.64,0.25C-3.65,15.42-8.25,18.3-8.25,18.3C-10.99,20.15-11.19,16.85-11.19,16.85z"/>
			<path class="st3" d="M-9.81,16.83c0.69-3.23,5.94-10.69,7.83-13.3C-1.9,3.6-1.82,3.67-1.73,3.72c0.1,0.05,0.21,0.08,0.33,0.09
				c-3.67,10.36-6.94,13.71-6.94,13.71C-10.31,19.63-9.81,16.83-9.81,16.83z"/>
		</g>
		<g>
			<path class="st1" d="M-20.26,7.44C-17.85,3.89-6.99,1.9-3.12,1.3c0.08,0.23,0.15,0.46,0.27,0.69c0.13,0.25,0.28,0.48,0.44,0.7
				c-9.82,8.91-16.02,8.27-16.02,8.27C-22.2,10.7-20.26,7.44-20.26,7.44z"/>
			<path class="st2" d="M-18.3,6.88C-16.1,3.84-6.53,1.9-3.12,1.3C-3.06,1.49-3,1.68-2.9,1.87c0.1,0.21,0.23,0.39,0.37,0.58
				c-8.83,7.73-14.25,7.34-14.25,7.34C-20.08,9.66-18.3,6.88-18.3,6.88z"/>
			<path class="st3" d="M-17.16,7.68c2.47-2.2,11.11-5.12,14.18-6.1c0.02,0.1,0.04,0.2,0.08,0.3c0.05,0.1,0.13,0.19,0.21,0.27
				c-9.08,6.18-13.7,6.96-13.7,6.96C-19.23,9.65-17.16,7.68-17.16,7.68z"/>
		</g>
		<g>
			<path class="st1" d="M-18.23-11.32c4.26-0.45,12.8,6.54,15.77,9.1C-2.59-2.01-2.71-1.8-2.81-1.57C-2.92-1.31-3-1.05-3.06-0.78
				c-13.15-1.73-16.67-6.87-16.67-6.87C-21.97-10.7-18.23-11.32-18.23-11.32z"/>
			<path class="st2" d="M-16.53-10.19c3.74-0.29,11.4,5.76,14.07,7.97c-0.11,0.17-0.21,0.34-0.3,0.54c-0.09,0.21-0.15,0.43-0.2,0.65
				c-11.61-1.74-14.81-6.12-14.81-6.12C-19.81-9.75-16.53-10.19-16.53-10.19z"/>
			<path class="st3" d="M-16.41-8.81c3.27,0.46,11.09,5.17,13.82,6.87c-0.06,0.08-0.13,0.16-0.17,0.26
				C-2.8-1.58-2.82-1.46-2.83-1.35C-13.42-4.28-17-7.3-17-7.3C-19.24-9.11-16.41-8.81-16.41-8.81z"/>
		</g>
		<g>
			<path class="st1" d="M12.5-17.96C12.65-13.68,5.05-5.67,2.28-2.9c-0.2-0.14-0.4-0.28-0.62-0.4C1.41-3.43,1.15-3.52,0.89-3.61
				C3.58-16.6,8.96-19.73,8.96-19.73C12.16-21.74,12.5-17.96,12.5-17.96z"/>
			<path class="st2" d="M11.25-16.35C11.26-12.6,4.68-5.4,2.28-2.9C2.11-3.02,1.95-3.14,1.76-3.23c-0.2-0.11-0.42-0.18-0.63-0.25
				c2.58-11.45,7.18-14.33,7.18-14.33C11.05-19.65,11.25-16.35,11.25-16.35z"/>
			<path class="st3" d="M9.86-16.33C9.17-13.1,3.9-5.65,2.01-3.04C1.93-3.11,1.86-3.19,1.76-3.23c-0.1-0.05-0.21-0.08-0.33-0.1
				c3.69-10.35,6.96-13.7,6.96-13.7C10.37-19.13,9.86-16.33,9.86-16.33z"/>
		</g>
		<path class="st3" d="M13.04,14.98C10.2,13.31,4.77,5.97,2.89,3.35c0.09-0.05,0.18-0.1,0.26-0.17C3.23,3.1,3.29,3,3.34,2.9
			c8.67,6.75,10.82,10.91,10.82,10.91C15.55,16.34,13.04,14.98,13.04,14.98z"/>
		<path class="st3" d="M-14.85,11.89c1.94-2.67,9.76-7.38,12.54-9c0.04,0.1,0.08,0.19,0.15,0.27C-2.09,3.25-2,3.31-1.9,3.38
			c-7.54,7.99-11.88,9.74-11.88,9.74C-16.44,14.25-14.85,11.89-14.85,11.89z"/>
		<path class="st3" d="M-18.36-3.2c3.29-0.25,11.94,2.68,14.97,3.75c-0.05,0.09-0.1,0.19-0.11,0.29c-0.02,0.11-0.01,0.23,0,0.34
			c-10.97-0.59-15.11-2.77-15.11-2.77C-21.19-2.88-18.36-3.2-18.36-3.2z"/>
		<path class="st3" d="M-11.42-14.13c2.67,1.94,7.36,9.77,8.98,12.55C-2.53-1.54-2.63-1.5-2.7-1.43c-0.09,0.07-0.16,0.16-0.22,0.26
			c-7.98-7.56-9.72-11.9-9.72-11.9C-13.78-15.73-11.42-14.13-11.42-14.13z"/>
		<path class="st3" d="M2.4-19.05c0.61,3.25-1.33,12.16-2.06,15.3c-0.1-0.04-0.19-0.07-0.3-0.08C-0.08-3.84-0.19-3.82-0.3-3.8
			c-0.63-10.97,1.08-15.33,1.08-15.33C1.77-21.83,2.4-19.05,2.4-19.05z"/>
		<g>
			<polygon class="st4" points="4.78,0.71 3.75,2.56 2.87,3.97 0.64,4.74 -0.07,4.35 -0.9,4.58 -2.86,3.66 -4.18,2.8 -5.07,0.6 
				-4.87,0.03 -4.77,-0.93 -3.62,-2.68 -2.86,-3.9 -0.59,-4.75 -0.07,-4.73 0.92,-4.18 2.98,-3.81 3.82,-2.54 4.83,-0.75 4.8,0.03 
							"/>
		</g>
		<g>
			<polygon class="st5" points="4.15,0.6 2.84,1.84 2.7,3.62 0.66,4.17 0.04,2.9 -0.64,3.74 -2.1,2.77 -3.65,2.52 -4.49,0.55 
				-3.79,0.02 -3.73,-0.74 -2.44,-1.81 -2.38,-3.37 -0.43,-4.25 0.04,-4.09 0.71,-2.76 2.78,-3.44 3.02,-1.92 4.32,-0.65 4.06,0.02 
							"/>
		</g>
		<path class="st4" d="M2.24-1.27c0-0.36-0.3-0.64-0.68-0.64S0.89-1.62,0.89-1.27c0,0.35,0.3,0.64,0.68,0.64S2.24-0.91,2.24-1.27z"
			/>
		<path class="st4" d="M2.92-0.84c0-0.35-0.3-0.64-0.68-0.64c-0.37,0-0.68,0.29-0.68,0.64c0,0.35,0.3,0.64,0.68,0.64
			C2.62-0.2,2.92-0.49,2.92-0.84z"/>
		<path class="st4" d="M2.92,0.44c0-0.35-0.3-0.64-0.68-0.64c-0.37,0-0.68,0.29-0.68,0.64c0,0.36,0.3,0.64,0.68,0.64
			C2.62,1.08,2.92,0.8,2.92,0.44z"/>
		<path class="st4" d="M2.02,2.37c0-0.35-0.3-0.64-0.68-0.64c-0.38,0-0.68,0.29-0.68,0.64c0,0.36,0.3,0.64,0.68,0.64
			C1.71,3.01,2.02,2.72,2.02,2.37z"/>
		<path class="st4" d="M0.66,1.3c0-0.36-0.3-0.64-0.68-0.64c-0.38,0-0.68,0.29-0.68,0.64c0,0.35,0.3,0.64,0.68,0.64
			C0.36,1.94,0.66,1.65,0.66,1.3z"/>
		<path class="st4" d="M0.66-0.41c0-0.36-0.3-0.64-0.68-0.64c-0.38,0-0.68,0.29-0.68,0.64c0,0.35,0.3,0.64,0.68,0.64
			C0.36,0.23,0.66-0.06,0.66-0.41z"/>
		<path class="st4" d="M-0.02-2.34c0-0.35-0.3-0.64-0.68-0.64c-0.37,0-0.68,0.29-0.68,0.64s0.3,0.64,0.68,0.64
			C-0.32-1.69-0.02-1.98-0.02-2.34z"/>
		<path class="st4" d="M-1.38-0.85c0-0.36-0.3-0.64-0.68-0.64c-0.38,0-0.68,0.29-0.68,0.64c0,0.35,0.3,0.64,0.68,0.64
			C-1.68-0.21-1.38-0.5-1.38-0.85z"/>
		<path class="st4" d="M-1.95,0.49c0-0.35-0.3-0.64-0.68-0.64c-0.38,0-0.68,0.29-0.68,0.64c0,0.35,0.3,0.64,0.68,0.64
			C-2.26,1.13-1.95,0.84-1.95,0.49z"/>
		<path class="st4" d="M-0.85,2.71c0-0.35-0.3-0.64-0.68-0.64c-0.37,0-0.68,0.29-0.68,0.64c0,0.35,0.3,0.64,0.68,0.64
			C-1.16,3.35-0.85,3.07-0.85,2.71z"/>
	</g>
</symbol>
<path class="st6" d="M220.44,162.92c61.29-36.16,143.55-33.03,201.92,7.67c44.76,31.21,73.5,80.04,111.38,119.31
	s94.74,70.3,145.73,50.88c42.03-16.02,66.74-61.4,107.77-79.84c41.27-18.54,92.24-4.74,125.5,25.94s50.79,75.3,57.8,120
	c17.86,113.99-28.46,232.39-107.18,316.75S676.65,860.83,564.91,889.58c-62.14,15.99-126.84,25.06-190.59,17.77
	s-126.73-31.94-172.93-76.48c-46.19-44.54-73.69-110.17-64.92-173.74c7.32-53.04,38.5-103.15,32.2-156.32
	c-3.21-27.03-15.45-51.94-26.36-76.53c-10.41-23.46-16.15-43.86-15.79-70.02c0.12-8.78-0.65-21.49-0.23-30.19
	c0.6-12.36,3.72-24.61,6.31-36.8c5.12-24.12,14.94-47.22,28.62-67.73c13.71-20.56,31.37-38.54,52.03-52.14
	C215.61,165.85,218,164.36,220.44,162.92z"/>
<linearGradient id="SVGID_1_" gradientUnits="userSpaceOnUse" x1="607.8188" y1="523.8444" x2="609.9813" y2="523.8444">
	<stop  offset="0" style="stop-color:#4F52FF"/>
	<stop  offset="1" style="stop-color:#4042E2"/>
</linearGradient>
<line class="st7" x1="608.82" y1="518.14" x2="608.98" y2="529.54"/>
<linearGradient id="SVGID_2_" gradientUnits="userSpaceOnUse" x1="624.3823" y1="523.8444" x2="626.5447" y2="523.8444">
	<stop  offset="0" style="stop-color:#4F52FF"/>
	<stop  offset="1" style="stop-color:#4042E2"/>
</linearGradient>
<line class="st8" x1="625.38" y1="518.14" x2="625.54" y2="529.54"/>
<path class="st9" d="M491.5,462.37c0,0,12.21,28.6,0,54.72h47.5c0,0-11.55-26.48,0-54.72H491.5z"/>
<path class="st9" d="M629.26,473.85H401.25c-5.81,0-10.56-4.75-10.56-10.56V318.54c0-5.81,4.75-10.56,10.56-10.56h228.02
	c5.81,0,10.56,4.75,10.56,10.56v144.74C639.82,469.09,635.07,473.85,629.26,473.85z"/>
<rect x="523.47" y="395.9" transform="matrix(-1 -1.224647e-16 1.224647e-16 -1 1141.5664 858.2711)" class="st10" width="94.62" height="66.46"/>
<line class="st11" x1="606.53" y1="445.4" x2="534.25" y2="445.4"/>
<line class="st11" x1="606.53" y1="435.53" x2="534.25" y2="435.53"/>
<line class="st11" x1="606.53" y1="425.74" x2="534.25" y2="425.74"/>
<line class="st11" x1="606.53" y1="415.48" x2="534.25" y2="415.48"/>
<line class="st11" x1="606.14" y1="405.14" x2="533.86" y2="405.14"/>
<line class="st11" x1="550.25" y1="454.46" x2="534.25" y2="454.46"/>
<rect x="409.94" y="322.02" class="st12" width="93.62" height="65.76"/>
<rect x="523.47" y="321.7" class="st13" width="93.62" height="65.76"/>
<linearGradient id="SVGID_3_" gradientUnits="userSpaceOnUse" x1="617.2009" y1="755.3474" x2="509.6097" y2="942.3093">
	<stop  offset="0" style="stop-color:#FEBBBA"/>
	<stop  offset="1" style="stop-color:#FF928E"/>
</linearGradient>
<path class="st14" d="M632.19,743.4c0,0,3.99,26.31,1.56,35.82c-2.44,9.52-22.94,25.15-33.76,4.42c0,0-7.35-9.17-10.95-32.79
	C589.03,750.85,612.85,756.51,632.19,743.4z"/>
<linearGradient id="SVGID_4_" gradientUnits="userSpaceOnUse" x1="439.7637" y1="686.4879" x2="325.9182" y2="884.3179" gradientTransform="matrix(0.7007 0.7134 -0.7134 0.7007 659.637 -49.4844)">
	<stop  offset="0" style="stop-color:#FEBBBA"/>
	<stop  offset="1" style="stop-color:#FF928E"/>
</linearGradient>
<path class="st15" d="M497.07,743.54c0,0-17.54,25.95-26.04,30.88s-34.66,0.9-27.45-21.35c0,0,5.87-15.3,16.69-30.87
	C460.27,722.2,474.16,738.93,497.07,743.54z"/>
<linearGradient id="SVGID_5_" gradientUnits="userSpaceOnUse" x1="176.6638" y1="523.8444" x2="839.8904" y2="523.8444">
	<stop  offset="0" style="stop-color:#4F52FF"/>
	<stop  offset="1" style="stop-color:#4042E2"/>
</linearGradient>
<path class="st16" d="M180.06,518.14H836.7c0,0,4.92,5.16,0,11.4H180.06C180.06,529.54,174.66,524.26,180.06,518.14z"/>
<linearGradient id="SVGID_6_" gradientUnits="userSpaceOnUse" x1="203.1738" y1="674.5044" x2="216.7038" y2="674.5044">
	<stop  offset="0" style="stop-color:#4F52FF"/>
	<stop  offset="1" style="stop-color:#4042E2"/>
</linearGradient>
<polygon class="st17" points="207.06,529.54 204.18,819.46 215.7,819.46 215.7,529.54 "/>
<linearGradient id="SVGID_7_" gradientUnits="userSpaceOnUse" x1="354.3738" y1="674.5044" x2="367.9038" y2="674.5044">
	<stop  offset="0" style="stop-color:#4F52FF"/>
	<stop  offset="1" style="stop-color:#4042E2"/>
</linearGradient>
<polygon class="st18" points="358.26,529.54 355.38,819.46 366.9,819.46 366.9,529.54 "/>
<linearGradient id="SVGID_8_" gradientUnits="userSpaceOnUse" x1="214.7038" y1="566.502" x2="358.1525" y2="566.502">
	<stop  offset="0" style="stop-color:#4F52FF"/>
	<stop  offset="1" style="stop-color:#4042E2"/>
</linearGradient>
<rect x="215.7" y="529.54" class="st19" width="141.45" height="73.92"/>
<linearGradient id="SVGID_9_" gradientUnits="userSpaceOnUse" x1="214.7038" y1="641.4171" x2="358.1525" y2="641.4171">
	<stop  offset="0" style="stop-color:#4F52FF"/>
	<stop  offset="1" style="stop-color:#4042E2"/>
</linearGradient>
<rect x="215.7" y="604.46" class="st20" width="141.45" height="73.92"/>
<linearGradient id="SVGID_10_" gradientUnits="userSpaceOnUse" x1="270.3401" y1="714.8962" x2="642.5177" y2="714.8962">
	<stop  offset="0" style="stop-color:#4F52FF"/>
	<stop  offset="1" style="stop-color:#4042E2"/>
</linearGradient>
<ellipse class="st21" cx="286.62" cy="714.9" rx="47.04" ry="11.64"/>
<linearGradient id="SVGID_11_" gradientUnits="userSpaceOnUse" x1="731.4638" y1="705.1203" x2="741.9838" y2="705.1203">
	<stop  offset="0" style="stop-color:#7D97F4"/>
	<stop  offset="1" style="stop-color:#4042E2;stop-opacity:0.7"/>
</linearGradient>
<rect x="731.46" y="650.26" class="st22" width="10.52" height="109.71"/>
<linearGradient id="SVGID_12_" gradientUnits="userSpaceOnUse" x1="680.1038" y1="780.1044" x2="795.3038" y2="780.1044">
	<stop  offset="0" style="stop-color:#7D97F4"/>
	<stop  offset="1" style="stop-color:#4042E2;stop-opacity:0.7"/>
</linearGradient>
<path class="st23" d="M680.1,799.3c0,0,51.84-86.4,115.2,0h-11.04c0,0-41.76-65.76-94.08,0H680.1z"/>
<circle class="st24" cx="684.62" cy="811.15" r="10.92"/>
<circle class="st25" cx="684.62" cy="811.15" r="4.34"/>
<circle class="st24" cx="736.72" cy="811.15" r="10.92"/>
<circle class="st24" cx="790.08" cy="811.15" r="10.92"/>
<linearGradient id="SVGID_13_" gradientUnits="userSpaceOnUse" x1="731.4638" y1="785.2693" x2="741.9838" y2="785.2693">
	<stop  offset="0" style="stop-color:#7D97F4"/>
	<stop  offset="1" style="stop-color:#4042E2;stop-opacity:0.7"/>
</linearGradient>
<path class="st26" d="M731.46,771.73c0,0,6.39-0.9,10.52-0.28v27.85h-10.52V771.73z"/>
<path class="st27" d="M746.34,650.26v20.16c0,0-0.86,7.38,6.48,7.56c6.3,0.16,10.08,0.16,10.08,0.16"/>
<path class="st27" d="M751.62,650.26v10.58c0,0-0.59,3.87,4.42,3.97c4.29,0.08,6.87,0.08,6.87,0.08"/>
<path class="st28" d="M788.82,681.92h-22.14c-2.08,0-3.78-1.7-3.78-3.78l0,0c0-2.08,1.7-3.78,3.78-3.78h22.14
	c2.08,0,3.78,1.7,3.78,3.78l0,0C792.6,680.22,790.9,681.92,788.82,681.92z"/>
<path class="st28" d="M778.17,666.49h-14.16c-0.87,0-1.59-0.72-1.59-1.59l0,0c0-0.87,0.72-1.59,1.59-1.59h14.16
	c0.87,0,1.59,0.72,1.59,1.59l0,0C779.76,665.77,779.05,666.49,778.17,666.49z"/>
<defs>
	<filter id="Adobe_OpacityMaskFilter" filterUnits="userSpaceOnUse" x="262.05" y="327.13" width="218.14" height="190.05">
		<feFlood  style="flood-color:white;flood-opacity:1" result="back"/>
		<feBlend  in="SourceGraphic" in2="back" mode="normal"/>
	</filter>
</defs>
<mask maskUnits="userSpaceOnUse" x="262.05" y="327.13" width="218.14" height="190.05" id="SVGID_14_">
	<g class="st29">
		<defs>
			<filter id="Adobe_OpacityMaskFilter_1_" filterUnits="userSpaceOnUse" x="262.05" y="327.13" width="252.81" height="190.09">
				<feFlood  style="flood-color:white;flood-opacity:1" result="back"/>
				<feBlend  in="SourceGraphic" in2="back" mode="normal"/>
			</filter>
		</defs>
		<mask maskUnits="userSpaceOnUse" x="262.05" y="327.13" width="252.81" height="190.09" id="SVGID_14_">
			<g class="st30">
			</g>
		</mask>
		<linearGradient id="SVGID_15_" gradientUnits="userSpaceOnUse" x1="262.054" y1="422.1739" x2="514.8668" y2="422.1739">
			<stop  offset="0" style="stop-color:#FFFFFF"/>
			<stop  offset="0.063" style="stop-color:#DADADA"/>
			<stop  offset="0.1602" style="stop-color:#A7A7A7"/>
			<stop  offset="0.2621" style="stop-color:#7B7B7B"/>
			<stop  offset="0.3668" style="stop-color:#555555"/>
			<stop  offset="0.4749" style="stop-color:#363636"/>
			<stop  offset="0.5877" style="stop-color:#1E1E1E"/>
			<stop  offset="0.7071" style="stop-color:#0D0D0D"/>
			<stop  offset="0.8375" style="stop-color:#030303"/>
			<stop  offset="1" style="stop-color:#000000"/>
		</linearGradient>
		<polygon class="st31" points="262.05,373.24 307.64,516.99 514.87,517.22 298.12,327.13 		"/>
	</g>
</mask>
<linearGradient id="SVGID_16_" gradientUnits="userSpaceOnUse" x1="262.054" y1="422.1546" x2="480.1989" y2="422.1546">
	<stop  offset="0" style="stop-color:#FFFFFF"/>
	<stop  offset="0.0835" style="stop-color:#FFF7C3"/>
	<stop  offset="0.1866" style="stop-color:#FFEE7F"/>
	<stop  offset="0.28" style="stop-color:#FFE749"/>
	<stop  offset="0.3602" style="stop-color:#FFE122"/>
	<stop  offset="0.4241" style="stop-color:#FFDE0B"/>
	<stop  offset="0.4637" style="stop-color:#FFDD02"/>
</linearGradient>
<polygon class="st32" points="262.05,373.24 288.68,516.97 480.2,517.18 298.12,327.13 "/>
<g>
	<path class="st33" d="M260.35,510.09h2.83c0.49,0,0.89-0.4,0.89-0.89v-13.01c0-0.49-0.4-0.89-0.89-0.89h-2.83
		c-0.49,0-0.89,0.4-0.89,0.89v13.01C259.46,509.69,259.86,510.09,260.35,510.09z"/>
	<g>
		<path class="st34" d="M218.44,332.58c2.78-5.71,6.46-9.29,10.94-10.66c6.92-2.11,13.53,1.67,13.6,1.71l2.17-3.74
			c-0.34-0.2-8.33-4.76-17.03-2.11c-5.68,1.73-10.25,6.07-13.57,12.9L218.44,332.58z"/>
	</g>
	<path class="st33" d="M247.55,314.63l24.66,16.38c0.66,0.44,0.84,1.33,0.4,2l-7.39,11.13c-0.44,0.66-1.33,0.84-2,0.4l-24.66-16.38
		c-0.66-0.44-0.84-1.33-0.4-2l7.39-11.13C245.99,314.37,246.89,314.19,247.55,314.63z"/>
	<path class="st35" d="M294.93,323.75l-32.87,49.49c-13.67-9.08-17.39-27.52-8.31-41.18C262.82,318.39,281.26,314.67,294.93,323.75z
		"/>
	<g>
		<path class="st33" d="M185.12,420.96l24.32-92.46l14.17,3.73l-24.32,92.46L185.12,420.96z M212.66,334l-22.03,83.74l5.45,1.43
			l22.03-83.74L212.66,334z"/>
	</g>
	<g>
		<path class="st33" d="M184.52,425.33l13.86-4.73l30.9,90.48l-13.86,4.73L184.52,425.33z M195.57,426.32l-5.33,1.82l27.98,81.95
			l5.33-1.82L195.57,426.32z"/>
	</g>
	<path class="st34" d="M260.27,376.64l3.1,2.06c0.18,0.12,0.43,0.07,0.56-0.11l36.66-55.19c0.12-0.18,0.07-0.43-0.11-0.56l-3.1-2.06
		c-0.18-0.12-0.43-0.07-0.56,0.11l-36.66,55.19C260.04,376.27,260.09,376.52,260.27,376.64z"/>
	<path class="st34" d="M182.58,424.62c0,5.9,4.78,10.68,10.68,10.68c5.9,0,10.68-4.78,10.68-10.68c0-5.9-4.78-10.68-10.68-10.68
		C187.37,413.94,182.58,418.72,182.58,424.62z"/>
	<path class="st35" d="M288.3,502.36h-88.09c-3.11,0-5.63,2.52-5.63,5.63v9.01h99.34v-9.01
		C293.93,504.88,291.41,502.36,288.3,502.36z"/>
</g>
<linearGradient id="SVGID_17_" gradientUnits="userSpaceOnUse" x1="278.9366" y1="567.002" x2="292.1509" y2="567.002">
	<stop  offset="0" style="stop-color:#4F52FF"/>
	<stop  offset="1" style="stop-color:#4042E2"/>
</linearGradient>
<circle class="st36" cx="285.54" cy="567" r="6.61"/>
<linearGradient id="SVGID_18_" gradientUnits="userSpaceOnUse" x1="278.9366" y1="641.4171" x2="292.1509" y2="641.4171">
	<stop  offset="0" style="stop-color:#4F52FF"/>
	<stop  offset="1" style="stop-color:#4042E2"/>
</linearGradient>
<circle class="st37" cx="285.54" cy="641.42" r="6.61"/>
<path class="st38" d="M639.42,236.26h50.4v50.4c0,0,1.08,14.04,15.48,12.96l-56.16,0.06c0,0-8.64-1.86-9.72-13.02
	C638.34,275.5,639.42,236.26,639.42,236.26z"/>
<path class="st39" d="M647.6,249.15c1.35,2.48,2.92,3.45,4.32,3.21c2.67-0.47,2.42-3.59,4.23-3.16c1.67,0.39,1.66,2.97,3.15,3.15
	c1.77,0.21,2.76-3.32,4.59-3.15c1.65,0.15,2.02,3.14,3.51,3.15c1.51,0.01,1.95-3.06,3.6-3.15c1.57-0.09,2.08,2.63,4.05,3.06
	c0.99,0.22,2.36-0.14,4.95-3.11"/>
<path class="st39" d="M647.6,256.94c1.35,2.48,2.92,3.45,4.32,3.21c2.67-0.47,2.42-3.59,4.23-3.16c1.67,0.39,1.66,2.97,3.15,3.15
	c1.77,0.21,2.76-3.32,4.59-3.15c1.65,0.15,2.02,3.14,3.51,3.15c1.51,0.01,1.95-3.06,3.6-3.15c1.57-0.09,2.08,2.63,4.05,3.06
	c0.99,0.22,2.36-0.14,4.95-3.11"/>
<path class="st39" d="M647.6,264.74c1.35,2.48,2.92,3.45,4.32,3.21c2.67-0.47,2.42-3.59,4.23-3.16c1.67,0.39,1.66,2.97,3.15,3.15
	c1.77,0.21,2.76-3.32,4.59-3.15c1.65,0.15,2.02,3.14,3.51,3.15c1.51,0.01,1.95-3.06,3.6-3.15c1.57-0.09,2.08,2.63,4.05,3.06
	c0.99,0.22,2.36-0.14,4.95-3.11"/>
<path class="st39" d="M647.6,272.53c1.35,2.48,2.92,3.45,4.32,3.21c2.67-0.47,2.42-3.59,4.23-3.16c1.67,0.39,1.66,2.97,3.15,3.15
	c1.77,0.21,2.76-3.32,4.59-3.15c1.65,0.15,2.02,3.14,3.51,3.15c1.51,0.01,1.95-3.06,3.6-3.15c1.57-0.09,2.08,2.63,4.05,3.06
	c0.99,0.22,2.36-0.14,4.95-3.11"/>
<path class="st39" d="M647.6,280.33c1.35,2.48,2.92,3.45,4.32,3.21c2.67-0.47,2.42-3.59,4.23-3.16c1.67,0.39,1.66,2.97,3.15,3.15
	c1.77,0.21,2.76-3.32,4.59-3.15c1.65,0.15,2.02,3.14,3.51,3.15c1.51,0.01,1.95-3.06,3.6-3.15c1.57-0.09,2.08,2.63,4.05,3.06
	c0.99,0.22,2.36-0.14,4.95-3.11"/>
<rect x="661.4" y="229.94" class="st33" width="4.8" height="12.48"/>
<rect x="587.7" y="238.18" class="st38" width="35.04" height="35.04"/>
<rect x="585.51" y="231.87" transform="matrix(0.7071 0.7071 -0.7071 0.7071 341.7684 -345.7271)" class="st33" width="5.41" height="15.64"/>
<rect x="619.88" y="230.86" transform="matrix(-0.7071 0.7071 -0.7071 -0.7071 1231.9081 -32.4234)" class="st33" width="5.59" height="16.14"/>
<linearGradient id="SVGID_19_" gradientUnits="userSpaceOnUse" x1="-976.2139" y1="1533.9147" x2="-1075.2362" y2="1601.2498">
	<stop  offset="0" style="stop-color:#FF928E"/>
	<stop  offset="1" style="stop-color:#FE7062"/>
</linearGradient>
<path class="st40" d="M716.26,371.44c1.06,4.87,2.75,17.33-6.91,20.33c-0.29,0.09-0.59,0.13-0.9,0.13
	c-4.81,0.03-10.93,0.51-15.45,0.93c-2.7,0.25-3.87,3.57-1.91,5.43c3.94,3.75,9.82,7.91,14.57,5.11c0.38-0.22,0.78-0.39,1.21-0.43
	c2.2-0.19,10.08-1.52,19.9-11.12c11.61-11.34,4.29-9.63,9.3-17.02c4.07-5.99,4.66-11.51,4.74-13.38c0.02-0.42-0.05-0.83-0.19-1.22
	l0.19-9.94c-0.73-2-4.61,3.86-6.31,5.13l-17.06,12.8C716.45,368.96,715.99,370.22,716.26,371.44z"/>
<linearGradient id="SVGID_20_" gradientUnits="userSpaceOnUse" x1="426.7906" y1="654.0997" x2="728.8942" y2="657.9203">
	<stop  offset="0" style="stop-color:#177DFD"/>
	<stop  offset="1" style="stop-color:#1208FF"/>
</linearGradient>
<path class="st41" d="M541.76,563.04c0,0-77.19,104.89-87.97,153.22c0,0,9.31,36.16,50.68,30.67c0,0,53.6-52.04,58.86-84.38
	C563.32,662.54,531.98,588.09,541.76,563.04z"/>
<linearGradient id="SVGID_21_" gradientUnits="userSpaceOnUse" x1="488.5093" y1="643.1464" x2="1019.8693" y2="649.8664">
	<stop  offset="0" style="stop-color:#177DFD"/>
	<stop  offset="1" style="stop-color:#1208FF"/>
</linearGradient>
<path class="st42" d="M730.16,539c0,0-100.21,4.86-119.07,6.3c-23.07,1.76-54.49,0.8-69.33,17.74
	c-14.84,16.94,20.3,157.55,32.62,184.07c0,0,39.42,16.09,67.29-11.55c0,0-8.11-76.79-13.12-94.31c5.04-13.7,62.7-4.8,62.7-4.8
	L730.16,539z"/>
<path class="st43" d="M634.11,768.77c0.98,3.76,4.23,18.03,1.16,31.29c-0.01,0.06-0.02,0.12-0.02,0.18l0.8,18.39
	c0.02,0.4-0.29,0.73-0.69,0.75l-12.73,0.55c-0.4,0.02-0.73-0.29-0.75-0.69l-0.36-8.31c-0.02-0.4-0.35-0.71-0.75-0.69l-12.37,0.54
	c-0.2,0.01-0.38,0.1-0.51,0.25l-8.49,9.69c-0.13,0.15-0.31,0.24-0.51,0.25l-42.19,1.83c-0.4,0.02-0.73-0.29-0.75-0.69l-0.36-8.22
	c0-0.06,0-0.11,0.01-0.16c0.19-0.98,2.46-10.8,17.97-15.48c13.79-4.17,19.74-18.79,21.25-23.23c0.18-0.53,0.88-0.66,1.23-0.22
	c4.03,4.99,22.04,24.42,37.36-6.08C633.57,768.4,634.02,768.44,634.11,768.77z"/>
<polygon class="st44" points="555.72,817.05 597.03,815.26 605.91,805.37 624.18,804.58 635.25,800.15 636.08,819.35 621.91,819.97 
	621.49,810.22 608.09,810.8 599.19,820.95 555.97,822.83 "/>
<line class="st45" x1="590.63" y1="783.95" x2="600.77" y2="792.49"/>
<line class="st45" x1="587.38" y1="788.58" x2="596.25" y2="797.26"/>
<line class="st45" x1="582.75" y1="793.27" x2="591.41" y2="802.05"/>
<path class="st43" d="M480.46,766.15c-0.7,3.28-5.24,23.15-13.6,28.85l-8.14,17.42l-12.85-6l4.13-8.84l-12.15-5.68l-12.59,4.89
	l-39.19-18.31l3.82-8.18c0,0,6.38-8.67,23.14-5.49c16.76,3.17,30.54-11.74,30.54-11.74s4.85,36.15,36.59,12.9
	C480.31,765.87,480.5,765.98,480.46,766.15z"/>
<polygon class="st44" points="388.53,773.24 425.98,790.74 438.43,786.07 455,793.81 466.86,795 458.73,812.42 445.87,806.41 
	450.01,797.57 437.86,791.89 425.27,796.79 386.08,778.48 "/>
<line class="st45" x1="434.77" y1="760.02" x2="439.83" y2="772.28"/>
<line class="st45" x1="429.75" y1="762.62" x2="433.61" y2="774.42"/>
<line class="st45" x1="423.48" y1="764.64" x2="427.11" y2="776.43"/>
<linearGradient id="SVGID_22_" gradientUnits="userSpaceOnUse" x1="722.994" y1="340.1685" x2="629.8771" y2="501.9782">
	<stop  offset="0" style="stop-color:#FEBBBA"/>
	<stop  offset="1" style="stop-color:#FF928E"/>
</linearGradient>
<path class="st46" d="M700.07,341.38c0,0-4.95,29.43,15.7,28.1c5.14-2.23,8.28-4.79,9.85-6.31c1.24-1.2,2.51-2.37,3.85-3.45
	l8.47-6.85v-21.9l-25.06-5.28L700.07,341.38z"/>
<circle class="st47" cx="749.04" cy="319.17" r="8.77"/>
<g>
	<path class="st48" d="M740.9,322.34c1.37-0.17,2.67,0.04,3.91,0.39c1.24,0.36,2.42,0.89,3.51,1.57c1.1,0.67,2.1,1.53,2.96,2.51
		c0.85,0.99,1.56,2.15,1.9,3.48c-1.29-0.51-2.34-1.09-3.4-1.66c-1.05-0.57-2.05-1.17-3.05-1.79c-1-0.62-1.98-1.28-2.95-2
		C742.81,324.11,741.85,323.34,740.9,322.34z"/>
</g>
<g>
	<path class="st47" d="M742.81,317.09c0.49-1.02,1.47-1.76,2.56-2.06c1.09-0.31,2.25-0.31,3.37-0.2c2.25,0.24,4.43,0.91,6.55,1.65
		c1.06,0.38,2.11,0.78,3.16,1.21c1.03,0.43,2.11,0.83,3.09,1.42c1.96,1.17,3.66,2.77,4.98,4.62c1.34,1.84,2.37,3.91,3.08,6.07
		c0.71,2.17,1.12,4.41,1.36,6.66c0.48,4.51,0.27,9.03,0.3,13.51c0.03,4.47,0.26,8.99,1.68,13.21c1.37,4.23,3.89,8.03,6.88,11.32
		c3.02,3.3,6.6,6.05,10.41,8.41c3.8,2.39,7.82,4.41,11.88,6.35c-4.1-1.83-8.19-3.74-12.07-6.03c-3.87-2.31-7.53-5.03-10.64-8.33
		c-3.1-3.29-5.66-7.18-7.1-11.51c-1.47-4.33-1.74-8.93-1.77-13.43c-0.01-4.51,0.22-9-0.23-13.45c-0.44-4.42-1.63-8.85-4.21-12.49
		c-1.26-1.82-2.88-3.4-4.76-4.56c-0.94-0.59-1.98-0.99-3.01-1.44c-1.03-0.44-2.07-0.87-3.12-1.27c-2.09-0.79-4.24-1.5-6.46-1.79
		c-1.11-0.14-2.24-0.16-3.33,0.11C744.31,315.38,743.32,316.08,742.81,317.09z"/>
</g>
<g>
	<path class="st47" d="M752.5,315.55c3.27,2.68,6.54,5.4,9.32,8.63c1.38,1.62,2.61,3.38,3.61,5.27c0.98,1.9,1.71,3.93,2.19,6.01
		c0.98,4.17,1.06,8.47,1.08,12.69c-0.04,4.23,0.26,8.43,0.88,12.61c0.6,4.17,1.45,8.31,2.52,12.4c0.53,2.04,1.11,4.08,1.73,6.1
		c0.62,2.02,1.25,4.04,2.04,5.98c1.55,3.89,3.84,7.54,7.03,10.3c3.16,2.8,7.01,4.7,10.96,6.2c-3.99-1.38-7.92-3.15-11.21-5.9
		c-3.29-2.75-5.69-6.43-7.34-10.36c-0.85-1.96-1.47-4-2.11-6.02c-0.63-2.02-1.23-4.06-1.77-6.11c-1.08-4.1-1.99-8.26-2.58-12.47
		c-0.6-4.2-0.88-8.47-0.82-12.71c0-4.22-0.07-8.46-0.96-12.57c-0.44-2.05-1.12-4.05-2.05-5.92c-0.95-1.87-2.14-3.62-3.47-5.25
		C758.89,321.13,755.69,318.32,752.5,315.55z"/>
</g>
<linearGradient id="SVGID_23_" gradientUnits="userSpaceOnUse" x1="629.2238" y1="642.4644" x2="807.3038" y2="642.4644">
	<stop  offset="0" style="stop-color:#7D97F4"/>
	<stop  offset="1" style="stop-color:#7479F4"/>
</linearGradient>
<path class="st49" d="M802.3,650.26H634.22c-2.75,0-5-2.25-5-5v-5.6c0-2.75,2.25-5,5-5H802.3c2.75,0,5,2.25,5,5v5.6
	C807.3,648.01,805.05,650.26,802.3,650.26z"/>
<g>
	<path class="st39" d="M570.01,735.79c0,0,51.28,12.77,69.97-15.66l1.69,15.42c0,0-22.09,27.19-67.29,11.55L570.01,735.79z"/>
	<line class="st39" x1="578.94" y1="737.43" x2="582.5" y2="749.53"/>
	<line class="st39" x1="634.57" y1="726.51" x2="636.33" y2="740.51"/>
	<line class="st39" x1="587.98" y1="738.33" x2="591.25" y2="751.25"/>
	<line class="st39" x1="628.55" y1="731.02" x2="630.48" y2="744.43"/>
	<line class="st39" x1="621.55" y1="734.42" x2="623.55" y2="747.79"/>
	<line class="st39" x1="614.36" y1="736.64" x2="616.18" y2="750.16"/>
	<line class="st39" x1="606.9" y1="737.97" x2="608.58" y2="751.54"/>
	<line class="st39" x1="598.16" y1="738.62" x2="599.98" y2="751.94"/>
</g>
<g>
	<path class="st39" d="M457.8,703.05c0,0,15.81,39.66,56.68,33.59l-10.01,10.28c0,0-36.02,9.39-50.68-30.67L457.8,703.05z"/>
	<line class="st39" x1="504.38" y1="737.23" x2="495.54" y2="747.88"/>
	<line class="st39" x1="461.53" y1="710.18" x2="456.83" y2="723.3"/>
	<line class="st39" x1="466.08" y1="716.74" x2="460.27" y2="729.22"/>
	<line class="st39" x1="471.03" y1="722.34" x2="464.95" y2="734.87"/>
	<line class="st39" x1="476.41" y1="727.08" x2="470.22" y2="739.63"/>
	<line class="st39" x1="495.54" y1="736.14" x2="487.23" y2="747.16"/>
	<line class="st39" x1="487.23" y1="733.47" x2="480.01" y2="744.79"/>
	<line class="st39" x1="481.36" y1="730.47" x2="474.98" y2="742.56"/>
</g>
<path class="st50" d="M575.92,373.75h-5.36c-6.6,0-12-5.4-12-12v-15.64c0-6.6,5.4-12,12-12h5.36c6.6,0,12,5.4,12,12v15.64
	C587.92,368.35,582.52,373.75,575.92,373.75z"/>
<circle cx="569.65" cy="356.58" r="1.43"/>
<circle cx="583.14" cy="356.58" r="1.43"/>
<g>
	<path d="M576.47,355.15c0.33,0.75,0.55,1.55,0.7,2.36c0.15,0.81,0.21,1.65,0.14,2.49c-0.08,0.83-0.35,1.72-1.01,2.33
		c-0.66,0.62-1.59,0.71-2.39,0.59c0.81-0.08,1.62-0.28,2.11-0.86c0.49-0.56,0.71-1.33,0.78-2.11
		C576.95,358.38,576.73,356.76,576.47,355.15z"/>
</g>
<path class="st51" d="M545.12,386.5c0,0,28.46-27.37,55.28,0H545.12z"/>
<g>
	<path d="M572.29,366.79c1.11,0.29,2.16,0.48,3.22,0.47c1.06,0.01,2.1-0.2,3.23-0.47c-0.43,0.38-0.93,0.72-1.49,0.9
		c-0.55,0.22-1.15,0.3-1.74,0.31C574.33,368.01,573.13,367.61,572.29,366.79z"/>
</g>
<linearGradient id="SVGID_24_" gradientUnits="userSpaceOnUse" x1="604.2094" y1="785.686" x2="604.2094" y2="785.686">
	<stop  offset="0" style="stop-color:#FEBBBA"/>
	<stop  offset="1" style="stop-color:#FF928E"/>
</linearGradient>
<path class="st52" d="M604.21,785.69"/>
<linearGradient id="SVGID_25_" gradientUnits="userSpaceOnUse" x1="540.0031" y1="412.5741" x2="588.6638" y2="412.5741">
	<stop  offset="0" style="stop-color:#8FCFFF"/>
	<stop  offset="1" style="stop-color:#76C4FB"/>
</linearGradient>
<path class="st53" d="M540.14,411.04c2.99-1.2,21.36-7.83,48.53-1.26c0,0-17.6,17.84-48.54,1.66
	C539.96,411.36,539.96,411.11,540.14,411.04z"/>
<path class="st54" d="M771.09,388.9c0,0,32.18-1.43,36.21,53.28c0.18,4.04,0.31,8.04,0.39,11.99c0.95,47.49-5.19,87.43-5.19,87.43
	H686.58v-35.34c0,0-17.28,0.77-15.84-23.37l19.38-21.27l-38.1,41.04c0,0-19.2,23.76-46.32,15.48
	c-25.28-7.72-60.79-93.98-65.48-105.62c-0.16-0.4,0.28-0.78,0.65-0.55c5.19,3.12,26.69,14.31,46.48-1.12
	c0.68-0.53,1.68-0.28,2.05,0.5c4.47,9.43,27.97,57.95,33.82,48.84c6.48-10.08,41.8-63.25,68.88-68.88s97.44-16.8,124.8,17.76
	c27.36,34.56,46.8,78.48,36,92.16c-10.8,13.68-19.44,14.76-24,15.84s-19.2,1.44-21.84-7.44
	C804.05,499.77,823.68,393.27,771.09,388.9z"/>
<g>
	<g>
		<linearGradient id="SVGID_26_" gradientUnits="userSpaceOnUse" x1="561.8691" y1="379.5761" x2="451.7468" y2="570.9363">
			<stop  offset="0" style="stop-color:#FEBBBA"/>
			<stop  offset="1" style="stop-color:#FF928E"/>
		</linearGradient>
		<path class="st55" d="M578.87,417.48v-35.71c0,0,0.36-3.96-5.22-13.68c-1.08-2.16-2.34-6.12-4.68-3.78
			c-2.34,2.34-2.39,5.17-2.39,5.17s-0.11,1.76,0.9,4.32l0,0c0.92,1.77,1.16,2.41,1.3,3.64c0.24,2.07,0.88,4.94-0.81,5.04
			c-0.64,0.04-1.83-0.41-4.77-1.13c-2.96-0.72-5.29-1.87-8.06-3.14c-4.84-2.24-14.37-6.67-19.84-9.41
			c-7.56-3.78-5.76,1.62-5.76,1.62s0,2.7,6.84,6.48c0,0-5.4,0-0.36,7.74c0,0-2.52,4.32,1.26,8.1c0,0-2.34,4.5,2.88,8.64
			c5.22,4.14,14.94,11.31,13.95,17.07L578.87,417.48z"/>
		<linearGradient id="SVGID_27_" gradientUnits="userSpaceOnUse" x1="355.8105" y1="509.0457" x2="344.8329" y2="516.5104">
			<stop  offset="0" style="stop-color:#FE7062"/>
			<stop  offset="1" style="stop-color:#FF928E"/>
		</linearGradient>
		<linearGradient id="SVGID_28_" gradientUnits="userSpaceOnUse" x1="544.3785" y1="380.2749" x2="543.3489" y2="382.0641">
			<stop  offset="0" style="stop-color:#FEBBBA"/>
			<stop  offset="1" style="stop-color:#FF928E"/>
		</linearGradient>
		<line class="st56" x1="536.39" y1="376.91" x2="551.33" y2="385.43"/>
		<linearGradient id="SVGID_29_" gradientUnits="userSpaceOnUse" x1="366.4942" y1="508.9095" x2="356.1823" y2="515.9215">
			<stop  offset="0" style="stop-color:#FE7062"/>
			<stop  offset="1" style="stop-color:#FF928E"/>
		</linearGradient>
		<linearGradient id="SVGID_30_" gradientUnits="userSpaceOnUse" x1="543.6634" y1="387.8847" x2="542.624" y2="389.6909">
			<stop  offset="0" style="stop-color:#FEBBBA"/>
			<stop  offset="1" style="stop-color:#FF928E"/>
		</linearGradient>
		<line class="st57" x1="536.03" y1="384.65" x2="550.25" y2="392.93"/>
		<linearGradient id="SVGID_31_" gradientUnits="userSpaceOnUse" x1="388.0023" y1="502.6324" x2="378.9092" y2="508.8157">
			<stop  offset="0" style="stop-color:#FE7062"/>
			<stop  offset="1" style="stop-color:#FF928E"/>
		</linearGradient>
		<linearGradient id="SVGID_32_" gradientUnits="userSpaceOnUse" x1="544.3722" y1="395.6679" x2="543.1753" y2="397.7477">
			<stop  offset="0" style="stop-color:#FEBBBA"/>
			<stop  offset="1" style="stop-color:#FF928E"/>
		</linearGradient>
		<line class="st58" x1="537.29" y1="392.75" x2="550.25" y2="400.67"/>
		<linearGradient id="SVGID_33_" gradientUnits="userSpaceOnUse" x1="464.6166" y1="438.8831" x2="458.4195" y2="443.0971">
			<stop  offset="0" style="stop-color:#FE7062"/>
			<stop  offset="1" style="stop-color:#FF928E"/>
		</linearGradient>
		<path class="st59" d="M567.76,365.03c0,0,2.9,8.82,5.9,3.06c0,0-2.17-5.05-3.15-5.04C569.53,363.06,568.22,364.54,567.76,365.03z"
			/>
		<linearGradient id="SVGID_34_" gradientUnits="userSpaceOnUse" x1="410.0064" y1="451.7169" x2="402.8816" y2="456.5618">
			<stop  offset="0" style="stop-color:#FE7062"/>
			<stop  offset="1" style="stop-color:#FF928E"/>
		</linearGradient>
		<path class="st60" d="M529.18,368.85c0,0,4.67,4.42,5.79-0.21c0,0-2.72-1.55-4.39-1.5C528.62,367.2,529.18,368.85,529.18,368.85z"
			/>
	</g>
	<linearGradient id="SVGID_35_" gradientUnits="userSpaceOnUse" x1="567.6363" y1="415.989" x2="541.6095" y2="461.2159">
		<stop  offset="0" style="stop-color:#FEBBBA"/>
		<stop  offset="1" style="stop-color:#FF928E"/>
	</linearGradient>
	<path class="st61" d="M578.87,417.48c0,0-10.88,5.01-24.75,0.98"/>
</g>
<g>
	<linearGradient id="SVGID_36_" gradientUnits="userSpaceOnUse" x1="459.0161" y1="352.5674" x2="388.797" y2="474.5875">
		<stop  offset="0" style="stop-color:#FEBBBA"/>
		<stop  offset="1" style="stop-color:#FF928E"/>
	</linearGradient>
	<path class="st62" d="M456.91,376.04h-1.93c-6.6,0-12-5.4-12-12v-12.28c0-6.6,5.4-12,12-12h1.93c6.6,0,12,5.4,12,12v12.28
		C468.91,370.64,463.51,376.04,456.91,376.04z"/>
	<path class="st47" d="M442.98,356.4c0,0-1,2.58-2.81,10.71c0,0-7.76-9.43-0.72-21.27c7.04-11.84,16.48-10.56,16.48-10.56
		s24.83-0.95,16.62,31.22c0,0-2.4-7.51-3.66-9.13c-2.01-2.61-15.75-8.14-20.85-11.32c-1.15-0.72-1.5-1.37-1.87-0.07L442.98,356.4z"
		/>
	<circle class="st47" cx="452.36" cy="360.77" r="1.79"/>
	<circle class="st47" cx="463.93" cy="360.77" r="1.79"/>
	<path class="st47" d="M454.93,354.37c0,0-7.18-2.68-9.75,3.21"/>
	<path class="st47" d="M465.85,353.76c0,0-4.18-0.86-6,1.91"/>
	<g>
		<path class="st47" d="M457.8,359.61c0.37,0.64,0.61,1.35,0.78,2.07c0.16,0.72,0.21,1.48,0.17,2.25c-0.11,0.75-0.34,1.6-0.99,2.16
			c-0.14,0.16-0.35,0.23-0.53,0.33c-0.18,0.11-0.38,0.14-0.58,0.17c-0.39,0.08-0.78-0.02-1.13-0.09l0-0.05
			c0.71,0.02,1.46-0.12,1.96-0.64c0.5-0.51,0.7-1.24,0.77-1.94c0.12-1.42-0.12-2.87-0.5-4.25L457.8,359.61z"/>
	</g>
	<g>
		<path class="st47" d="M451.21,367.94c0.51,1.05,1.26,1.94,2.18,2.53c0.91,0.59,2.01,0.82,3.09,0.72c0.55,0.01,1.08-0.17,1.63-0.26
			c0.53-0.18,1.07-0.34,1.6-0.55c0.51-0.25,1.05-0.44,1.56-0.7c0.52-0.26,1.02-0.54,1.56-0.78c-0.44,0.38-0.91,0.73-1.37,1.09
			c-0.47,0.35-1,0.62-1.51,0.92c-0.52,0.29-1.09,0.47-1.64,0.7c-0.59,0.13-1.16,0.33-1.78,0.33c-1.21,0.09-2.51-0.21-3.48-1
			C452.07,370.18,451.44,369.08,451.21,367.94z"/>
	</g>
	<path class="st47" d="M455.52,336.53c0,0-1.03-5.06-4.58-3.23L455.52,336.53z"/>
	<path class="st47" d="M454.93,336.61c0,0,5.75-3.27,2.11-6.86L454.93,336.61z"/>
	<path class="st33" d="M431.11,387.31c0,0,25.13-24.17,48.81,0H431.11z"/>
</g>
<path class="st47" d="M700.07,341.38c0,0-19.39-11.87,7.12-23.35s45.91,7.65,45.91,7.65s13.85,11.34,17.41,40.23
	c3.56,28.89-0.92,62.39-0.92,62.39s-9.45-19.89-29.63-4.85c-20.18,15.04-34.05-11.49-16.28-36.9
	c15.83-22.63,14.25-33.71,14.25-33.71l0,0c0-12.76-8.94-23.78-21.43-26.41l0,0c-2.23-0.47-4.54,0.35-5.98,2.11L700.07,341.38z"/>
<rect x="409.78" y="395.9" class="st63" width="93.62" height="65.76"/>
<g>
	<linearGradient id="SVGID_37_" gradientUnits="userSpaceOnUse" x1="459.5487" y1="422.5836" x2="380.205" y2="560.4595">
		<stop  offset="0" style="stop-color:#FEBBBA"/>
		<stop  offset="1" style="stop-color:#FF928E"/>
	</linearGradient>
	<path class="st64" d="M458.76,448.43h-5.36c-6.6,0-12-5.4-12-12v-15.64c0-6.6,5.4-12,12-12h5.36c6.6,0,12,5.4,12,12v15.64
		C470.76,443.03,465.36,448.43,458.76,448.43z"/>
	<circle class="st47" cx="451.88" cy="431.56" r="1.61"/>
	<circle class="st47" cx="465.92" cy="431.56" r="1.61"/>
	<g>
		<path class="st47" d="M456.06,427.28c-2.15-0.29-4.26-0.41-6.22,0.06c-0.98,0.23-1.88,0.68-2.69,1.28
			c-0.85,0.58-1.45,1.44-2.12,2.3c0.3-1.03,0.76-2.11,1.61-2.89c0.81-0.8,1.86-1.39,2.97-1.66c1.11-0.26,2.25-0.29,3.35-0.12
			C454.04,426.42,455.11,426.74,456.06,427.28z"/>
	</g>
	<g>
		<path class="st47" d="M468.43,426.59c-1.3,0.18-2.48,0.3-3.62,0.59c-0.57,0.14-1.1,0.34-1.63,0.59c-0.53,0.25-1,0.6-1.54,0.99
			c0.19-0.63,0.58-1.22,1.12-1.64c0.53-0.43,1.16-0.72,1.81-0.9c0.66-0.15,1.32-0.21,1.98-0.14
			C467.2,426.13,467.85,426.28,468.43,426.59z"/>
	</g>
	<g>
		<path class="st47" d="M458.84,429.83c0.4,0.74,0.66,1.53,0.84,2.35c0.18,0.82,0.23,1.67,0.18,2.53c-0.12,0.84-0.37,1.79-1.09,2.42
			c-0.15,0.18-0.39,0.26-0.58,0.37c-0.2,0.13-0.42,0.16-0.64,0.2c-0.44,0.1-0.87-0.01-1.27-0.07l0-0.05
			c0.8,0.02,1.65-0.13,2.22-0.72c0.56-0.58,0.8-1.4,0.87-2.2c0.14-1.61-0.13-3.25-0.57-4.81L458.84,429.83z"/>
	</g>
	<path class="st47" d="M456.65,408.4c0,0-1.16-5.74-5.19-3.66L456.65,408.4z"/>
	<path class="st47" d="M455.98,408.48c0,0,6.52-3.7,2.39-7.77L455.98,408.48z"/>
	<path class="st51" d="M427.96,461.19c0,0,28.46-27.37,55.28,0H427.96z"/>
	<path class="st65" d="M439.52,423.63l3.7,3.73l4.61-9.24l0.64,8.42l4.02-9.24l3.07,8.3l3.54-9.82l2.08,9.7l4-7.6l3.79,7.83
		l3.64-2.61c0,0,1.38-17.52-17.05-16.57C437.14,407.49,439.52,423.63,439.52,423.63z"/>
	<g>
		<path class="st47" d="M454.05,441.48c1.16,0.2,2.18,0.36,3.22,0.34c0.52,0,1.04-0.03,1.56-0.1c0.53-0.05,1.06-0.17,1.66-0.24
			c-0.8,0.88-2.02,1.34-3.23,1.34c-0.6,0-1.21-0.11-1.76-0.34C454.96,442.26,454.44,441.94,454.05,441.48z"/>
	</g>
</g>
<circle class="st47" cx="704.77" cy="345.71" r="2.42"/>
<g>
	<path class="st66" d="M711.58,357.48c-0.07,0.96-0.45,1.89-1,2.71c-0.54,0.82-1.27,1.52-2.1,2.07c-0.85,0.51-1.76,0.91-2.73,1.08
		c-0.47,0.12-0.96,0.12-1.44,0.16c-0.48-0.01-0.96-0.04-1.43-0.11c0.46-0.16,0.92-0.25,1.36-0.38c0.44-0.16,0.88-0.25,1.3-0.43
		c0.85-0.3,1.65-0.7,2.39-1.17c0.75-0.47,1.41-1.05,2.03-1.7C710.57,359.05,711.11,358.32,711.58,357.48z"/>
</g>
<linearGradient id="SVGID_38_" gradientUnits="userSpaceOnUse" x1="193.7332" y1="523.8444" x2="195.8957" y2="523.8444">
	<stop  offset="0" style="stop-color:#4F52FF"/>
	<stop  offset="1" style="stop-color:#4042E2"/>
</linearGradient>
<line class="st67" x1="194.73" y1="518.14" x2="194.9" y2="529.54"/>
<linearGradient id="SVGID_39_" gradientUnits="userSpaceOnUse" x1="210.2966" y1="523.8444" x2="212.4591" y2="523.8444">
	<stop  offset="0" style="stop-color:#4F52FF"/>
	<stop  offset="1" style="stop-color:#4042E2"/>
</linearGradient>
<line class="st68" x1="211.3" y1="518.14" x2="211.46" y2="529.54"/>
<linearGradient id="SVGID_40_" gradientUnits="userSpaceOnUse" x1="226.86" y1="523.8444" x2="229.0225" y2="523.8444">
	<stop  offset="0" style="stop-color:#4F52FF"/>
	<stop  offset="1" style="stop-color:#4042E2"/>
</linearGradient>
<line class="st69" x1="227.86" y1="518.14" x2="228.02" y2="529.54"/>
<linearGradient id="SVGID_41_" gradientUnits="userSpaceOnUse" x1="243.4234" y1="523.8444" x2="245.5859" y2="523.8444">
	<stop  offset="0" style="stop-color:#4F52FF"/>
	<stop  offset="1" style="stop-color:#4042E2"/>
</linearGradient>
<line class="st70" x1="244.42" y1="518.14" x2="244.59" y2="529.54"/>
<linearGradient id="SVGID_42_" gradientUnits="userSpaceOnUse" x1="259.9868" y1="523.8444" x2="262.1494" y2="523.8444">
	<stop  offset="0" style="stop-color:#4F52FF"/>
	<stop  offset="1" style="stop-color:#4042E2"/>
</linearGradient>
<line class="st71" x1="260.99" y1="518.14" x2="261.15" y2="529.54"/>
<linearGradient id="SVGID_43_" gradientUnits="userSpaceOnUse" x1="276.5503" y1="523.8444" x2="278.7128" y2="523.8444">
	<stop  offset="0" style="stop-color:#4F52FF"/>
	<stop  offset="1" style="stop-color:#4042E2"/>
</linearGradient>
<line class="st72" x1="277.55" y1="518.14" x2="277.71" y2="529.54"/>
<linearGradient id="SVGID_44_" gradientUnits="userSpaceOnUse" x1="293.1137" y1="523.8444" x2="295.2762" y2="523.8444">
	<stop  offset="0" style="stop-color:#4F52FF"/>
	<stop  offset="1" style="stop-color:#4042E2"/>
</linearGradient>
<line class="st73" x1="294.11" y1="518.14" x2="294.28" y2="529.54"/>
<linearGradient id="SVGID_45_" gradientUnits="userSpaceOnUse" x1="309.6771" y1="523.8444" x2="311.8396" y2="523.8444">
	<stop  offset="0" style="stop-color:#4F52FF"/>
	<stop  offset="1" style="stop-color:#4042E2"/>
</linearGradient>
<line class="st74" x1="310.68" y1="518.14" x2="310.84" y2="529.54"/>
<linearGradient id="SVGID_46_" gradientUnits="userSpaceOnUse" x1="326.2406" y1="523.8444" x2="328.4031" y2="523.8444">
	<stop  offset="0" style="stop-color:#4F52FF"/>
	<stop  offset="1" style="stop-color:#4042E2"/>
</linearGradient>
<line class="st75" x1="327.24" y1="518.14" x2="327.4" y2="529.54"/>
<linearGradient id="SVGID_47_" gradientUnits="userSpaceOnUse" x1="342.804" y1="523.8444" x2="344.9665" y2="523.8444">
	<stop  offset="0" style="stop-color:#4F52FF"/>
	<stop  offset="1" style="stop-color:#4042E2"/>
</linearGradient>
<line class="st76" x1="343.8" y1="518.14" x2="343.97" y2="529.54"/>
<linearGradient id="SVGID_48_" gradientUnits="userSpaceOnUse" x1="359.3674" y1="523.8444" x2="361.5299" y2="523.8444">
	<stop  offset="0" style="stop-color:#4F52FF"/>
	<stop  offset="1" style="stop-color:#4042E2"/>
</linearGradient>
<line class="st77" x1="360.37" y1="518.14" x2="360.53" y2="529.54"/>
<linearGradient id="SVGID_49_" gradientUnits="userSpaceOnUse" x1="375.9308" y1="523.8444" x2="378.0934" y2="523.8444">
	<stop  offset="0" style="stop-color:#4F52FF"/>
	<stop  offset="1" style="stop-color:#4042E2"/>
</linearGradient>
<line class="st78" x1="376.93" y1="518.14" x2="377.09" y2="529.54"/>
<linearGradient id="SVGID_50_" gradientUnits="userSpaceOnUse" x1="392.4943" y1="523.8444" x2="394.6568" y2="523.8444">
	<stop  offset="0" style="stop-color:#4F52FF"/>
	<stop  offset="1" style="stop-color:#4042E2"/>
</linearGradient>
<line class="st79" x1="393.49" y1="518.14" x2="393.66" y2="529.54"/>
<linearGradient id="SVGID_51_" gradientUnits="userSpaceOnUse" x1="409.0577" y1="523.8444" x2="411.2202" y2="523.8444">
	<stop  offset="0" style="stop-color:#4F52FF"/>
	<stop  offset="1" style="stop-color:#4042E2"/>
</linearGradient>
<line class="st80" x1="410.06" y1="518.14" x2="410.22" y2="529.54"/>
<linearGradient id="SVGID_52_" gradientUnits="userSpaceOnUse" x1="425.6211" y1="523.8444" x2="427.7836" y2="523.8444">
	<stop  offset="0" style="stop-color:#4F52FF"/>
	<stop  offset="1" style="stop-color:#4042E2"/>
</linearGradient>
<line class="st81" x1="426.62" y1="518.14" x2="426.78" y2="529.54"/>
<linearGradient id="SVGID_53_" gradientUnits="userSpaceOnUse" x1="442.1846" y1="523.8444" x2="444.3471" y2="523.8444">
	<stop  offset="0" style="stop-color:#4F52FF"/>
	<stop  offset="1" style="stop-color:#4042E2"/>
</linearGradient>
<line class="st82" x1="443.18" y1="518.14" x2="443.35" y2="529.54"/>
<linearGradient id="SVGID_54_" gradientUnits="userSpaceOnUse" x1="458.748" y1="523.8444" x2="460.9105" y2="523.8444">
	<stop  offset="0" style="stop-color:#4F52FF"/>
	<stop  offset="1" style="stop-color:#4042E2"/>
</linearGradient>
<line class="st83" x1="459.75" y1="518.14" x2="459.91" y2="529.54"/>
<linearGradient id="SVGID_55_" gradientUnits="userSpaceOnUse" x1="475.3114" y1="523.8444" x2="477.4739" y2="523.8444">
	<stop  offset="0" style="stop-color:#4F52FF"/>
	<stop  offset="1" style="stop-color:#4042E2"/>
</linearGradient>
<line class="st84" x1="476.31" y1="518.14" x2="476.47" y2="529.54"/>
<linearGradient id="SVGID_56_" gradientUnits="userSpaceOnUse" x1="491.8748" y1="523.8444" x2="494.0374" y2="523.8444">
	<stop  offset="0" style="stop-color:#4F52FF"/>
	<stop  offset="1" style="stop-color:#4042E2"/>
</linearGradient>
<line class="st85" x1="492.87" y1="518.14" x2="493.04" y2="529.54"/>
<linearGradient id="SVGID_57_" gradientUnits="userSpaceOnUse" x1="508.4383" y1="523.8444" x2="510.6008" y2="523.8444">
	<stop  offset="0" style="stop-color:#4F52FF"/>
	<stop  offset="1" style="stop-color:#4042E2"/>
</linearGradient>
<line class="st86" x1="509.44" y1="518.14" x2="509.6" y2="529.54"/>
<linearGradient id="SVGID_58_" gradientUnits="userSpaceOnUse" x1="525.0017" y1="523.8444" x2="527.1642" y2="523.8444">
	<stop  offset="0" style="stop-color:#4F52FF"/>
	<stop  offset="1" style="stop-color:#4042E2"/>
</linearGradient>
<line class="st87" x1="526" y1="518.14" x2="526.16" y2="529.54"/>
<linearGradient id="SVGID_59_" gradientUnits="userSpaceOnUse" x1="541.5651" y1="523.8444" x2="543.7276" y2="523.8444">
	<stop  offset="0" style="stop-color:#4F52FF"/>
	<stop  offset="1" style="stop-color:#4042E2"/>
</linearGradient>
<line class="st88" x1="542.57" y1="518.14" x2="542.73" y2="529.54"/>
<linearGradient id="SVGID_60_" gradientUnits="userSpaceOnUse" x1="558.1285" y1="523.8444" x2="560.2911" y2="523.8444">
	<stop  offset="0" style="stop-color:#4F52FF"/>
	<stop  offset="1" style="stop-color:#4042E2"/>
</linearGradient>
<line class="st89" x1="559.13" y1="518.14" x2="559.29" y2="529.54"/>
<linearGradient id="SVGID_61_" gradientUnits="userSpaceOnUse" x1="574.692" y1="523.8444" x2="576.8545" y2="523.8444">
	<stop  offset="0" style="stop-color:#4F52FF"/>
	<stop  offset="1" style="stop-color:#4042E2"/>
</linearGradient>
<line class="st90" x1="575.69" y1="518.14" x2="575.85" y2="529.54"/>
<linearGradient id="SVGID_62_" gradientUnits="userSpaceOnUse" x1="591.2554" y1="523.8444" x2="593.4179" y2="523.8444">
	<stop  offset="0" style="stop-color:#4F52FF"/>
	<stop  offset="1" style="stop-color:#4042E2"/>
</linearGradient>
<line class="st91" x1="592.26" y1="518.14" x2="592.42" y2="529.54"/>
<linearGradient id="SVGID_63_" gradientUnits="userSpaceOnUse" x1="640.9457" y1="523.8444" x2="643.1082" y2="523.8444">
	<stop  offset="0" style="stop-color:#4F52FF"/>
	<stop  offset="1" style="stop-color:#4042E2"/>
</linearGradient>
<line class="st92" x1="641.95" y1="518.14" x2="642.11" y2="529.54"/>
<linearGradient id="SVGID_64_" gradientUnits="userSpaceOnUse" x1="657.5091" y1="523.8444" x2="659.6716" y2="523.8444">
	<stop  offset="0" style="stop-color:#4F52FF"/>
	<stop  offset="1" style="stop-color:#4042E2"/>
</linearGradient>
<line class="st93" x1="658.51" y1="518.14" x2="658.67" y2="529.54"/>
<linearGradient id="SVGID_65_" gradientUnits="userSpaceOnUse" x1="674.0725" y1="523.8444" x2="676.235" y2="523.8444">
	<stop  offset="0" style="stop-color:#4F52FF"/>
	<stop  offset="1" style="stop-color:#4042E2"/>
</linearGradient>
<line class="st94" x1="675.07" y1="518.14" x2="675.24" y2="529.54"/>
<g>
	<polygon class="st95" points="271.81,704.02 273.45,707.74 274.82,706.23 275.19,708.29 272.58,709.74 274.81,709.91 
		275.89,712.14 274.65,716.56 279.11,720.8 277.94,722.85 279,726.58 274.17,724.02 275.08,718.96 267.08,712.67 	"/>
	<g>
		<polygon class="st96" points="249.52,687.98 241.06,716.53 259.54,691.97 		"/>
		<polygon class="st97" points="259.54,691.97 268.1,692.16 255.62,699.17 255.95,700.95 244.64,713.85 243.29,723.48 
			242.36,723.65 241.06,716.53 		"/>
		<polygon class="st98" points="243.04,727.4 244.64,713.85 264.66,736.64 		"/>
		<polygon class="st99" points="268.1,692.16 255.62,699.17 277.08,704.44 280.49,701.75 		"/>
		<polygon class="st100" points="255.62,699.17 255.95,700.95 255.16,701.84 254.65,714.06 267.08,712.67 272.23,703.25 		"/>
		<polygon class="st101" points="251.64,717.22 258.62,723.12 261.4,730.94 269.65,729.44 275.46,733.71 264.37,735.05 		"/>
		<polygon class="st102" points="255.16,701.84 244.64,713.85 264.66,736.64 275.46,733.71 264.37,735.05 251.64,717.22 
			254.65,714.06 		"/>
		<polygon class="st103" points="267.08,712.67 254.65,714.06 251.64,717.22 258.62,723.12 275.08,718.96 		"/>
		<polygon class="st104" points="275.08,718.96 273.26,729.07 261.4,730.94 258.62,723.12 		"/>
		<polygon class="st105" points="269.87,729.61 274.42,732.95 278.29,732.24 278.46,726.29 274.17,724.02 273.26,729.07 		"/>
		<polygon class="st106" points="279,726.58 286.99,731.13 277.96,734.8 274.42,732.95 278.29,732.24 278.46,726.29 		"/>
		<polygon class="st106" points="280.49,701.75 276.79,708 286.03,715.72 281.3,722.72 286.99,731.13 279,726.58 277.94,722.85 
			279.11,720.8 274.65,716.56 275.89,712.14 274.81,709.91 272.58,709.74 275.19,708.29 274.82,706.23 		"/>
		<polygon class="st107" points="272.23,703.25 271.81,704.02 273.45,707.74 277.08,704.44 		"/>
	</g>
</g>
<g>
	<polygon class="st95" points="296.68,721.52 298.17,717.74 299.6,719.19 299.89,717.11 297.22,715.78 299.44,715.51 300.43,713.25 
		299,708.87 303.29,704.46 302.03,702.46 302.94,698.69 298.22,701.45 299.34,706.46 291.6,713.07 	"/>
	<g>
		<polygon class="st96" points="275.08,738.47 265.45,710.29 284.93,734.07 		"/>
		<polygon class="st97" points="284.93,734.07 293.47,733.53 280.71,727.04 280.96,725.25 269.13,712.83 267.39,703.26 
			266.45,703.12 265.45,710.29 		"/>
		<polygon class="st98" points="266.97,699.35 269.13,712.83 288.2,689.23 		"/>
		<polygon class="st99" points="293.47,733.53 280.71,727.04 301.93,720.88 305.45,723.44 		"/>
		<polygon class="st100" points="280.71,727.04 280.96,725.25 280.14,724.39 279.13,712.2 291.6,713.07 297.13,722.28 		"/>
		<polygon class="st101" points="275.99,709.17 282.72,702.99 285.17,695.06 293.47,696.22 299.1,691.71 287.97,690.83 		"/>
		<polygon class="st102" points="280.14,724.39 269.13,712.83 288.2,689.23 299.1,691.71 287.97,690.83 275.99,709.17 279.13,712.2 
					"/>
		<polygon class="st103" points="291.6,713.07 279.13,712.2 275.99,709.17 282.72,702.99 299.34,706.46 		"/>
		<polygon class="st104" points="299.34,706.46 297.1,696.43 285.17,695.06 282.72,702.99 		"/>
		<polygon class="st105" points="293.69,696.04 298.1,692.51 301.99,693.06 302.41,699 298.22,701.45 297.1,696.43 		"/>
		<polygon class="st106" points="302.94,698.69 310.73,693.81 301.56,690.51 298.1,692.51 301.99,693.06 302.41,699 		"/>
		<polygon class="st106" points="305.45,723.44 301.49,717.34 310.41,709.25 305.4,702.45 310.73,693.81 302.94,698.69 
			302.03,702.46 303.29,704.46 299,708.87 300.43,713.25 299.44,715.51 297.22,715.78 299.89,717.11 299.6,719.19 		"/>
		<polygon class="st107" points="297.13,722.28 296.68,721.52 298.17,717.74 301.93,720.88 		"/>
	</g>
</g>
<g>
	<polygon class="st95" points="300.76,703.29 299.12,707.01 297.74,705.5 297.37,707.56 299.98,709 297.75,709.18 296.67,711.4 
		297.91,715.83 293.45,720.06 294.63,722.12 293.56,725.84 298.39,723.28 297.48,718.23 305.48,711.94 	"/>
	<g>
		<polygon class="st96" points="323.04,687.25 331.5,715.8 313.02,691.24 		"/>
		<polygon class="st97" points="313.02,691.24 304.47,691.42 316.94,698.44 316.61,700.22 327.92,713.11 329.27,722.75 
			330.2,722.92 331.5,715.8 		"/>
		<polygon class="st98" points="329.52,726.67 327.92,713.11 307.9,735.91 		"/>
		<polygon class="st99" points="304.47,691.42 316.94,698.44 295.48,703.71 292.07,701.01 		"/>
		<polygon class="st100" points="316.94,698.44 316.61,700.22 317.4,701.11 317.91,713.33 305.48,711.94 300.34,702.52 		"/>
		<polygon class="st101" points="320.92,716.49 313.94,722.38 311.16,730.21 302.92,728.71 297.1,732.97 308.19,734.31 		"/>
		<polygon class="st102" points="317.4,701.11 327.92,713.11 307.9,735.91 297.1,732.97 308.19,734.31 320.92,716.49 317.91,713.33 
					"/>
		<polygon class="st103" points="305.48,711.94 317.91,713.33 320.92,716.49 313.94,722.38 297.48,718.23 		"/>
		<polygon class="st104" points="297.48,718.23 299.3,728.34 311.16,730.21 313.94,722.38 		"/>
		<polygon class="st105" points="302.69,728.87 298.14,732.21 294.27,731.51 294.1,725.56 298.39,723.28 299.3,728.34 		"/>
		<polygon class="st106" points="293.56,725.84 285.57,730.39 294.6,734.07 298.14,732.21 294.27,731.51 294.1,725.56 		"/>
		<polygon class="st106" points="292.07,701.01 295.78,707.27 286.53,714.98 291.26,721.99 285.57,730.39 293.56,725.84 
			294.63,722.12 293.45,720.06 297.91,715.83 296.67,711.4 297.75,709.18 299.98,709 297.37,707.56 297.74,705.5 		"/>
		<polygon class="st107" points="300.34,702.52 300.76,703.29 299.12,707.01 295.48,703.71 		"/>
	</g>
</g>
<g>
	<linearGradient id="SVGID_66_" gradientUnits="userSpaceOnUse" x1="239.3506" y1="766.3246" x2="333.9681" y2="766.3246">
		<stop  offset="0" style="stop-color:#4F52FF"/>
		<stop  offset="1" style="stop-color:#4042E2"/>
	</linearGradient>
	<path class="st108" d="M255.42,816.7h61.92l16.13-100.68c0.01-0.05-0.05-0.08-0.09-0.06c-1.06,0.76-9.93,6.74-29.53,9.54
		c-9.18,1.31-18.47,1.52-27.71,0.84c-12.09-0.89-30.89-2.97-36.04-9.96c-0.09-0.12-0.27-0.05-0.24,0.1L255.42,816.7z"/>
	<linearGradient id="SVGID_67_" gradientUnits="userSpaceOnUse" x1="241.3281" y1="732.9401" x2="331.7827" y2="732.9401">
		<stop  offset="0" style="stop-color:#4F52FF"/>
		<stop  offset="1" style="stop-color:#4042E2"/>
	</linearGradient>
	<path class="st109" d="M241.75,728.69c3.89,1.83,40.98,18.1,89.68-0.03"/>
	<linearGradient id="SVGID_68_" gradientUnits="userSpaceOnUse" x1="243.189" y1="744.1927" x2="329.9198" y2="744.1927">
		<stop  offset="0" style="stop-color:#4F52FF"/>
		<stop  offset="1" style="stop-color:#4042E2"/>
	</linearGradient>
	<path class="st110" d="M243.57,740.41c8.66,3.61,42.54,15.35,86.01-0.16"/>
	<linearGradient id="SVGID_69_" gradientUnits="userSpaceOnUse" x1="244.9755" y1="755.1899" x2="328.0868" y2="755.1899">
		<stop  offset="0" style="stop-color:#4F52FF"/>
		<stop  offset="1" style="stop-color:#4042E2"/>
	</linearGradient>
	<path class="st111" d="M245.33,751.8c10.71,4.11,42.35,13.45,82.43-0.23"/>
	<linearGradient id="SVGID_70_" gradientUnits="userSpaceOnUse" x1="246.7568" y1="766.1599" x2="326.2742" y2="766.1599">
		<stop  offset="0" style="stop-color:#4F52FF"/>
		<stop  offset="1" style="stop-color:#4042E2"/>
	</linearGradient>
	<path class="st112" d="M247.09,763.12c11.93,4.27,41.63,11.88,78.87-0.28"/>
	<linearGradient id="SVGID_71_" gradientUnits="userSpaceOnUse" x1="248.5264" y1="777.0977" x2="324.1638" y2="777.0977">
		<stop  offset="0" style="stop-color:#4F52FF"/>
		<stop  offset="1" style="stop-color:#4042E2"/>
	</linearGradient>
	<path class="st113" d="M248.84,774.4c12.7,4.25,40.61,10.5,75.31-0.31h0.01"/>
	<linearGradient id="SVGID_72_" gradientUnits="userSpaceOnUse" x1="250.2955" y1="788.0732" x2="322.6482" y2="788.0732">
		<stop  offset="0" style="stop-color:#4F52FF"/>
		<stop  offset="1" style="stop-color:#4042E2"/>
	</linearGradient>
	<path class="st114" d="M250.59,785.65c13.15,4.11,39.41,9.27,71.77-0.33"/>
	<linearGradient id="SVGID_73_" gradientUnits="userSpaceOnUse" x1="252.0526" y1="799.0095" x2="320.835" y2="799.0095">
		<stop  offset="0" style="stop-color:#4F52FF"/>
		<stop  offset="1" style="stop-color:#4042E2"/>
	</linearGradient>
	<path class="st115" d="M252.33,796.85c13.38,3.92,38.06,8.17,68.23-0.33"/>
	<linearGradient id="SVGID_74_" gradientUnits="userSpaceOnUse" x1="253.7997" y1="809.9243" x2="319.0319" y2="809.9243">
		<stop  offset="0" style="stop-color:#4F52FF"/>
		<stop  offset="1" style="stop-color:#4042E2"/>
	</linearGradient>
	<path class="st116" d="M254.06,808.02c13.44,3.68,36.6,7.17,64.71-0.34"/>
</g>
<line class="st117" x1="593.82" y1="244.86" x2="616.62" y2="244.86"/>
<line class="st117" x1="593.82" y1="250.32" x2="616.62" y2="250.32"/>
<line class="st117" x1="593.82" y1="255.78" x2="616.62" y2="255.78"/>
<line class="st117" x1="593.82" y1="261.24" x2="616.62" y2="261.24"/>
<line class="st117" x1="593.82" y1="266.7" x2="616.62" y2="266.7"/>
<path class="st118" d="M388.54,488.34h-73.64v0.7h73.83C388.66,488.81,388.6,488.58,388.54,488.34z"/>
<path class="st118" d="M388.54,488.34h-73.64v0.7h73.83C388.66,488.81,388.6,488.58,388.54,488.34z"/>
<path class="st118" d="M388.88,489.79h-73.99v0.7h74.12C388.98,490.25,388.92,490.02,388.88,489.79z"/>
<path class="st118" d="M388.88,489.79h-73.99v0.7h74.12C388.98,490.25,388.92,490.02,388.88,489.79z"/>
<path class="st118" d="M389.01,495.57h-74.12v0.7h73.99C388.92,496.04,388.98,495.81,389.01,495.57z"/>
<path class="st118" d="M389.01,495.57h-74.12v0.7h73.99C388.92,496.04,388.98,495.81,389.01,495.57z"/>
<path class="st118" d="M389.2,492.68h-74.3v0.7h74.3C389.2,493.15,389.2,492.91,389.2,492.68z"/>
<path class="st118" d="M389.2,492.68h-74.3v0.7h74.3C389.2,493.15,389.2,492.91,389.2,492.68z"/>
<path class="st118" d="M389.1,491.24h-74.21v0.7h74.28C389.15,491.7,389.13,491.47,389.1,491.24z"/>
<path class="st118" d="M389.1,491.24h-74.21v0.7h74.28C389.15,491.7,389.13,491.47,389.1,491.24z"/>
<path class="st118" d="M388.72,497.02h-73.83v0.7h73.64C388.6,497.48,388.66,497.25,388.72,497.02z"/>
<path class="st118" d="M388.72,497.02h-73.83v0.7h73.64C388.6,497.48,388.66,497.25,388.72,497.02z"/>
<path class="st118" d="M389.17,494.13h-74.28v0.7h74.21C389.13,494.59,389.15,494.36,389.17,494.13z"/>
<path class="st118" d="M389.17,494.13h-74.28v0.7h74.21C389.13,494.59,389.15,494.36,389.17,494.13z"/>
<path class="st119" d="M388.54,497.72h-73.64v0.37h73.54C388.47,497.97,388.5,497.84,388.54,497.72z"/>
<path class="st119" d="M388.54,497.72h-73.64v0.37h73.54C388.47,497.97,388.5,497.84,388.54,497.72z"/>
<path class="st119" d="M388.88,496.27h-73.99v0.75h73.83C388.78,496.77,388.83,496.52,388.88,496.27z"/>
<path class="st119" d="M388.88,496.27h-73.99v0.75h73.83C388.78,496.77,388.83,496.52,388.88,496.27z"/>
<path class="st119" d="M389.1,494.82h-74.21v0.75h74.12C389.05,495.32,389.07,495.07,389.1,494.82z"/>
<path class="st120" d="M389.1,494.82h-74.21v0.75h74.12C389.05,495.32,389.07,495.07,389.1,494.82z"/>
<path class="st119" d="M389.2,493.38h-74.3v0.75h74.28C389.18,493.88,389.19,493.63,389.2,493.38z"/>
<path class="st119" d="M389.2,493.38h-74.3v0.75h74.28C389.18,493.88,389.19,493.63,389.2,493.38z"/>
<path class="st119" d="M389.17,491.93h-74.28v0.75h74.3C389.19,492.43,389.18,492.18,389.17,491.93z"/>
<path class="st119" d="M389.17,491.93h-74.28v0.75h74.3C389.19,492.43,389.18,492.18,389.17,491.93z"/>
<path class="st119" d="M389.01,490.49h-74.12v0.75h74.21C389.07,490.99,389.05,490.74,389.01,490.49z"/>
<path class="st121" d="M389.01,490.49h-74.12v0.75h74.21C389.07,490.99,389.05,490.74,389.01,490.49z"/>
<path class="st119" d="M388.72,489.04h-73.83v0.75h73.99C388.83,489.54,388.78,489.29,388.72,489.04z"/>
<path class="st119" d="M388.72,489.04h-73.83v0.75h73.99C388.83,489.54,388.78,489.29,388.72,489.04z"/>
<path class="st119" d="M388.44,487.97h-73.54v0.38h73.64C388.5,488.22,388.47,488.09,388.44,487.97z"/>
<path class="st119" d="M388.44,487.97h-73.54v0.38h73.64C388.5,488.22,388.47,488.09,388.44,487.97z"/>
<path class="st122" d="M388.71,501.09c1.14,0,2.15-0.73,2.5-1.81c1.33-4.17,1.33-8.33,0-12.5c-0.35-1.08-1.36-1.81-2.5-1.81h-76.19
	v3h2.37h73.54c0.04,0.13,0.06,0.25,0.1,0.38c0.07,0.23,0.13,0.46,0.19,0.7c0.06,0.25,0.11,0.5,0.16,0.75
	c0.05,0.23,0.1,0.46,0.13,0.7c0.04,0.25,0.06,0.5,0.09,0.75c0.03,0.23,0.05,0.46,0.07,0.7c0.02,0.25,0.02,0.5,0.03,0.75
	c0,0.23,0,0.46,0,0.7c-0.01,0.25-0.01,0.5-0.03,0.75c-0.02,0.23-0.04,0.46-0.07,0.7c-0.03,0.25-0.05,0.5-0.09,0.75
	c-0.04,0.23-0.09,0.46-0.13,0.7c-0.05,0.25-0.1,0.5-0.16,0.75c-0.06,0.23-0.12,0.46-0.19,0.7c-0.04,0.13-0.06,0.25-0.1,0.37h-73.54
	h-2.37v3h70.9H388.71z"/>
<path class="st122" d="M388.71,501.09c1.14,0,2.15-0.73,2.5-1.81c1.33-4.17,1.33-8.33,0-12.5c-0.35-1.08-1.36-1.81-2.5-1.81h-76.19
	v3h2.37h73.54c0.04,0.13,0.06,0.25,0.1,0.38c0.07,0.23,0.13,0.46,0.19,0.7c0.06,0.25,0.11,0.5,0.16,0.75
	c0.05,0.23,0.1,0.46,0.13,0.7c0.04,0.25,0.06,0.5,0.09,0.75c0.03,0.23,0.05,0.46,0.07,0.7c0.02,0.25,0.02,0.5,0.03,0.75
	c0,0.23,0,0.46,0,0.7c-0.01,0.25-0.01,0.5-0.03,0.75c-0.02,0.23-0.04,0.46-0.07,0.7c-0.03,0.25-0.05,0.5-0.09,0.75
	c-0.04,0.23-0.09,0.46-0.13,0.7c-0.05,0.25-0.1,0.5-0.16,0.75c-0.06,0.23-0.12,0.46-0.19,0.7c-0.04,0.13-0.06,0.25-0.1,0.37h-73.54
	h-2.37v3h70.9H388.71z"/>
<path class="st118" d="M306.84,510.95h74.21v-0.7h-74.28C306.79,510.48,306.81,510.71,306.84,510.95z"/>
<path class="st118" d="M306.84,510.95h74.21v-0.7h-74.28C306.79,510.48,306.81,510.71,306.84,510.95z"/>
<path class="st118" d="M307.22,505.16h73.83v-0.7H307.4C307.34,504.7,307.27,504.93,307.22,505.16z"/>
<path class="st118" d="M307.22,505.16h73.83v-0.7H307.4C307.34,504.7,307.27,504.93,307.22,505.16z"/>
<path class="st118" d="M306.74,509.5h74.3v-0.7h-74.3C306.74,509.04,306.74,509.27,306.74,509.5z"/>
<path class="st118" d="M306.74,509.5h74.3v-0.7h-74.3C306.74,509.04,306.74,509.27,306.74,509.5z"/>
<path class="st118" d="M306.93,506.61h74.12v-0.7h-73.99C307.01,506.14,306.96,506.38,306.93,506.61z"/>
<path class="st118" d="M306.93,506.61h74.12v-0.7h-73.99C307.01,506.14,306.96,506.38,306.93,506.61z"/>
<path class="st118" d="M307.4,513.84h73.64v-0.7h-73.83C307.27,513.37,307.34,513.61,307.4,513.84z"/>
<path class="st118" d="M307.4,513.84h73.64v-0.7h-73.83C307.27,513.37,307.34,513.61,307.4,513.84z"/>
<path class="st118" d="M307.06,512.39h73.99v-0.7h-74.12C306.96,511.93,307.01,512.16,307.06,512.39z"/>
<path class="st118" d="M307.06,512.39h73.99v-0.7h-74.12C306.96,511.93,307.01,512.16,307.06,512.39z"/>
<path class="st118" d="M306.77,508.05h74.28v-0.7h-74.21C306.81,507.59,306.79,507.82,306.77,508.05z"/>
<path class="st118" d="M306.77,508.05h74.28v-0.7h-74.21C306.81,507.59,306.79,507.82,306.77,508.05z"/>
<path class="st119" d="M307.5,514.21h73.54v-0.37H307.4C307.44,513.96,307.46,514.09,307.5,514.21z"/>
<path class="st119" d="M307.5,514.21h73.54v-0.37H307.4C307.44,513.96,307.46,514.09,307.5,514.21z"/>
<path class="st119" d="M307.22,513.14h73.83v-0.75h-73.99C307.11,512.64,307.16,512.89,307.22,513.14z"/>
<path class="st119" d="M307.22,513.14h73.83v-0.75h-73.99C307.11,512.64,307.16,512.89,307.22,513.14z"/>
<path class="st119" d="M306.93,511.7h74.12v-0.75h-74.21C306.87,511.2,306.89,511.45,306.93,511.7z"/>
<path class="st123" d="M306.93,511.7h74.12v-0.75h-74.21C306.87,511.2,306.89,511.45,306.93,511.7z"/>
<path class="st119" d="M306.77,510.25h74.28v-0.75h-74.3C306.75,509.75,306.75,510,306.77,510.25z"/>
<path class="st119" d="M306.77,510.25h74.28v-0.75h-74.3C306.75,509.75,306.75,510,306.77,510.25z"/>
<path class="st119" d="M306.74,508.8h74.3v-0.75h-74.28C306.75,508.3,306.75,508.55,306.74,508.8z"/>
<path class="st119" d="M306.74,508.8h74.3v-0.75h-74.28C306.75,508.3,306.75,508.55,306.74,508.8z"/>
<path class="st119" d="M306.84,507.36h74.21v-0.75h-74.12C306.89,506.86,306.87,507.11,306.84,507.36z"/>
<path class="st119" d="M306.84,507.36h74.21v-0.75h-74.12C306.89,506.86,306.87,507.11,306.84,507.36z"/>
<path class="st119" d="M307.06,505.91h73.99v-0.75h-73.83C307.16,505.41,307.11,505.66,307.06,505.91z"/>
<path class="st124" d="M307.06,505.91h73.99v-0.75h-73.83C307.16,505.41,307.11,505.66,307.06,505.91z"/>
<path class="st119" d="M307.4,504.47h73.64v-0.38H307.5C307.46,504.22,307.44,504.34,307.4,504.47z"/>
<path class="st119" d="M307.4,504.47h73.64v-0.38H307.5C307.46,504.22,307.44,504.34,307.4,504.47z"/>
<path class="st125" d="M383.42,514.21h-2.37H307.5c-0.04-0.13-0.06-0.25-0.1-0.37c-0.07-0.23-0.13-0.46-0.19-0.7
	c-0.06-0.25-0.11-0.5-0.16-0.75c-0.05-0.23-0.1-0.46-0.13-0.7c-0.04-0.25-0.06-0.5-0.09-0.75c-0.03-0.23-0.05-0.46-0.07-0.7
	c-0.02-0.25-0.02-0.5-0.03-0.75c0-0.23,0-0.46,0-0.7c0.01-0.25,0.01-0.5,0.03-0.75c0.02-0.23,0.04-0.46,0.07-0.7
	c0.03-0.25,0.05-0.5,0.09-0.75c0.04-0.23,0.09-0.46,0.13-0.7c0.05-0.25,0.1-0.5,0.16-0.75c0.06-0.23,0.12-0.46,0.19-0.7
	c0.04-0.13,0.06-0.25,0.1-0.38h73.54h2.37v-3h-70.9h-5.29c-1.14,0-2.15,0.73-2.5,1.81c-1.33,4.17-1.33,8.33,0,12.5
	c0.35,1.08,1.36,1.81,2.5,1.81h76.19V514.21z"/>
<path class="st125" d="M383.42,514.21h-2.37H307.5c-0.04-0.13-0.06-0.25-0.1-0.37c-0.07-0.23-0.13-0.46-0.19-0.7
	c-0.06-0.25-0.11-0.5-0.16-0.75c-0.05-0.23-0.1-0.46-0.13-0.7c-0.04-0.25-0.06-0.5-0.09-0.75c-0.03-0.23-0.05-0.46-0.07-0.7
	c-0.02-0.25-0.02-0.5-0.03-0.75c0-0.23,0-0.46,0-0.7c0.01-0.25,0.01-0.5,0.03-0.75c0.02-0.23,0.04-0.46,0.07-0.7
	c0.03-0.25,0.05-0.5,0.09-0.75c0.04-0.23,0.09-0.46,0.13-0.7c0.05-0.25,0.1-0.5,0.16-0.75c0.06-0.23,0.12-0.46,0.19-0.7
	c0.04-0.13,0.06-0.25,0.1-0.38h73.54h2.37v-3h-70.9h-5.29c-1.14,0-2.15,0.73-2.5,1.81c-1.33,4.17-1.33,8.33,0,12.5
	c0.35,1.08,1.36,1.81,2.5,1.81h76.19V514.21z"/>
<path class="st118" d="M382.59,464.76h-69.75v0.7h69.56C382.47,465.23,382.54,465,382.59,464.76z"/>
<path class="st118" d="M382.59,464.76h-69.75v0.7h69.56C382.47,465.23,382.54,465,382.59,464.76z"/>
<path class="st118" d="M382.97,458.98h-70.12v0.7h70.19C383.03,459.44,383,459.21,382.97,458.98z"/>
<path class="st118" d="M382.97,458.98h-70.12v0.7h70.19C383.03,459.44,383,459.21,382.97,458.98z"/>
<path class="st118" d="M383.07,460.43h-70.22v0.7h70.22C383.08,460.89,383.08,460.66,383.07,460.43z"/>
<path class="st118" d="M383.07,460.43h-70.22v0.7h70.22C383.08,460.89,383.08,460.66,383.07,460.43z"/>
<path class="st118" d="M382.75,457.53h-69.9v0.7h70.04C382.85,458,382.8,457.77,382.75,457.53z"/>
<path class="st118" d="M382.75,457.53h-69.9v0.7h70.04C382.85,458,382.8,457.77,382.75,457.53z"/>
<path class="st118" d="M383.04,461.87h-70.19v0.7h70.12C383,462.34,383.03,462.1,383.04,461.87z"/>
<path class="st118" d="M383.04,461.87h-70.19v0.7h70.12C383,462.34,383.03,462.1,383.04,461.87z"/>
<path class="st118" d="M382.89,463.32h-70.04v0.7h69.9C382.8,463.78,382.85,463.55,382.89,463.32z"/>
<path class="st118" d="M382.89,463.32h-70.04v0.7h69.9C382.8,463.78,382.85,463.55,382.89,463.32z"/>
<path class="st118" d="M382.41,456.09h-69.56v0.7h69.75C382.54,456.55,382.47,456.32,382.41,456.09z"/>
<path class="st118" d="M382.41,456.09h-69.56v0.7h69.75C382.54,456.55,382.47,456.32,382.41,456.09z"/>
<path class="st119" d="M382.41,465.46h-69.56v0.37h69.46C382.35,465.71,382.37,465.59,382.41,465.46z"/>
<path class="st119" d="M382.41,465.46h-69.56v0.37h69.46C382.35,465.71,382.37,465.59,382.41,465.46z"/>
<path class="st119" d="M382.75,464.01h-69.9v0.75h69.75C382.65,464.51,382.7,464.26,382.75,464.01z"/>
<path class="st119" d="M382.75,464.01h-69.9v0.75h69.75C382.65,464.51,382.7,464.26,382.75,464.01z"/>
<path class="st119" d="M382.97,462.57h-70.12v0.75h70.04C382.92,463.07,382.95,462.82,382.97,462.57z"/>
<path class="st126" d="M382.97,462.57h-70.12v0.75h70.04C382.92,463.07,382.95,462.82,382.97,462.57z"/>
<path class="st119" d="M383.07,461.12h-70.22v0.75h70.19C383.06,461.62,383.06,461.37,383.07,461.12z"/>
<path class="st119" d="M383.07,461.12h-70.22v0.75h70.19C383.06,461.62,383.06,461.37,383.07,461.12z"/>
<path class="st119" d="M383.04,459.68h-70.19v0.75h70.22C383.06,460.18,383.06,459.93,383.04,459.68z"/>
<path class="st119" d="M383.04,459.68h-70.19v0.75h70.22C383.06,460.18,383.06,459.93,383.04,459.68z"/>
<path class="st119" d="M382.89,458.23h-70.04v0.75h70.12C382.95,458.73,382.92,458.48,382.89,458.23z"/>
<path class="st127" d="M382.89,458.23h-70.04v0.75h70.12C382.95,458.73,382.92,458.48,382.89,458.23z"/>
<path class="st119" d="M382.59,456.78h-69.75v0.75h69.9C382.7,457.28,382.66,457.03,382.59,456.78z"/>
<path class="st119" d="M382.59,456.78h-69.75v0.75h69.9C382.7,457.28,382.66,457.03,382.59,456.78z"/>
<path class="st119" d="M382.31,455.71h-69.46v0.37h69.56C382.37,455.96,382.35,455.84,382.31,455.71z"/>
<path class="st119" d="M382.31,455.71h-69.46v0.37h69.56C382.37,455.96,382.35,455.84,382.31,455.71z"/>
<path class="st128" d="M310.47,452.71v3h2.37h69.46c0.04,0.13,0.06,0.25,0.1,0.37c0.07,0.23,0.13,0.46,0.19,0.7
	c0.06,0.25,0.11,0.5,0.16,0.75c0.05,0.23,0.1,0.46,0.13,0.7c0.04,0.25,0.06,0.5,0.09,0.75c0.03,0.23,0.05,0.46,0.07,0.7
	c0.02,0.25,0.02,0.5,0.03,0.75c0,0.23,0,0.46,0,0.7c-0.01,0.25-0.01,0.5-0.03,0.75c-0.02,0.23-0.04,0.46-0.07,0.7
	c-0.03,0.25-0.05,0.5-0.09,0.75c-0.04,0.23-0.09,0.46-0.13,0.7c-0.05,0.25-0.1,0.5-0.16,0.75c-0.06,0.23-0.12,0.46-0.19,0.7
	c-0.04,0.13-0.06,0.25-0.1,0.37h-69.46h-2.37v3h72.11c1.14,0,2.15-0.73,2.5-1.81c1.33-4.17,1.33-8.33,0-12.5
	c-0.35-1.08-1.36-1.81-2.5-1.81h-50.77H310.47z"/>
<path class="st128" d="M310.47,452.71v3h2.37h69.46c0.04,0.13,0.06,0.25,0.1,0.37c0.07,0.23,0.13,0.46,0.19,0.7
	c0.06,0.25,0.11,0.5,0.16,0.75c0.05,0.23,0.1,0.46,0.13,0.7c0.04,0.25,0.06,0.5,0.09,0.75c0.03,0.23,0.05,0.46,0.07,0.7
	c0.02,0.25,0.02,0.5,0.03,0.75c0,0.23,0,0.46,0,0.7c-0.01,0.25-0.01,0.5-0.03,0.75c-0.02,0.23-0.04,0.46-0.07,0.7
	c-0.03,0.25-0.05,0.5-0.09,0.75c-0.04,0.23-0.09,0.46-0.13,0.7c-0.05,0.25-0.1,0.5-0.16,0.75c-0.06,0.23-0.12,0.46-0.19,0.7
	c-0.04,0.13-0.06,0.25-0.1,0.37h-69.46h-2.37v3h72.11c1.14,0,2.15-0.73,2.5-1.81c1.33-4.17,1.33-8.33,0-12.5
	c-0.35-1.08-1.36-1.81-2.5-1.81h-50.77H310.47z"/>
<path class="st118" d="M306.74,477.25h70.22v-0.7h-70.22C306.74,476.78,306.74,477.01,306.74,477.25z"/>
<path class="st118" d="M306.74,477.25h70.22v-0.7h-70.22C306.74,476.78,306.74,477.01,306.74,477.25z"/>
<path class="st118" d="M307.22,472.91h69.75v-0.7H307.4C307.34,472.44,307.27,472.68,307.22,472.91z"/>
<path class="st118" d="M307.22,472.91h69.75v-0.7H307.4C307.34,472.44,307.27,472.68,307.22,472.91z"/>
<path class="st118" d="M306.77,475.8h70.19v-0.7h-70.12C306.81,475.34,306.79,475.57,306.77,475.8z"/>
<path class="st118" d="M306.77,475.8h70.19v-0.7h-70.12C306.81,475.34,306.79,475.57,306.77,475.8z"/>
<path class="st118" d="M306.93,474.35h70.04v-0.7h-69.9C307.01,473.89,306.96,474.12,306.93,474.35z"/>
<path class="st118" d="M306.93,474.35h70.04v-0.7h-69.9C307.01,473.89,306.96,474.12,306.93,474.35z"/>
<path class="st118" d="M307.4,481.58h69.56v-0.7h-69.75C307.27,481.12,307.34,481.35,307.4,481.58z"/>
<path class="st118" d="M307.4,481.58h69.56v-0.7h-69.75C307.27,481.12,307.34,481.35,307.4,481.58z"/>
<path class="st118" d="M307.06,480.14h69.9v-0.7h-70.04C306.96,479.67,307.01,479.91,307.06,480.14z"/>
<path class="st118" d="M307.06,480.14h69.9v-0.7h-70.04C306.96,479.67,307.01,479.91,307.06,480.14z"/>
<path class="st118" d="M306.84,478.69h70.12V478h-70.19C306.79,478.23,306.81,478.46,306.84,478.69z"/>
<path class="st118" d="M306.84,478.69h70.12V478h-70.19C306.79,478.23,306.81,478.46,306.84,478.69z"/>
<path class="st119" d="M307.5,481.96h69.46v-0.37H307.4C307.44,481.71,307.46,481.83,307.5,481.96z"/>
<path class="st119" d="M307.5,481.96h69.46v-0.37H307.4C307.44,481.71,307.46,481.83,307.5,481.96z"/>
<path class="st119" d="M307.22,480.89h69.75v-0.75h-69.9C307.11,480.39,307.16,480.64,307.22,480.89z"/>
<path class="st119" d="M307.22,480.89h69.75v-0.75h-69.9C307.11,480.39,307.16,480.64,307.22,480.89z"/>
<path class="st119" d="M306.93,479.44h70.04v-0.75h-70.12C306.87,478.94,306.89,479.19,306.93,479.44z"/>
<path class="st129" d="M306.93,479.44h70.04v-0.75h-70.12C306.87,478.94,306.89,479.19,306.93,479.44z"/>
<path class="st119" d="M306.77,478h70.19v-0.75h-70.22C306.75,477.5,306.75,477.75,306.77,478z"/>
<path class="st119" d="M306.77,478h70.19v-0.75h-70.22C306.75,477.5,306.75,477.75,306.77,478z"/>
<path class="st119" d="M306.74,476.55h70.22v-0.75h-70.19C306.75,476.05,306.75,476.3,306.74,476.55z"/>
<path class="st119" d="M306.74,476.55h70.22v-0.75h-70.19C306.75,476.05,306.75,476.3,306.74,476.55z"/>
<path class="st119" d="M306.84,475.1h70.12v-0.75h-70.04C306.89,474.6,306.87,474.85,306.84,475.1z"/>
<path class="st120" d="M306.84,475.1h70.12v-0.75h-70.04C306.89,474.6,306.87,474.85,306.84,475.1z"/>
<path class="st119" d="M307.06,473.66h69.9v-0.75h-69.75C307.16,473.16,307.11,473.41,307.06,473.66z"/>
<path class="st119" d="M307.06,473.66h69.9v-0.75h-69.75C307.16,473.16,307.11,473.41,307.06,473.66z"/>
<path class="st119" d="M307.4,472.21h69.56v-0.37H307.5C307.46,471.96,307.44,472.09,307.4,472.21z"/>
<path class="st119" d="M307.4,472.21h69.56v-0.37H307.5C307.46,471.96,307.44,472.09,307.4,472.21z"/>
<path class="st130" d="M307.23,484.96h72.11v-3h-2.37H307.5c-0.04-0.13-0.06-0.25-0.1-0.37c-0.07-0.23-0.13-0.46-0.19-0.7
	c-0.06-0.25-0.11-0.5-0.16-0.75c-0.05-0.23-0.1-0.46-0.13-0.7c-0.04-0.25-0.06-0.5-0.09-0.75c-0.03-0.23-0.05-0.46-0.07-0.7
	c-0.02-0.25-0.02-0.5-0.03-0.75c0-0.23,0-0.46,0-0.7c0.01-0.25,0.01-0.5,0.03-0.75c0.02-0.23,0.04-0.46,0.07-0.7
	c0.03-0.25,0.05-0.5,0.09-0.75c0.04-0.23,0.09-0.46,0.13-0.7c0.05-0.25,0.1-0.5,0.16-0.75c0.06-0.23,0.12-0.46,0.19-0.7
	c0.04-0.13,0.06-0.25,0.1-0.37h69.46h2.37v-3h-72.11c-1.14,0-2.15,0.73-2.5,1.81c-1.33,4.17-1.33,8.33,0,12.5
	C305.08,484.23,306.09,484.96,307.23,484.96z"/>
<path class="st130" d="M307.23,484.96h72.11v-3h-2.37H307.5c-0.04-0.13-0.06-0.25-0.1-0.37c-0.07-0.23-0.13-0.46-0.19-0.7
	c-0.06-0.25-0.11-0.5-0.16-0.75c-0.05-0.23-0.1-0.46-0.13-0.7c-0.04-0.25-0.06-0.5-0.09-0.75c-0.03-0.23-0.05-0.46-0.07-0.7
	c-0.02-0.25-0.02-0.5-0.03-0.75c0-0.23,0-0.46,0-0.7c0.01-0.25,0.01-0.5,0.03-0.75c0.02-0.23,0.04-0.46,0.07-0.7
	c0.03-0.25,0.05-0.5,0.09-0.75c0.04-0.23,0.09-0.46,0.13-0.7c0.05-0.25,0.1-0.5,0.16-0.75c0.06-0.23,0.12-0.46,0.19-0.7
	c0.04-0.13,0.06-0.25,0.1-0.37h69.46h2.37v-3h-72.11c-1.14,0-2.15,0.73-2.5,1.81c-1.33,4.17-1.33,8.33,0,12.5
	C305.08,484.23,306.09,484.96,307.23,484.96z"/>
<path class="st118" d="M398.82,510.92h69.94v-0.69h-70.01C398.76,510.46,398.79,510.69,398.82,510.92z"/>
<path class="st118" d="M398.82,510.92h69.94v-0.69h-70.01C398.76,510.46,398.79,510.69,398.82,510.92z"/>
<path class="st118" d="M398.72,509.48h70.04v-0.69h-70.04C398.71,509.02,398.71,509.25,398.72,509.48z"/>
<path class="st118" d="M398.72,509.48h70.04v-0.69h-70.04C398.71,509.02,398.71,509.25,398.72,509.48z"/>
<path class="st118" d="M399.19,505.16h69.56v-0.69h-69.38C399.31,504.69,399.25,504.92,399.19,505.16z"/>
<path class="st118" d="M399.19,505.16h69.56v-0.69h-69.38C399.31,504.69,399.25,504.92,399.19,505.16z"/>
<path class="st118" d="M398.9,506.6h69.85v-0.69h-69.72C398.99,506.13,398.94,506.37,398.9,506.6z"/>
<path class="st118" d="M398.9,506.6h69.85v-0.69h-69.72C398.99,506.13,398.94,506.37,398.9,506.6z"/>
<path class="st118" d="M399.38,513.81h69.38v-0.69h-69.56C399.25,513.35,399.31,513.58,399.38,513.81z"/>
<path class="st118" d="M399.38,513.81h69.38v-0.69h-69.56C399.25,513.35,399.31,513.58,399.38,513.81z"/>
<path class="st118" d="M399.04,512.37h69.72v-0.69H398.9C398.94,511.9,398.99,512.14,399.04,512.37z"/>
<path class="st118" d="M399.04,512.37h69.72v-0.69H398.9C398.94,511.9,398.99,512.14,399.04,512.37z"/>
<path class="st118" d="M398.75,508.04h70.01v-0.69h-69.94C398.79,507.58,398.76,507.81,398.75,508.04z"/>
<path class="st118" d="M398.75,508.04h70.01v-0.69h-69.94C398.79,507.58,398.76,507.81,398.75,508.04z"/>
<path class="st119" d="M399.38,513.81c0.04,0.12,0.06,0.25,0.1,0.37h69.28v-0.37H399.38z"/>
<path class="st119" d="M399.38,513.81c0.04,0.12,0.06,0.25,0.1,0.37h69.28v-0.37H399.38z"/>
<path class="st119" d="M399.19,513.11h69.56v-0.75h-69.72C399.08,512.62,399.13,512.86,399.19,513.11z"/>
<path class="st119" d="M399.19,513.11h69.56v-0.75h-69.72C399.08,512.62,399.13,512.86,399.19,513.11z"/>
<path class="st119" d="M398.9,511.67h69.85v-0.75h-69.94C398.84,511.17,398.86,511.42,398.9,511.67z"/>
<path class="st127" d="M398.9,511.67h69.85v-0.75h-69.94C398.84,511.17,398.86,511.42,398.9,511.67z"/>
<path class="st119" d="M398.75,510.23h70.01v-0.75h-70.04C398.72,509.73,398.73,509.98,398.75,510.23z"/>
<path class="st119" d="M398.75,510.23h70.01v-0.75h-70.04C398.72,509.73,398.73,509.98,398.75,510.23z"/>
<path class="st119" d="M398.72,508.79h70.04v-0.75h-70.01C398.73,508.29,398.72,508.54,398.72,508.79z"/>
<path class="st119" d="M398.72,508.79h70.04v-0.75h-70.01C398.73,508.29,398.72,508.54,398.72,508.79z"/>
<path class="st119" d="M398.82,507.35h69.94v-0.75H398.9C398.86,506.85,398.84,507.1,398.82,507.35z"/>
<path class="st131" d="M398.82,507.35h69.94v-0.75H398.9C398.86,506.85,398.84,507.1,398.82,507.35z"/>
<path class="st119" d="M399.04,505.9h69.72v-0.75h-69.56C399.13,505.41,399.08,505.65,399.04,505.9z"/>
<path class="st119" d="M399.04,505.9h69.72v-0.75h-69.56C399.13,505.41,399.08,505.65,399.04,505.9z"/>
<path class="st119" d="M399.38,504.46h69.38v-0.37h-69.28C399.44,504.21,399.41,504.34,399.38,504.46z"/>
<path class="st119" d="M399.38,504.46h69.38v-0.37h-69.28C399.44,504.21,399.41,504.34,399.38,504.46z"/>
<path class="st132" d="M399.38,513.81c-0.07-0.23-0.13-0.46-0.18-0.69c-0.06-0.25-0.11-0.5-0.16-0.75c-0.05-0.23-0.1-0.46-0.13-0.69
	c-0.04-0.25-0.06-0.5-0.09-0.75c-0.03-0.23-0.05-0.46-0.07-0.69c-0.02-0.25-0.02-0.5-0.03-0.75c0-0.23,0-0.46,0-0.69
	c0.01-0.25,0.01-0.5,0.03-0.75c0.02-0.23,0.04-0.46,0.07-0.69c0.03-0.25,0.05-0.5,0.09-0.75c0.04-0.23,0.09-0.46,0.13-0.69
	c0.05-0.25,0.1-0.5,0.16-0.75c0.06-0.23,0.12-0.46,0.18-0.69c0.04-0.12,0.06-0.25,0.1-0.37h69.28h2.37v-2.99H399.2
	c-1.13,0-2.15,0.73-2.49,1.81c-1.33,4.16-1.33,8.31,0,12.47c0.34,1.08,1.36,1.81,2.49,1.81h50.64h21.28v-2.99h-2.37h-69.28
	C399.44,514.06,399.41,513.93,399.38,513.81z"/>
<path class="st132" d="M399.38,513.81c-0.07-0.23-0.13-0.46-0.18-0.69c-0.06-0.25-0.11-0.5-0.16-0.75c-0.05-0.23-0.1-0.46-0.13-0.69
	c-0.04-0.25-0.06-0.5-0.09-0.75c-0.03-0.23-0.05-0.46-0.07-0.69c-0.02-0.25-0.02-0.5-0.03-0.75c0-0.23,0-0.46,0-0.69
	c0.01-0.25,0.01-0.5,0.03-0.75c0.02-0.23,0.04-0.46,0.07-0.69c0.03-0.25,0.05-0.5,0.09-0.75c0.04-0.23,0.09-0.46,0.13-0.69
	c0.05-0.25,0.1-0.5,0.16-0.75c0.06-0.23,0.12-0.46,0.18-0.69c0.04-0.12,0.06-0.25,0.1-0.37h69.28h2.37v-2.99H399.2
	c-1.13,0-2.15,0.73-2.49,1.81c-1.33,4.16-1.33,8.31,0,12.47c0.34,1.08,1.36,1.81,2.49,1.81h50.64h21.28v-2.99h-2.37h-69.28
	C399.44,514.06,399.41,513.93,399.38,513.81z"/>
<g>
	
		<use xlink:href="#Daisy"  width="47.36" height="47.37" x="-23.68" y="-23.68" transform="matrix(0.1403 0 0 -0.1403 719.5217 479.4405)" style="overflow:visible;"/>
	
		<use xlink:href="#Daisy"  width="47.36" height="47.37" x="-23.68" y="-23.68" transform="matrix(0.1403 0 0 -0.1403 773.0571 440.735)" style="overflow:visible;"/>
	
		<use xlink:href="#Daisy"  width="47.36" height="47.37" x="-23.68" y="-23.68" transform="matrix(0.1403 0 0 -0.1403 789.8595 504.1009)" style="overflow:visible;"/>
	
		<use xlink:href="#Daisy"  width="47.36" height="47.37" x="-23.68" y="-23.68" transform="matrix(0.1403 0 0 -0.1403 702.4747 536.6758)" style="overflow:visible;"/>
	
		<use xlink:href="#Daisy"  width="47.36" height="47.37" x="-23.68" y="-23.68" transform="matrix(0.1403 0 0 -0.1403 830.1201 499.8852)" style="overflow:visible;"/>
	
		<use xlink:href="#Daisy"  width="47.36" height="47.37" x="-23.68" y="-23.68" transform="matrix(0.1403 0 0 -0.1403 835.2485 452.5309)" style="overflow:visible;"/>
	
		<use xlink:href="#Daisy"  width="47.36" height="47.37" x="-23.68" y="-23.68" transform="matrix(0.1403 0 0 -0.1403 804.3547 405.9108)" style="overflow:visible;"/>
	
		<use xlink:href="#Daisy"  width="47.36" height="47.37" x="-23.68" y="-23.68" transform="matrix(0.1403 0 0 -0.1403 681.1395 417.1609)" style="overflow:visible;"/>
	
		<use xlink:href="#Daisy"  width="47.36" height="47.37" x="-23.68" y="-23.68" transform="matrix(0.1403 0 0 -0.1403 641.9455 478.9696)" style="overflow:visible;"/>
	
		<use xlink:href="#Daisy"  width="47.36" height="47.37" x="-23.68" y="-23.68" transform="matrix(0.1403 0 0 -0.1403 597.8947 501.3109)" style="overflow:visible;"/>
	
		<use xlink:href="#Daisy"  width="47.36" height="47.37" x="-23.68" y="-23.68" transform="matrix(0.1403 0 0 -0.1403 578.8736 437.4108)" style="overflow:visible;"/>
</g>
<circle class="st25" cx="736.72" cy="811.15" r="4.34"/>
<circle class="st25" cx="790.08" cy="811.15" r="4.34"/>
<path class="st65" d="M557.18,348.58c-0.84-0.14-1.42-0.6-1.95-1c-0.97-0.74-1.53-1.92-1.68-3.16c-0.2-1.72-0.42-3.6,0.15-5.28
	c0.45-1.32,1.47-2.51,2.8-2.77c1.33-0.26,2.87,0.67,3.01,2.07c-0.68-2.27-0.1-4.9,1.47-6.63c1.18-1.31,3.02-2.1,4.68-1.61
	c1.66,0.49,3.09,2.01,2.39,3.64c1.24-3.06,3.7-4.92,6.82-5.71c1.99-0.51,4.28-0.33,5.84,1.05c1.56,1.38,1.98,4.16,0.5,5.63
	c1.53-1.36,3.61-2.05,5.63-1.87s3.95,1.23,5.23,2.84c1,1.26,1.62,2.91,1.37,4.52c-0.25,1.61-1.52,3.08-3.08,3.23
	c1.67,0.21,2.88,2.09,2.63,3.8c-0.25,1.72-1.75,3.09-3.41,3.38c-1.66,0.29-3.39-0.38-4.64-1.55c-1.25-1.16-2.06-2.77-2.53-4.43
	c-1.67,2.98-4.95,5.29-8.26,4.82c-3.3-0.47-6.73-2.53-7.56-5.87C564.46,347.83,561.66,349.41,557.18,348.58"/>
<g>
	<path d="M564.74,351.8c1.34-0.39,2.67-0.48,4.01-0.5c1.34,0.01,2.67,0.1,4.01,0.5c-1.34,0.4-2.67,0.49-4.01,0.5
		C567.41,352.28,566.08,352.19,564.74,351.8z"/>
</g>
<g>
	<path d="M578.51,351.8c1.34-0.39,2.67-0.48,4.01-0.5c1.34,0.01,2.67,0.1,4.01,0.5c-1.34,0.4-2.67,0.49-4.01,0.5
		C581.18,352.28,579.85,352.19,578.51,351.8z"/>
</g>
<path class="st133" d="M514.84,481.38c5.99,4.08,10.57,9.98,13.9,16.41s6.83,11.06,8.64,18.07c-4.33-13.78-5.65-26.28-3.13-40.97
	c-4.01-0.11-8.6-0.11-12.76,0c-4.81,0.12-8-0.06-11.97,0c-3.96,0.06-7.11-0.12-11.07-0.07c-0.21,0-2.19-0.15-2.2,0.04
	c-0.03,0.29,0.12,1.22,0.24,1.27c0.2,0.1,1.13-0.09,1.47-0.09c0.43-0.01,0.85,0,1.28,0.01c1.7,0.06,3.4,0.29,5.06,0.67
	c3.35,0.76,6.55,2.12,9.46,3.94C514.12,480.91,514.48,481.14,514.84,481.38z"/>
<linearGradient id="SVGID_75_" gradientUnits="userSpaceOnUse" x1="691.2471" y1="576.4088" x2="843.8904" y2="576.4088">
	<stop  offset="0" style="stop-color:#7D97F4"/>
	<stop  offset="1" style="stop-color:#7479F4"/>
</linearGradient>
<path class="st134" d="M802.3,634.66H696.9c-0.52,0-2.39-0.03-2.88,0c-4.4,0.23-2.48-4.11-1.56-6.74l36.5-104.63
	c0-2.83,2.25-5.14,5-5.14h104.93c2.75,0,5,2.31,5,5.14L807.3,629.52C805.74,633.31,805.05,634.66,802.3,634.66z"/>
<g>
	<path class="st135" d="M740.4,317.68c0,0,6.34,2.1,13.39,8.63"/>
	<path class="st136" d="M740.4,317.68c1.4,0.06,2.74,0.46,4.01,0.97c1.27,0.51,2.49,1.14,3.63,1.89c1.14,0.76,2.21,1.6,3.18,2.57
		c0.98,0.95,1.86,2.01,2.57,3.21c-1.27-0.59-2.4-1.29-3.53-1.98c-1.11-0.71-2.23-1.39-3.31-2.12
		C744.76,320.76,742.61,319.35,740.4,317.68z"/>
</g>
</svg>
