<?xml version="1.0" encoding="UTF-8"?>
<!DOCTYPE svg PUBLIC "-//W3C//DTD SVG 1.1//EN" "http://www.w3.org/Graphics/SVG/1.1/DTD/svg11.dtd">
<!-- Creator: CorelDRAW 2019 (64-Bit) -->
<svg xmlns="http://www.w3.org/2000/svg" xml:space="preserve" width="4.4427in" height="2.42395in" version="1.1" style="shape-rendering:geometricPrecision; text-rendering:geometricPrecision; image-rendering:optimizeQuality; fill-rule:evenodd; clip-rule:evenodd"
viewBox="0 0 2318.79 1265.14"
 xmlns:xlink="http://www.w3.org/1999/xlink">
 <defs>
  <style type="text/css">
   <![CDATA[
    .str0 {stroke:#E7EAF3;stroke-width:5.44;stroke-miterlimit:2.61313}
    .fil2 {fill:none}
    .fil3 {fill:white}
    .fil8 {fill:#AFF9F9;fill-rule:nonzero}
    .fil5 {fill:#3A350C;fill-opacity:0.090196}
    .fil0 {fill:url(#id1)}
    .fil1 {fill:url(#id2)}
    .fil4 {fill:url(#id3)}
    .fil6 {fill:url(#id4)}
    .fil7 {fill:url(#id5)}
   ]]>
  </style>
   <clipPath id="id0">
    <path d="M-0 1265.14l2318.79 0 0 -1265.14 -2318.79 0 0 1265.14z"/>
   </clipPath>
  <linearGradient id="id1" gradientUnits="userSpaceOnUse" x1="-0" y1="701.34" x2="3050.03" y2="1402.69">
   <stop offset="0" style="stop-opacity:0; stop-color:#2D1582"/>
   <stop offset="0.101961" style="stop-opacity:0.0784314; stop-color:#231E73"/>
   <stop offset="0.258824" style="stop-opacity:0.207843; stop-color:#162960"/>
   <stop offset="0.380392" style="stop-opacity:0.301961; stop-color:#112D59"/>
   <stop offset="1" style="stop-opacity:1; stop-color:#112D59"/>
  </linearGradient>
  <linearGradient id="id2" gradientUnits="userSpaceOnUse" x1="235.53" y1="1032.99" x2="1636.49" y2="1032.99">
   <stop offset="0" style="stop-opacity:1; stop-color:#1F6CDD"/>
   <stop offset="1" style="stop-opacity:1; stop-color:#0E39A1"/>
  </linearGradient>
  <linearGradient id="id3" gradientUnits="userSpaceOnUse" x1="255.53" y1="723.09" x2="3109.84" y2="723.09">
   <stop offset="0" style="stop-opacity:1; stop-color:#0079DD"/>
   <stop offset="1" style="stop-opacity:1; stop-color:#0E39A1"/>
  </linearGradient>
  <linearGradient id="id4" gradientUnits="userSpaceOnUse" x1="1321.14" y1="-168.27" x2="1288.52" y2="415.94">
   <stop offset="0" style="stop-opacity:1; stop-color:#377DFF"/>
   <stop offset="1" style="stop-opacity:1; stop-color:#47DDFC"/>
  </linearGradient>
  <linearGradient id="id5" gradientUnits="userSpaceOnUse" xlink:href="#id4" x1="1342.88" y1="-124.88" x2="1321.14" y2="271.69">
  </linearGradient>
 </defs>
 <g id="Layer_x0020_1">
  <metadata id="CorelCorpID_0Corel-Layer"/>
  <g>
  </g>
  <g style="clip-path:url(#id0)">
   <g>
    <polygon class="fil0" points="1593.52,181.59 3031.55,1497.83 1485.33,1934.41 16.85,629.58 "/>
    <path class="fil1" d="M219.64 475.72c0,0 -30.99,-82.64 36.43,-159.3l1381.49 1284.71c0,0 -65.79,62.52 -36.43,159.3l-1381.49 -1284.71z"/>
    <line class="fil2 str0" x1="1609.29" y1="1651.15" x2="3082.11" y2= "1198.81" />
    <line class="fil2 str0" x1="1598.96" y1="1695.19" x2="3071.78" y2= "1242.85" />
    <path class="fil3" d="M3111.47 1147.7c0,0 -65.24,78.83 -36.43,159.3l-1475.54 457.78c0,0 -27.73,-70.13 37.51,-164.19l1474.46 -452.88z"/>
    <polygon class="fil4" points="1759.88,-148.97 3111.47,1147.7 1637.56,1600.59 256.07,315.88 "/>
    <path class="fil5" d="M1887.65 -27.19l-114.72 -109.82 -1010.15 312.07c16.31,14.68 38.6,26.64 64.15,33.71l912.83 249.55c52.19,14.14 97.86,0 101.13,-30.99l46.76 -454.52z"/>
    <path class="fil6" d="M1874.06 -39.69l-114.72 -109.82 -1009.61 312.07c16.31,14.68 38.6,26.64 64.15,33.71l912.83 249.55c52.19,14.14 97.86,0 101.13,-30.99l46.21 -454.51z"/>
    <path class="fil7" d="M1722.91 -38.06l-78.83 -75.57 -693.73 214.21c10.87,9.79 26.64,18.49 44.04,23.38l626.32 171.26c35.88,9.79 67.42,0 69.59,-21.2l32.62 -312.07z"/>
    <path class="fil8" d="M1041.51 877.29l23.28 -6.96 -70.53 -63.07 0.34 -0.1 102.82 53.42 19.71 -5.89 -38.41 -72.67 0.51 -0.15 70.53 63.07 23.28 -6.96 -94.04 -84.09 -32.29 9.65 38.03 73.55 -0.34 0.1 -104.65 -53.63 -32.29 9.65 94.04 84.09zm175.88 -136.73l-20.73 6.2 8.9 7.95 -0.34 0.1c-1.7,-0.71 -23.38,-6.51 -42.58,-0.77 -26.17,7.82 -31.61,28.1 -10.01,47.42 23.51,21.02 59.58,27.53 83.88,20.26 11.9,-3.55 21.13,-11.92 21.91,-19.74l8.77 7.84 20.73 -6.2 -70.53 -63.07zm13.66 37.77c13.09,11.7 10.34,23.44 -5.29,28.11 -16.14,4.82 -37.83,-0.37 -49.77,-11.05 -10.55,-9.43 -12.98,-22.96 5.55,-28.49 13.43,-4.01 34.9,-1.64 49.52,11.43zm82.51 -43.62c-14.83,-12.25 -38.26,-14.34 -52.37,-10.13 -15.12,4.52 -23.47,16.72 -9.75,28.99 11.57,10.34 27.9,12.59 41.28,11.77 20.22,-1.19 26.58,-1.58 31.79,3.08 2.92,2.61 4.23,7.23 -3.08,9.41 -9.35,2.79 -17.23,-1.82 -21.43,-4.36l-23.11 6.91c4.83,3.71 11.27,8.46 22.39,11.51 14.17,3.95 28.14,2.65 37.49,-0.14 16.14,-4.83 24.2,-17.7 8.31,-31.9 -14.23,-12.73 -33.04,-12.11 -47.43,-10.99 -14.99,0.99 -19.79,1.37 -23.85,-2.27 -2.92,-2.61 -3.04,-6.37 2.56,-8.04 2.38,-0.71 7.99,-1.78 15.11,2.76l22.09 -6.6zm71.73 39.81l22.6 -6.76 -55.54 -49.66 13.59 -4.06 -15 -13.41 -13.59 4.06 -23.51 -21.03 -22.6 6.76 23.51 21.02 -11.05 3.3 15 13.41 11.05 -3.3 55.54 49.66zm110.97 -66.22c-1.61,-2.25 -3.85,-5.07 -7.15,-8.02 -17.79,-15.91 -54.57,-27.51 -85.5,-18.27 -29.91,8.94 -31.7,30.86 -11.75,48.7 20.59,18.41 58.44,27.11 87.15,18.53 22.26,-6.66 28.29,-22.56 21.02,-35.55l-23.79 7.11c1.6,6.5 -2.7,11.57 -12.73,14.57 -16.14,4.83 -34.9,-1.4 -40.49,-5.18l73.25 -21.89zm-87.52 9.94c-8.84,-12.98 1.36,-19.66 10.54,-22.41 12.07,-3.61 27.77,-2.54 41.63,6.81l-52.17 15.59zm132.39 9.71l22.6 -6.76 -39.65 -35.46c-4.19,-3.75 -16.27,-14.55 3.66,-21.26l-16.39 -14.66 -1.87 0.56c-11.73,3.51 -11.91,8.41 -11.58,13.77l-0.34 0.1 -6.23 -5.57 -20.73 6.2 70.53 63.07zm-307.73 284.85l23.28 -6.96 -34.7 -31.02 -17.88 -65.47 -25.66 7.67 15.68 46.86 -70.57 -30.46 -25.49 7.62 100.64 40.73 34.69 31.02zm104.25 -28.43c26.17,-7.82 35.35,-28 12.22,-48.69 -21.6,-19.32 -60.77,-26.57 -87.45,-18.59 -27.02,8.08 -33.91,29.69 -12.56,48.79 20.21,18.07 59.75,26.87 87.79,18.49zm-15.5 -13.87c-14.28,4.27 -36.34,0.55 -49.69,-11.38 -14.74,-13.18 -6.27,-24.66 5.46,-28.17 14.1,-4.22 36.89,0.34 49.73,11.82 11.18,10 10.98,22.8 -5.5,27.72zm66.74 -88.33l36.09 32.27c11.18,10 16.46,20.4 2.19,24.67 -19.71,5.89 -35.34,-8.08 -41.06,-13.2l-35.97 -32.16 -22.6 6.76 36.85 32.96c5.85,5.23 17.29,15.46 31.75,20.08 9.59,2.9 25.63,5.68 42.79,0.55 14.44,-4.32 14.97,-11.15 14.9,-15.67l0.34 -0.1 7.12 6.37 20.73 -6.2 -70.53 -63.07 -22.6 6.76zm113.36 50.27l22.6 -6.76 -39.65 -35.46c-4.19,-3.75 -16.27,-14.55 3.66,-21.26l-16.39 -14.66 -1.87 0.56c-11.73,3.51 -11.91,8.41 -11.58,13.77l-0.34 0.1 -6.23 -5.57 -20.73 6.2 70.53 63.07zm167.55 -81.32c-1.16,5.65 -2.96,14.99 -19.79,20.02 -22.26,6.66 -56.93,-1.03 -74.6,-16.82 -18.81,-16.82 -11.97,-35.24 8.42,-41.34 13.94,-4.17 29.35,-3.16 46.1,1.08l26.51 -7.92c-32.65,-14.81 -67.13,-14.21 -88.03,-7.96 -36.37,10.87 -42.47,39.68 -16.54,62.87 26.56,23.75 78.54,35.36 114.91,24.49 24.13,-7.21 37.46,-24.08 30.03,-42.49l-27.02 8.08zm113.1 0.16c26.17,-7.82 35.35,-28 12.22,-48.68 -21.6,-19.32 -60.77,-26.57 -87.45,-18.59 -27.02,8.08 -33.91,29.7 -12.56,48.79 20.21,18.07 59.75,26.87 87.79,18.49zm-15.51 -13.86c-14.28,4.27 -36.34,0.55 -49.68,-11.38 -14.74,-13.18 -6.27,-24.66 5.46,-28.17 14.1,-4.22 36.89,0.34 49.73,11.82 11.18,10 10.98,22.8 -5.5,27.72zm66.74 -88.33l36.09 32.27c11.18,10 16.46,20.4 2.19,24.67 -19.71,5.89 -35.34,-8.08 -41.06,-13.2l-35.96 -32.16 -22.6 6.76 36.86 32.96c5.85,5.23 17.28,15.45 31.75,20.08 9.59,2.9 25.63,5.68 42.79,0.55 14.44,-4.32 14.97,-11.15 14.9,-15.67l0.34 -0.1 7.12 6.36 20.73 -6.2 -70.53 -63.07 -22.6 6.76zm113.36 50.27l22.6 -6.76 -39.65 -35.46c-4.19,-3.75 -16.27,-14.55 3.66,-21.26l-16.39 -14.66 -1.87 0.56c-11.73,3.51 -11.91,8.41 -11.58,13.77l-0.34 0.1 -6.23 -5.57 -20.73 6.2 70.53 63.07zm61.33 -79.59c-14.83,-12.25 -38.26,-14.34 -52.37,-10.13 -15.12,4.52 -23.47,16.72 -9.75,28.99 11.57,10.34 27.9,12.59 41.28,11.77 20.21,-1.19 26.58,-1.58 31.79,3.08 2.92,2.61 4.23,7.23 -3.08,9.41 -9.35,2.79 -17.23,-1.82 -21.43,-4.36l-23.11 6.91c4.83,3.71 11.27,8.46 22.39,11.51 14.17,3.95 28.14,2.65 37.49,-0.14 16.14,-4.83 24.2,-17.7 8.31,-31.9 -14.23,-12.73 -33.04,-12.11 -47.43,-10.99 -14.99,0.99 -19.79,1.37 -23.85,-2.27 -2.92,-2.61 -3.04,-6.37 2.56,-8.04 2.38,-0.71 7.99,-1.78 15.11,2.76l22.09 -6.6zm131.72 -11.17c-1.61,-2.25 -3.85,-5.07 -7.15,-8.02 -17.79,-15.91 -54.57,-27.51 -85.5,-18.26 -29.91,8.94 -31.7,30.86 -11.75,48.7 20.59,18.41 58.44,27.11 87.16,18.53 22.26,-6.65 28.29,-22.56 21.01,-35.55l-23.79 7.11c1.6,6.5 -2.7,11.57 -12.73,14.57 -16.14,4.82 -34.89,-1.4 -40.49,-5.18l73.25 -21.89zm-87.52 9.94c-8.84,-12.98 1.36,-19.66 10.54,-22.41 12.07,-3.61 27.77,-2.54 41.63,6.81l-52.17 15.59zm139.34 -53.63c-14.83,-12.25 -38.26,-14.34 -52.37,-10.13 -15.12,4.52 -23.47,16.72 -9.75,28.99 11.57,10.34 27.9,12.59 41.28,11.77 20.21,-1.19 26.58,-1.58 31.79,3.08 2.92,2.61 4.23,7.23 -3.08,9.41 -9.35,2.79 -17.23,-1.82 -21.43,-4.36l-23.11 6.91c4.83,3.71 11.27,8.46 22.39,11.51 14.17,3.95 28.14,2.65 37.49,-0.14 16.14,-4.82 24.2,-17.7 8.31,-31.9 -14.23,-12.73 -33.04,-12.11 -47.43,-10.99 -14.99,0.99 -19.79,1.36 -23.85,-2.27 -2.92,-2.61 -3.04,-6.37 2.56,-8.04 2.38,-0.71 7.99,-1.78 15.11,2.76l22.09 -6.6z"/>
   </g>
  </g>
  <polygon class="fil2" points="-0,1265.14 2318.79,1265.14 2318.79,0 -0,0 "/>
 </g>
</svg>
